{"glyphs":{"0":{"ha":884,"x_min":92,"x_max":792,"o":"m 370 -13 q 155 102 218 -13 q 124 438 92 217 l 141 567 q 268 907 173 790 q 516 1023 364 1023 q 729 907 667 1023 q 760 567 792 790 l 742 438 q 616 102 711 217 q 370 -13 521 -13 m 378 44 q 578 143 505 44 q 681 451 652 241 l 696 554 q 680 867 725 768 q 508 966 635 966 q 306 867 380 966 q 203 554 232 768 l 188 451 q 205 143 159 241 q 378 44 250 44 m 432 432 q 386 443 403 432 q 374 486 370 455 l 379 523 q 403 566 384 554 q 452 577 423 577 q 497 566 481 577 q 509 523 514 554 l 504 486 q 480 443 500 455 q 432 432 460 432 z "},"1":{"ha":884,"x_min":125,"x_max":726,"o":"m 125 0 l 133 57 l 410 57 l 524 865 l 513 865 q 391 739 475 789 q 210 689 308 689 l 206 756 q 422 826 328 756 q 548 1010 516 896 l 607 1010 l 473 57 l 726 57 l 718 0 l 125 0 z "},"2":{"ha":884,"x_min":62,"x_max":793,"o":"m 62 0 l 92 215 q 160 386 107 323 q 309 470 213 449 l 539 520 q 655 580 617 537 q 703 698 692 622 l 710 750 q 679 915 726 864 q 508 966 631 966 q 329 914 388 966 q 240 731 270 861 l 178 737 q 289 952 207 881 q 514 1023 371 1023 q 727 957 662 1023 q 775 763 793 891 l 764 679 q 693 538 751 592 q 537 462 634 484 l 326 415 q 208 352 247 399 q 155 217 168 304 l 133 57 l 688 57 l 681 0 l 62 0 z "},"3":{"ha":884,"x_min":73,"x_max":782,"o":"m 357 -13 q 138 47 203 -13 q 83 242 73 107 l 148 250 q 191 87 144 133 q 365 42 239 42 q 572 94 506 42 q 655 274 638 146 l 660 308 q 628 465 677 419 q 443 511 578 511 l 342 511 l 350 568 l 451 568 q 627 604 572 568 q 694 727 682 640 l 699 768 q 669 923 716 878 q 495 968 622 968 q 326 927 380 968 q 247 779 271 886 l 186 787 q 286 967 211 912 q 503 1023 361 1023 q 720 962 659 1023 q 763 768 782 902 l 758 727 q 695 598 746 646 q 566 544 644 551 l 563 533 q 696 467 653 525 q 723 308 739 409 l 718 274 q 612 56 698 124 q 357 -13 527 -13 z "},"4":{"ha":884,"x_min":91,"x_max":793,"o":"m 172 354 l 578 354 l 662 947 l 172 354 m 785 297 l 634 297 l 592 0 l 529 0 l 571 297 l 91 297 l 98 354 l 639 1010 l 734 1010 l 641 354 l 793 354 l 785 297 z "},"5":{"ha":884,"x_min":80,"x_max":771,"o":"m 356 -13 q 146 52 212 -13 q 85 251 80 116 l 149 258 q 196 92 149 140 q 365 44 244 44 q 568 100 496 44 q 655 273 639 157 l 664 333 q 636 487 679 437 q 491 537 593 537 l 163 537 l 229 1010 l 771 1010 l 764 953 l 284 953 l 234 593 l 499 593 q 687 530 628 593 q 729 345 746 466 l 717 260 q 606 57 698 128 q 356 -13 514 -13 z "},"6":{"ha":884,"x_min":85,"x_max":778,"o":"m 370 -13 q 152 73 220 -13 q 111 348 85 158 l 154 655 q 272 932 181 841 q 518 1023 364 1023 q 710 973 650 1023 q 778 813 770 924 l 713 801 q 662 932 707 898 q 508 966 617 966 q 308 893 376 966 q 217 655 240 821 l 193 484 l 206 484 q 309 568 245 538 q 470 598 374 598 q 682 524 620 598 q 727 331 744 449 l 723 303 q 610 70 702 153 q 370 -13 518 -13 m 376 44 q 570 107 501 44 q 657 301 639 169 l 659 317 q 623 487 676 432 q 446 542 571 542 q 253 487 321 542 q 169 317 186 432 l 167 301 q 200 107 149 169 q 376 44 251 44 z "},"7":{"ha":884,"x_min":196,"x_max":822,"o":"m 277 0 q 468 508 385 306 q 751 953 552 711 l 196 953 l 203 1010 l 822 1010 l 814 953 q 512 451 597 664 q 352 0 427 239 l 277 0 z "},"8":{"ha":884,"x_min":80,"x_max":782,"o":"m 370 -13 q 146 55 212 -13 q 98 261 80 122 l 102 289 q 174 459 117 399 q 316 527 231 519 l 317 538 q 213 595 249 544 q 191 740 178 645 l 197 780 q 292 963 213 903 q 515 1023 371 1023 q 720 963 659 1023 q 765 780 782 903 l 759 740 q 697 595 746 645 q 577 538 648 544 l 576 527 q 697 459 658 519 q 721 289 736 399 l 717 261 q 613 55 698 122 q 370 -13 528 -13 m 449 556 q 626 595 571 556 q 696 734 682 635 l 699 768 q 672 923 716 878 q 508 968 629 968 q 330 923 386 968 q 258 768 274 878 l 254 734 q 284 595 240 635 q 449 556 328 556 m 378 42 q 575 94 513 42 q 655 274 638 146 l 659 295 q 626 453 674 407 q 442 499 577 499 q 244 453 307 499 q 167 295 182 407 l 163 274 q 194 94 145 146 q 378 42 242 42 z "},"9":{"ha":884,"x_min":107,"x_max":801,"o":"m 438 468 q 631 523 563 468 q 715 693 698 578 l 717 710 q 685 903 736 841 q 509 966 634 966 q 315 903 384 966 q 227 710 246 841 l 225 693 q 261 523 208 578 q 438 468 313 468 m 367 -13 q 175 37 235 -13 q 107 197 115 86 l 172 212 q 221 80 178 116 q 378 44 264 44 q 576 117 509 44 q 667 355 644 189 l 692 527 l 679 527 q 571 442 635 472 q 415 412 506 412 q 207 482 275 412 q 158 679 139 552 l 162 707 q 275 940 182 857 q 515 1023 367 1023 q 735 937 669 1023 q 774 662 801 852 l 730 355 q 613 81 705 174 q 367 -13 521 -13 z "},"\u0000":{"ha":0,"x_min":0,"x_max":0,"o":""},"\r":{"ha":0,"x_min":0,"x_max":0,"o":""}," ":{"ha":884,"x_min":0,"x_max":0,"o":""}," ":{"ha":884,"x_min":0,"x_max":0,"o":""},"A":{"ha":884,"x_min":11,"x_max":732,"o":"m 595 372 l 497 910 l 249 372 l 595 372 m 662 0 l 605 316 l 222 316 l 77 0 l 11 0 l 491 1010 l 535 1010 l 732 0 l 662 0 z "},"À":{"ha":884,"x_min":11,"x_max":732,"o":"m 11 0 m 595 372 l 497 910 l 249 372 l 595 372 m 662 0 l 605 316 l 222 316 l 77 0 l 11 0 l 491 1010 l 535 1010 l 732 0 l 662 0 m 559 1136 l 361 1389 l 462 1389 l 611 1136 l 559 1136 z "},"Á":{"ha":884,"x_min":11,"x_max":763,"o":"m 11 0 m 595 372 l 497 910 l 249 372 l 595 372 m 662 0 l 605 316 l 222 316 l 77 0 l 11 0 l 491 1010 l 535 1010 l 732 0 l 662 0 m 442 1136 l 662 1389 l 763 1389 l 494 1136 l 442 1136 z "},"Â":{"ha":884,"x_min":11,"x_max":774,"o":"m 11 0 m 595 372 l 497 910 l 249 372 l 595 372 m 662 0 l 605 316 l 222 316 l 77 0 l 11 0 l 491 1010 l 535 1010 l 732 0 l 662 0 m 317 1164 l 295 1198 l 544 1410 l 585 1410 l 774 1198 l 742 1164 l 556 1351 l 317 1164 z "},"Ã":{"ha":884,"x_min":11,"x_max":795,"o":"m 11 0 m 595 372 l 497 910 l 249 372 l 595 372 m 662 0 l 605 316 l 222 316 l 77 0 l 11 0 l 491 1010 l 535 1010 l 732 0 l 662 0 m 639 1149 q 571 1174 597 1149 q 518 1263 544 1198 q 484 1332 500 1313 q 447 1351 468 1351 q 385 1309 408 1351 q 352 1176 362 1266 l 350 1162 l 297 1162 l 299 1181 q 354 1346 316 1290 q 455 1402 393 1402 q 523 1379 497 1402 q 571 1294 548 1356 q 609 1220 593 1240 q 645 1199 625 1199 q 705 1242 682 1199 q 741 1375 729 1284 l 742 1389 l 795 1389 l 793 1370 q 739 1205 778 1260 q 639 1149 701 1149 z "},"Ä":{"ha":884,"x_min":11,"x_max":734,"o":"m 11 0 m 595 372 l 497 910 l 249 372 l 595 372 m 662 0 l 605 316 l 222 316 l 77 0 l 11 0 l 491 1010 l 535 1010 l 732 0 l 662 0 m 400 1174 q 360 1184 375 1174 q 350 1221 346 1193 l 351 1230 q 372 1268 355 1258 q 414 1279 389 1279 q 454 1268 439 1279 q 465 1230 468 1258 l 463 1221 q 442 1184 460 1193 q 400 1174 424 1174 m 665 1174 q 626 1184 640 1174 q 615 1221 611 1193 l 616 1230 q 637 1268 620 1258 q 679 1279 654 1279 q 719 1268 705 1279 q 730 1230 734 1258 l 729 1221 q 707 1184 725 1193 q 665 1174 689 1174 z "},"Å":{"ha":884,"x_min":11,"x_max":745,"o":"m 11 0 m 595 372 l 497 910 l 249 372 l 595 372 m 662 0 l 605 316 l 222 316 l 77 0 l 11 0 l 491 1010 l 535 1010 l 732 0 l 662 0 m 524 1117 q 400 1164 438 1117 q 374 1301 361 1211 l 379 1341 q 444 1480 391 1432 q 582 1528 496 1528 q 706 1480 668 1528 q 732 1341 745 1432 l 727 1301 q 662 1164 715 1211 q 524 1117 610 1117 m 532 1169 q 625 1201 593 1169 q 667 1301 657 1232 l 672 1341 q 659 1444 682 1412 q 574 1476 636 1476 q 481 1444 513 1476 q 439 1341 449 1412 l 434 1301 q 447 1201 424 1232 q 532 1169 470 1169 z "},"Ā":{"ha":884,"x_min":11,"x_max":770,"o":"m 11 0 m 595 372 l 497 910 l 249 372 l 595 372 m 662 0 l 605 316 l 222 316 l 77 0 l 11 0 l 491 1010 l 535 1010 l 732 0 l 662 0 m 321 1237 l 328 1294 l 770 1294 l 763 1237 l 321 1237 z "},"Ă":{"ha":884,"x_min":11,"x_max":818,"o":"m 11 0 m 595 372 l 497 910 l 249 372 l 595 372 m 662 0 l 605 316 l 222 316 l 77 0 l 11 0 l 491 1010 l 535 1010 l 732 0 l 662 0 m 525 1128 q 347 1196 402 1128 q 308 1393 292 1264 l 371 1393 q 397 1234 359 1283 q 534 1184 436 1184 q 685 1234 633 1184 q 755 1393 737 1283 l 818 1393 q 724 1196 799 1264 q 525 1128 649 1128 z "},"Ą":{"ha":884,"x_min":11,"x_max":789,"o":"m 11 0 m 595 372 l 497 910 l 249 372 l 595 372 m 662 0 l 605 316 l 222 316 l 77 0 l 11 0 l 491 1010 l 535 1010 l 732 0 l 662 0 m 679 -271 q 564 -234 605 -271 q 533 -134 524 -196 q 587 -32 540 -80 q 707 43 634 15 l 720 29 q 634 -38 664 -3 q 598 -117 605 -73 q 614 -191 591 -168 q 694 -215 636 -215 q 743 -212 721 -215 q 789 -205 765 -210 l 782 -261 q 729 -269 756 -266 q 679 -271 701 -271 z "},"Ǻ":{"ha":884,"x_min":11,"x_max":837,"o":"m 11 0 m 595 372 l 497 910 l 249 372 l 595 372 m 662 0 l 605 316 l 222 316 l 77 0 l 11 0 l 491 1010 l 535 1010 l 732 0 l 662 0 m 524 1117 q 400 1164 438 1117 q 374 1301 361 1211 l 379 1341 q 444 1480 391 1432 q 582 1528 496 1528 q 706 1480 668 1528 q 732 1341 745 1432 l 727 1301 q 662 1164 715 1211 q 524 1117 610 1117 m 532 1169 q 625 1201 593 1169 q 667 1301 657 1232 l 672 1341 q 659 1444 682 1412 q 574 1476 636 1476 q 481 1444 513 1476 q 439 1341 449 1412 l 434 1301 q 447 1201 424 1232 q 532 1169 470 1169 m 516 1515 l 736 1768 l 837 1768 l 568 1515 l 516 1515 z "},"B":{"ha":884,"x_min":87,"x_max":770,"o":"m 87 0 l 229 1010 l 523 1010 q 710 949 650 1010 q 754 773 770 888 l 746 716 q 692 600 736 648 q 583 540 648 552 l 582 529 q 701 463 660 521 q 730 314 742 404 l 722 258 q 623 66 705 133 q 407 0 542 0 l 87 0 m 229 557 l 460 557 q 622 598 569 557 q 688 734 674 639 l 693 769 q 666 910 707 867 q 515 953 625 953 l 284 953 l 229 557 m 158 57 l 414 57 q 587 104 530 57 q 659 259 644 150 l 664 299 q 636 453 679 407 q 477 500 593 500 l 221 500 l 158 57 z "},"":{"ha":884,"x_min":87,"x_max":770,"o":"m 87 0 l 229 1010 l 523 1010 q 710 949 650 1010 q 754 773 770 888 l 746 716 q 692 600 736 648 q 583 540 648 552 l 582 529 q 701 463 660 521 q 730 314 742 404 l 722 258 q 623 66 705 133 q 407 0 542 0 l 87 0 m 229 557 l 460 557 q 622 598 569 557 q 688 734 674 639 l 693 769 q 666 910 707 867 q 515 953 625 953 l 284 953 l 229 557 m 158 57 l 414 57 q 587 104 530 57 q 659 259 644 150 l 664 299 q 636 453 679 407 q 477 500 593 500 l 221 500 l 158 57 z "},"C":{"ha":884,"x_min":86,"x_max":816,"o":"m 383 -13 q 155 78 225 -13 q 110 337 86 168 l 155 668 q 276 932 181 841 q 529 1023 371 1023 q 746 948 676 1023 q 802 712 816 872 l 739 706 q 699 908 746 851 q 520 966 652 966 q 311 893 383 966 q 217 655 240 821 l 174 350 q 202 116 152 187 q 390 44 253 44 q 593 104 525 44 q 681 299 660 164 l 744 293 q 629 66 722 144 q 383 -13 537 -13 z "},"Ç":{"ha":884,"x_min":86,"x_max":816,"o":"m 86 0 m 383 -13 q 155 78 225 -13 q 110 337 86 168 l 155 668 q 276 932 181 841 q 529 1023 371 1023 q 746 948 676 1023 q 802 712 816 872 l 739 706 q 699 908 746 851 q 520 966 652 966 q 311 893 383 966 q 217 655 240 821 l 174 350 q 202 116 152 187 q 390 44 253 44 q 593 104 525 44 q 681 299 660 164 l 744 293 q 629 66 722 144 q 383 -13 537 -13 m 346 0 l 362 28 q 472 -27 437 14 q 497 -128 506 -67 q 437 -234 487 -196 q 306 -273 386 -273 q 193 -241 234 -273 q 157 -133 152 -208 l 218 -128 q 237 -199 216 -178 q 307 -220 258 -220 q 398 -198 370 -220 q 434 -124 427 -177 q 421 -45 442 -73 q 346 0 400 -16 z "},"Ć":{"ha":884,"x_min":86,"x_max":824,"o":"m 86 0 m 383 -13 q 155 78 225 -13 q 110 337 86 168 l 155 668 q 276 932 181 841 q 529 1023 371 1023 q 746 948 676 1023 q 802 712 816 872 l 739 706 q 699 908 746 851 q 520 966 652 966 q 311 893 383 966 q 217 655 240 821 l 174 350 q 202 116 152 187 q 390 44 253 44 q 593 104 525 44 q 681 299 660 164 l 744 293 q 629 66 722 144 q 383 -13 537 -13 m 504 1136 l 723 1389 l 824 1389 l 556 1136 l 504 1136 z "},"Ĉ":{"ha":884,"x_min":86,"x_max":816,"o":"m 86 0 m 383 -13 q 155 78 225 -13 q 110 337 86 168 l 155 668 q 276 932 181 841 q 529 1023 371 1023 q 746 948 676 1023 q 802 712 816 872 l 739 706 q 699 908 746 851 q 520 966 652 966 q 311 893 383 966 q 217 655 240 821 l 174 350 q 202 116 152 187 q 390 44 253 44 q 593 104 525 44 q 681 299 660 164 l 744 293 q 629 66 722 144 q 383 -13 537 -13 m 328 1164 l 307 1198 l 556 1410 l 596 1410 l 785 1198 l 754 1164 l 567 1351 l 328 1164 z "},"Ċ":{"ha":884,"x_min":86,"x_max":816,"o":"m 86 0 m 383 -13 q 155 78 225 -13 q 110 337 86 168 l 155 668 q 276 932 181 841 q 529 1023 371 1023 q 746 948 676 1023 q 802 712 816 872 l 739 706 q 699 908 746 851 q 520 966 652 966 q 311 893 383 966 q 217 655 240 821 l 174 350 q 202 116 152 187 q 390 44 253 44 q 593 104 525 44 q 681 299 660 164 l 744 293 q 629 66 722 144 q 383 -13 537 -13 m 544 1174 q 500 1184 516 1174 q 487 1221 484 1194 l 489 1230 q 511 1268 492 1258 q 558 1279 530 1279 q 602 1268 586 1279 q 615 1230 619 1258 l 614 1221 q 591 1184 610 1194 q 544 1174 572 1174 z "},"Č":{"ha":884,"x_min":86,"x_max":816,"o":"m 86 0 m 383 -13 q 155 78 225 -13 q 110 337 86 168 l 155 668 q 276 932 181 841 q 529 1023 371 1023 q 746 948 676 1023 q 802 712 816 872 l 739 706 q 699 908 746 851 q 520 966 652 966 q 311 893 383 966 q 217 655 240 821 l 174 350 q 202 116 152 187 q 390 44 253 44 q 593 104 525 44 q 681 299 660 164 l 744 293 q 629 66 722 144 q 383 -13 537 -13 m 519 1141 l 330 1354 l 360 1388 l 548 1201 l 785 1388 l 808 1354 l 559 1141 l 519 1141 z "},"D":{"ha":884,"x_min":87,"x_max":794,"o":"m 87 0 l 229 1010 l 476 1010 q 716 910 638 1010 q 771 643 794 809 l 731 362 q 602 98 708 197 q 333 0 495 0 l 87 0 m 158 57 l 341 57 q 567 141 485 57 q 668 362 649 226 l 708 643 q 669 866 727 778 q 467 953 611 953 l 284 953 l 158 57 z "},"Ď":{"ha":884,"x_min":87,"x_max":795,"o":"m 87 0 m 87 0 l 229 1010 l 476 1010 q 716 910 638 1010 q 771 643 794 809 l 731 362 q 602 98 708 197 q 333 0 495 0 l 87 0 m 158 57 l 341 57 q 567 141 485 57 q 668 362 649 226 l 708 643 q 669 866 727 778 q 467 953 611 953 l 284 953 l 158 57 m 506 1141 l 317 1354 l 347 1388 l 535 1201 l 773 1388 l 795 1354 l 547 1141 l 506 1141 z "},"E":{"ha":884,"x_min":87,"x_max":822,"o":"m 87 0 l 229 1010 l 822 1010 l 814 953 l 284 953 l 232 581 l 699 581 l 691 524 l 223 524 l 158 57 l 688 57 l 681 0 l 87 0 z "},"":{"ha":884,"x_min":87,"x_max":822,"o":"m 87 0 l 229 1010 l 822 1010 l 814 953 l 284 953 l 232 581 l 699 581 l 691 524 l 223 524 l 158 57 l 688 57 l 681 0 l 87 0 z "},"È":{"ha":884,"x_min":87,"x_max":822,"o":"m 87 0 m 87 0 l 229 1010 l 822 1010 l 814 953 l 284 953 l 232 581 l 699 581 l 691 524 l 223 524 l 158 57 l 688 57 l 681 0 l 87 0 m 571 1136 l 372 1389 l 473 1389 l 622 1136 l 571 1136 z "},"É":{"ha":884,"x_min":87,"x_max":822,"o":"m 87 0 m 87 0 l 229 1010 l 822 1010 l 814 953 l 284 953 l 232 581 l 699 581 l 691 524 l 223 524 l 158 57 l 688 57 l 681 0 l 87 0 m 479 1136 l 698 1389 l 799 1389 l 530 1136 l 479 1136 z "},"Ê":{"ha":884,"x_min":87,"x_max":822,"o":"m 87 0 m 87 0 l 229 1010 l 822 1010 l 814 953 l 284 953 l 232 581 l 699 581 l 691 524 l 223 524 l 158 57 l 688 57 l 681 0 l 87 0 m 341 1164 l 319 1198 l 568 1410 l 609 1410 l 798 1198 l 766 1164 l 580 1351 l 341 1164 z "},"Ë":{"ha":884,"x_min":87,"x_max":822,"o":"m 87 0 m 87 0 l 229 1010 l 822 1010 l 814 953 l 284 953 l 232 581 l 699 581 l 691 524 l 223 524 l 158 57 l 688 57 l 681 0 l 87 0 m 424 1174 q 384 1184 399 1174 q 374 1221 370 1193 l 375 1230 q 396 1268 379 1258 q 438 1279 413 1279 q 478 1268 463 1279 q 489 1230 492 1258 l 487 1221 q 466 1184 484 1193 q 424 1174 448 1174 m 689 1174 q 650 1184 664 1174 q 639 1221 635 1193 l 640 1230 q 661 1268 644 1258 q 703 1279 678 1279 q 743 1268 729 1279 q 754 1230 758 1258 l 753 1221 q 731 1184 749 1193 q 689 1174 713 1174 z "},"Ē":{"ha":884,"x_min":87,"x_max":822,"o":"m 87 0 m 87 0 l 229 1010 l 822 1010 l 814 953 l 284 953 l 232 581 l 699 581 l 691 524 l 223 524 l 158 57 l 688 57 l 681 0 l 87 0 m 345 1237 l 352 1294 l 794 1294 l 787 1237 l 345 1237 z "},"Ĕ":{"ha":884,"x_min":87,"x_max":842,"o":"m 87 0 m 87 0 l 229 1010 l 822 1010 l 814 953 l 284 953 l 232 581 l 699 581 l 691 524 l 223 524 l 158 57 l 688 57 l 681 0 l 87 0 m 549 1128 q 371 1196 426 1128 q 332 1393 316 1264 l 395 1393 q 421 1234 383 1283 q 558 1184 460 1184 q 709 1234 657 1184 q 779 1393 761 1283 l 842 1393 q 748 1196 823 1264 q 549 1128 673 1128 z "},"Ė":{"ha":884,"x_min":87,"x_max":822,"o":"m 87 0 m 87 0 l 229 1010 l 822 1010 l 814 953 l 284 953 l 232 581 l 699 581 l 691 524 l 223 524 l 158 57 l 688 57 l 681 0 l 87 0 m 557 1174 q 513 1184 529 1174 q 500 1221 496 1194 l 501 1230 q 524 1268 505 1258 q 571 1279 543 1279 q 615 1268 598 1279 q 628 1230 631 1258 l 626 1221 q 604 1184 622 1194 q 557 1174 585 1174 z "},"Ę":{"ha":884,"x_min":87,"x_max":822,"o":"m 87 0 m 87 0 l 229 1010 l 822 1010 l 814 953 l 284 953 l 232 581 l 699 581 l 691 524 l 223 524 l 158 57 l 688 57 l 681 0 l 87 0 m 548 -271 q 433 -234 473 -271 q 402 -134 393 -196 q 456 -32 409 -80 q 576 43 503 15 l 588 29 q 503 -38 533 -3 q 467 -117 473 -73 q 482 -191 460 -168 q 563 -215 505 -215 q 612 -212 590 -215 q 658 -205 634 -210 l 650 -261 q 597 -269 625 -266 q 548 -271 569 -271 z "},"Ě":{"ha":884,"x_min":87,"x_max":833,"o":"m 87 0 m 87 0 l 229 1010 l 822 1010 l 814 953 l 284 953 l 232 581 l 699 581 l 691 524 l 223 524 l 158 57 l 688 57 l 681 0 l 87 0 m 544 1141 l 355 1354 l 385 1388 l 573 1201 l 811 1388 l 833 1354 l 585 1141 l 544 1141 z "},"F":{"ha":884,"x_min":87,"x_max":822,"o":"m 87 0 l 229 1010 l 822 1010 l 814 953 l 284 953 l 217 473 l 659 473 l 650 417 l 208 417 l 150 0 l 87 0 z "},"G":{"ha":884,"x_min":86,"x_max":797,"o":"m 395 -13 q 158 80 231 -13 q 111 350 86 172 l 154 655 q 275 929 179 836 q 529 1023 371 1023 q 738 956 679 1023 q 784 735 797 889 l 720 727 q 686 917 727 867 q 520 966 645 966 q 313 892 385 966 q 217 655 240 818 l 174 350 q 206 117 152 189 q 403 44 261 44 q 605 129 538 44 q 701 417 673 213 l 429 417 l 438 473 l 773 473 l 765 418 q 645 90 734 193 q 395 -13 557 -13 z "},"Ĝ":{"ha":884,"x_min":86,"x_max":798,"o":"m 86 0 m 395 -13 q 158 80 231 -13 q 111 350 86 172 l 154 655 q 275 929 179 836 q 529 1023 371 1023 q 738 956 679 1023 q 784 735 797 889 l 720 727 q 686 917 727 867 q 520 966 645 966 q 313 892 385 966 q 217 655 240 818 l 174 350 q 206 117 152 189 q 403 44 261 44 q 605 129 538 44 q 701 417 673 213 l 429 417 l 438 473 l 773 473 l 765 418 q 645 90 734 193 q 395 -13 557 -13 m 341 1164 l 319 1198 l 568 1410 l 609 1410 l 798 1198 l 766 1164 l 580 1351 l 341 1164 z "},"Ğ":{"ha":884,"x_min":86,"x_max":842,"o":"m 86 0 m 395 -13 q 158 80 231 -13 q 111 350 86 172 l 154 655 q 275 929 179 836 q 529 1023 371 1023 q 738 956 679 1023 q 784 735 797 889 l 720 727 q 686 917 727 867 q 520 966 645 966 q 313 892 385 966 q 217 655 240 818 l 174 350 q 206 117 152 189 q 403 44 261 44 q 605 129 538 44 q 701 417 673 213 l 429 417 l 438 473 l 773 473 l 765 418 q 645 90 734 193 q 395 -13 557 -13 m 549 1128 q 371 1196 426 1128 q 332 1393 316 1264 l 395 1393 q 421 1234 383 1283 q 558 1184 460 1184 q 709 1234 657 1184 q 779 1393 761 1283 l 842 1393 q 748 1196 823 1264 q 549 1128 673 1128 z "},"Ġ":{"ha":884,"x_min":86,"x_max":797,"o":"m 86 0 m 395 -13 q 158 80 231 -13 q 111 350 86 172 l 154 655 q 275 929 179 836 q 529 1023 371 1023 q 738 956 679 1023 q 784 735 797 889 l 720 727 q 686 917 727 867 q 520 966 645 966 q 313 892 385 966 q 217 655 240 818 l 174 350 q 206 117 152 189 q 403 44 261 44 q 605 129 538 44 q 701 417 673 213 l 429 417 l 438 473 l 773 473 l 765 418 q 645 90 734 193 q 395 -13 557 -13 m 544 1174 q 500 1184 516 1174 q 487 1221 484 1194 l 489 1230 q 511 1268 492 1258 q 558 1279 530 1279 q 602 1268 586 1279 q 615 1230 619 1258 l 614 1221 q 591 1184 610 1194 q 544 1174 572 1174 z "},"Ģ":{"ha":884,"x_min":86,"x_max":797,"o":"m 86 0 m 395 -13 q 158 80 231 -13 q 111 350 86 172 l 154 655 q 275 929 179 836 q 529 1023 371 1023 q 738 956 679 1023 q 784 735 797 889 l 720 727 q 686 917 727 867 q 520 966 645 966 q 313 892 385 966 q 217 655 240 818 l 174 350 q 206 117 152 189 q 403 44 261 44 q 605 129 538 44 q 701 417 673 213 l 429 417 l 438 473 l 773 473 l 765 418 q 645 90 734 193 q 395 -13 557 -13 m 187 -379 l 343 -126 l 444 -126 l 239 -379 l 187 -379 z "},"H":{"ha":884,"x_min":87,"x_max":797,"o":"m 87 0 l 229 1010 l 292 1010 l 232 581 l 674 581 l 734 1010 l 797 1010 l 655 0 l 592 0 l 665 524 l 223 524 l 150 0 l 87 0 z "},"Ĥ":{"ha":884,"x_min":87,"x_max":797,"o":"m 87 0 m 87 0 l 229 1010 l 292 1010 l 232 581 l 674 581 l 734 1010 l 797 1010 l 655 0 l 592 0 l 665 524 l 223 524 l 150 0 l 87 0 m 316 1164 l 294 1198 l 543 1410 l 583 1410 l 773 1198 l 741 1164 l 554 1351 l 316 1164 z "},"I":{"ha":884,"x_min":87,"x_max":797,"o":"m 87 0 l 95 57 l 347 57 l 473 953 l 221 953 l 229 1010 l 797 1010 l 789 953 l 537 953 l 410 57 l 663 57 l 655 0 l 87 0 z "},"Ì":{"ha":884,"x_min":87,"x_max":797,"o":"m 87 0 m 87 0 l 95 57 l 347 57 l 473 953 l 221 953 l 229 1010 l 797 1010 l 789 953 l 537 953 l 410 57 l 663 57 l 655 0 l 87 0 m 558 1136 l 360 1389 l 461 1389 l 610 1136 l 558 1136 z "},"Í":{"ha":884,"x_min":87,"x_max":797,"o":"m 87 0 m 87 0 l 95 57 l 347 57 l 473 953 l 221 953 l 229 1010 l 797 1010 l 789 953 l 537 953 l 410 57 l 663 57 l 655 0 l 87 0 m 441 1136 l 660 1389 l 761 1389 l 492 1136 l 441 1136 z "},"Î":{"ha":884,"x_min":87,"x_max":797,"o":"m 87 0 m 87 0 l 95 57 l 347 57 l 473 953 l 221 953 l 229 1010 l 797 1010 l 789 953 l 537 953 l 410 57 l 663 57 l 655 0 l 87 0 m 316 1164 l 294 1198 l 543 1410 l 583 1410 l 773 1198 l 741 1164 l 554 1351 l 316 1164 z "},"Ï":{"ha":884,"x_min":87,"x_max":797,"o":"m 87 0 m 87 0 l 95 57 l 347 57 l 473 953 l 221 953 l 229 1010 l 797 1010 l 789 953 l 537 953 l 410 57 l 663 57 l 655 0 l 87 0 m 399 1174 q 359 1184 374 1174 q 348 1221 345 1193 l 350 1230 q 371 1268 354 1258 q 413 1279 388 1279 q 453 1268 438 1279 q 463 1230 467 1258 l 462 1221 q 441 1184 458 1193 q 399 1174 423 1174 m 664 1174 q 624 1184 639 1174 q 614 1221 610 1193 l 615 1230 q 636 1268 619 1258 q 678 1279 653 1279 q 718 1268 703 1279 q 729 1230 732 1258 l 727 1221 q 706 1184 723 1193 q 664 1174 688 1174 z "},"Ĩ":{"ha":884,"x_min":87,"x_max":797,"o":"m 87 0 m 87 0 l 95 57 l 347 57 l 473 953 l 221 953 l 229 1010 l 797 1010 l 789 953 l 537 953 l 410 57 l 663 57 l 655 0 l 87 0 m 638 1149 q 569 1174 596 1149 q 516 1263 543 1198 q 483 1332 499 1313 q 446 1351 467 1351 q 384 1309 407 1351 q 351 1176 361 1266 l 348 1162 l 295 1162 l 298 1181 q 353 1346 314 1290 q 453 1402 391 1402 q 521 1379 496 1402 q 569 1294 547 1356 q 608 1220 592 1240 q 644 1199 624 1199 q 704 1242 681 1199 q 740 1375 727 1284 l 741 1389 l 794 1389 l 792 1370 q 738 1205 777 1260 q 638 1149 699 1149 z "},"Ī":{"ha":884,"x_min":87,"x_max":797,"o":"m 87 0 m 87 0 l 95 57 l 347 57 l 473 953 l 221 953 l 229 1010 l 797 1010 l 789 953 l 537 953 l 410 57 l 663 57 l 655 0 l 87 0 m 319 1237 l 327 1294 l 769 1294 l 761 1237 l 319 1237 z "},"Ĭ":{"ha":884,"x_min":87,"x_max":817,"o":"m 87 0 m 87 0 l 95 57 l 347 57 l 473 953 l 221 953 l 229 1010 l 797 1010 l 789 953 l 537 953 l 410 57 l 663 57 l 655 0 l 87 0 m 524 1128 q 345 1196 400 1128 q 307 1393 290 1264 l 370 1393 q 396 1234 357 1283 q 533 1184 434 1184 q 684 1234 631 1184 q 754 1393 736 1283 l 817 1393 q 723 1196 798 1264 q 524 1128 648 1128 z "},"Į":{"ha":884,"x_min":87,"x_max":797,"o":"m 87 0 m 87 0 l 95 57 l 347 57 l 473 953 l 221 953 l 229 1010 l 797 1010 l 789 953 l 537 953 l 410 57 l 663 57 l 655 0 l 87 0 m 428 -271 q 313 -234 354 -271 q 282 -134 273 -196 q 336 -32 289 -80 q 456 43 383 15 l 468 29 q 383 -38 413 -3 q 347 -117 354 -73 q 362 -191 340 -168 q 443 -215 385 -215 q 492 -212 470 -215 q 538 -205 514 -210 l 530 -261 q 477 -269 505 -266 q 428 -271 449 -271 z "},"İ":{"ha":884,"x_min":87,"x_max":797,"o":"m 87 0 m 87 0 l 95 57 l 347 57 l 473 953 l 221 953 l 229 1010 l 797 1010 l 789 953 l 537 953 l 410 57 l 663 57 l 655 0 l 87 0 m 532 1174 q 487 1184 504 1174 q 475 1221 471 1194 l 476 1230 q 499 1268 480 1258 q 545 1279 518 1279 q 590 1268 573 1279 q 602 1230 606 1258 l 601 1221 q 578 1184 597 1194 q 532 1174 559 1174 z "},"J":{"ha":884,"x_min":63,"x_max":797,"o":"m 343 -13 q 128 62 192 -13 q 78 297 63 136 l 143 304 q 178 102 133 160 q 347 44 223 44 q 549 111 481 44 q 638 327 617 178 l 726 953 l 442 953 l 449 1010 l 797 1010 l 702 328 q 588 72 677 157 q 343 -13 499 -13 z "},"Ĵ":{"ha":884,"x_min":63,"x_max":886,"o":"m 63 0 m 343 -13 q 128 62 192 -13 q 78 297 63 136 l 143 304 q 178 102 133 160 q 347 44 223 44 q 549 111 481 44 q 638 327 617 178 l 726 953 l 442 953 l 449 1010 l 797 1010 l 702 328 q 588 72 677 157 q 343 -13 499 -13 m 429 1164 l 408 1198 l 657 1410 l 697 1410 l 886 1198 l 855 1164 l 668 1351 l 429 1164 z "},"K":{"ha":884,"x_min":87,"x_max":871,"o":"m 221 505 l 150 0 l 87 0 l 229 1010 l 292 1010 l 230 562 l 336 562 l 788 1010 l 871 1010 l 394 540 l 726 0 l 646 0 l 340 505 l 221 505 z "},"Ķ":{"ha":884,"x_min":87,"x_max":871,"o":"m 87 0 m 221 505 l 150 0 l 87 0 l 229 1010 l 292 1010 l 230 562 l 336 562 l 788 1010 l 871 1010 l 394 540 l 726 0 l 646 0 l 340 505 l 221 505 m 174 -379 l 331 -126 l 432 -126 l 226 -379 l 174 -379 z "},"L":{"ha":884,"x_min":150,"x_max":663,"o":"m 150 0 l 292 1010 l 355 1010 l 221 57 l 663 57 l 655 0 l 150 0 z "},"Ĺ":{"ha":884,"x_min":150,"x_max":698,"o":"m 150 0 m 150 0 l 292 1010 l 355 1010 l 221 57 l 663 57 l 655 0 l 150 0 m 378 1136 l 597 1389 l 698 1389 l 429 1136 l 378 1136 z "},"Ļ":{"ha":884,"x_min":150,"x_max":663,"o":"m 150 0 m 150 0 l 292 1010 l 355 1010 l 221 57 l 663 57 l 655 0 l 150 0 m 193 -379 l 350 -126 l 451 -126 l 245 -379 l 193 -379 z "},"Ľ":{"ha":884,"x_min":150,"x_max":813,"o":"m 150 0 m 150 0 l 292 1010 l 355 1010 l 221 57 l 663 57 l 655 0 l 150 0 m 583 701 l 729 1010 l 813 1010 l 636 701 l 583 701 z "},"M":{"ha":884,"x_min":43,"x_max":841,"o":"m 374 253 l 234 907 l 106 0 l 43 0 l 184 1010 l 269 1010 l 417 318 l 759 1010 l 841 1010 l 699 0 l 636 0 l 763 903 l 439 253 l 374 253 z "},"N":{"ha":884,"x_min":87,"x_max":797,"o":"m 582 0 l 273 885 l 148 0 l 87 0 l 229 1010 l 294 1010 l 610 107 l 736 1010 l 797 1010 l 655 0 l 582 0 z "},"Ñ":{"ha":884,"x_min":87,"x_max":819,"o":"m 87 0 m 582 0 l 273 885 l 148 0 l 87 0 l 229 1010 l 294 1010 l 610 107 l 736 1010 l 797 1010 l 655 0 l 582 0 m 663 1149 q 595 1174 621 1149 q 542 1263 568 1198 q 508 1332 524 1313 q 471 1351 492 1351 q 409 1309 432 1351 q 376 1176 386 1266 l 374 1162 l 321 1162 l 323 1181 q 378 1346 340 1290 q 479 1402 417 1402 q 547 1379 521 1402 q 595 1294 572 1356 q 633 1220 617 1240 q 669 1199 649 1199 q 729 1242 706 1199 q 765 1375 753 1284 l 766 1389 l 819 1389 l 817 1370 q 763 1205 802 1260 q 663 1149 725 1149 z "},"Ń":{"ha":884,"x_min":87,"x_max":797,"o":"m 87 0 m 582 0 l 273 885 l 148 0 l 87 0 l 229 1010 l 294 1010 l 610 107 l 736 1010 l 797 1010 l 655 0 l 582 0 m 466 1136 l 686 1389 l 787 1389 l 518 1136 l 466 1136 z "},"Ņ":{"ha":884,"x_min":87,"x_max":797,"o":"m 87 0 m 582 0 l 273 885 l 148 0 l 87 0 l 229 1010 l 294 1010 l 610 107 l 736 1010 l 797 1010 l 655 0 l 582 0 m 149 -379 l 306 -126 l 407 -126 l 201 -379 l 149 -379 z "},"Ň":{"ha":884,"x_min":87,"x_max":821,"o":"m 87 0 m 582 0 l 273 885 l 148 0 l 87 0 l 229 1010 l 294 1010 l 610 107 l 736 1010 l 797 1010 l 655 0 l 582 0 m 532 1141 l 342 1354 l 372 1388 l 561 1201 l 798 1388 l 821 1354 l 572 1141 l 532 1141 z "},"O":{"ha":884,"x_min":85,"x_max":799,"o":"m 370 -13 q 150 76 216 -13 q 111 350 85 164 l 154 655 q 271 933 181 843 q 516 1023 362 1023 q 734 933 669 1023 q 773 655 799 843 l 730 350 q 614 76 703 164 q 370 -13 524 -13 m 378 44 q 576 116 508 44 q 667 350 644 188 l 710 655 q 685 893 732 821 q 508 966 638 966 q 309 893 378 966 q 217 655 240 821 l 174 350 q 199 116 152 188 q 378 44 247 44 z "},"Ò":{"ha":884,"x_min":85,"x_max":799,"o":"m 85 0 m 370 -13 q 150 76 216 -13 q 111 350 85 164 l 154 655 q 271 933 181 843 q 516 1023 362 1023 q 734 933 669 1023 q 773 655 799 843 l 730 350 q 614 76 703 164 q 370 -13 524 -13 m 378 44 q 576 116 508 44 q 667 350 644 188 l 710 655 q 685 893 732 821 q 508 966 638 966 q 309 893 378 966 q 217 655 240 821 l 174 350 q 199 116 152 188 q 378 44 247 44 m 558 1136 l 360 1389 l 461 1389 l 610 1136 l 558 1136 z "},"Ó":{"ha":884,"x_min":85,"x_max":812,"o":"m 85 0 m 370 -13 q 150 76 216 -13 q 111 350 85 164 l 154 655 q 271 933 181 843 q 516 1023 362 1023 q 734 933 669 1023 q 773 655 799 843 l 730 350 q 614 76 703 164 q 370 -13 524 -13 m 378 44 q 576 116 508 44 q 667 350 644 188 l 710 655 q 685 893 732 821 q 508 966 638 966 q 309 893 378 966 q 217 655 240 821 l 174 350 q 199 116 152 188 q 378 44 247 44 m 491 1136 l 711 1389 l 812 1389 l 543 1136 l 491 1136 z "},"Ô":{"ha":884,"x_min":85,"x_max":799,"o":"m 85 0 m 370 -13 q 150 76 216 -13 q 111 350 85 164 l 154 655 q 271 933 181 843 q 516 1023 362 1023 q 734 933 669 1023 q 773 655 799 843 l 730 350 q 614 76 703 164 q 370 -13 524 -13 m 378 44 q 576 116 508 44 q 667 350 644 188 l 710 655 q 685 893 732 821 q 508 966 638 966 q 309 893 378 966 q 217 655 240 821 l 174 350 q 199 116 152 188 q 378 44 247 44 m 316 1164 l 294 1198 l 543 1410 l 583 1410 l 773 1198 l 741 1164 l 554 1351 l 316 1164 z "},"Õ":{"ha":884,"x_min":85,"x_max":799,"o":"m 85 0 m 370 -13 q 150 76 216 -13 q 111 350 85 164 l 154 655 q 271 933 181 843 q 516 1023 362 1023 q 734 933 669 1023 q 773 655 799 843 l 730 350 q 614 76 703 164 q 370 -13 524 -13 m 378 44 q 576 116 508 44 q 667 350 644 188 l 710 655 q 685 893 732 821 q 508 966 638 966 q 309 893 378 966 q 217 655 240 821 l 174 350 q 199 116 152 188 q 378 44 247 44 m 638 1149 q 569 1174 596 1149 q 516 1263 543 1198 q 483 1332 499 1313 q 446 1351 467 1351 q 384 1309 407 1351 q 351 1176 361 1266 l 348 1162 l 295 1162 l 298 1181 q 353 1346 314 1290 q 453 1402 391 1402 q 521 1379 496 1402 q 569 1294 547 1356 q 608 1220 592 1240 q 644 1199 624 1199 q 704 1242 681 1199 q 740 1375 727 1284 l 741 1389 l 794 1389 l 792 1370 q 738 1205 777 1260 q 638 1149 699 1149 z "},"Ö":{"ha":884,"x_min":85,"x_max":799,"o":"m 85 0 m 370 -13 q 150 76 216 -13 q 111 350 85 164 l 154 655 q 271 933 181 843 q 516 1023 362 1023 q 734 933 669 1023 q 773 655 799 843 l 730 350 q 614 76 703 164 q 370 -13 524 -13 m 378 44 q 576 116 508 44 q 667 350 644 188 l 710 655 q 685 893 732 821 q 508 966 638 966 q 309 893 378 966 q 217 655 240 821 l 174 350 q 199 116 152 188 q 378 44 247 44 m 399 1174 q 359 1184 374 1174 q 348 1221 345 1193 l 350 1230 q 371 1268 354 1258 q 413 1279 388 1279 q 453 1268 438 1279 q 463 1230 467 1258 l 462 1221 q 441 1184 458 1193 q 399 1174 423 1174 m 664 1174 q 624 1184 639 1174 q 614 1221 610 1193 l 615 1230 q 636 1268 619 1258 q 678 1279 653 1279 q 718 1268 703 1279 q 729 1230 732 1258 l 727 1221 q 706 1184 723 1193 q 664 1174 688 1174 z "},"Ō":{"ha":884,"x_min":85,"x_max":799,"o":"m 85 0 m 370 -13 q 150 76 216 -13 q 111 350 85 164 l 154 655 q 271 933 181 843 q 516 1023 362 1023 q 734 933 669 1023 q 773 655 799 843 l 730 350 q 614 76 703 164 q 370 -13 524 -13 m 378 44 q 576 116 508 44 q 667 350 644 188 l 710 655 q 685 893 732 821 q 508 966 638 966 q 309 893 378 966 q 217 655 240 821 l 174 350 q 199 116 152 188 q 378 44 247 44 m 319 1237 l 327 1294 l 769 1294 l 761 1237 l 319 1237 z "},"Ŏ":{"ha":884,"x_min":85,"x_max":817,"o":"m 85 0 m 370 -13 q 150 76 216 -13 q 111 350 85 164 l 154 655 q 271 933 181 843 q 516 1023 362 1023 q 734 933 669 1023 q 773 655 799 843 l 730 350 q 614 76 703 164 q 370 -13 524 -13 m 378 44 q 576 116 508 44 q 667 350 644 188 l 710 655 q 685 893 732 821 q 508 966 638 966 q 309 893 378 966 q 217 655 240 821 l 174 350 q 199 116 152 188 q 378 44 247 44 m 524 1128 q 345 1196 400 1128 q 307 1393 290 1264 l 370 1393 q 396 1234 357 1283 q 533 1184 434 1184 q 684 1234 631 1184 q 754 1393 736 1283 l 817 1393 q 723 1196 798 1264 q 524 1128 648 1128 z "},"Ő":{"ha":884,"x_min":85,"x_max":816,"o":"m 85 0 m 370 -13 q 150 76 216 -13 q 111 350 85 164 l 154 655 q 271 933 181 843 q 516 1023 362 1023 q 734 933 669 1023 q 773 655 799 843 l 730 350 q 614 76 703 164 q 370 -13 524 -13 m 378 44 q 576 116 508 44 q 667 350 644 188 l 710 655 q 685 893 732 821 q 508 966 638 966 q 309 893 378 966 q 217 655 240 821 l 174 350 q 199 116 152 188 q 378 44 247 44 m 596 1136 l 702 1389 l 816 1389 l 648 1136 l 596 1136 m 356 1136 l 462 1389 l 576 1389 l 408 1136 l 356 1136 z "},"P":{"ha":884,"x_min":87,"x_max":816,"o":"m 87 0 l 229 1010 l 552 1010 q 753 942 689 1010 q 798 744 816 874 l 780 620 q 680 422 763 490 q 458 354 597 354 l 199 354 l 150 0 l 87 0 m 208 410 l 467 410 q 643 460 585 410 q 717 622 702 509 l 734 739 q 705 903 750 852 q 543 953 660 953 l 284 953 l 208 410 z "},"Q":{"ha":884,"x_min":86,"x_max":798,"o":"m 678 -241 q 422 -220 505 -277 q 357 -13 340 -163 q 148 82 211 -9 q 111 350 86 173 l 154 655 q 271 931 179 838 q 516 1023 362 1023 q 734 931 669 1023 q 773 655 798 838 l 730 350 q 628 92 706 183 q 420 -10 549 0 q 470 -177 404 -141 q 674 -186 535 -213 l 678 -241 m 378 44 q 576 116 508 44 q 667 350 644 188 l 710 655 q 685 893 732 821 q 508 966 638 966 q 309 893 378 966 q 217 655 240 821 l 174 350 q 199 116 152 188 q 378 44 247 44 z "},"R":{"ha":884,"x_min":87,"x_max":841,"o":"m 213 453 l 497 453 q 674 503 615 453 q 749 665 732 552 l 759 739 q 730 903 775 852 q 568 953 686 953 l 284 953 l 213 453 m 150 0 l 87 0 l 229 1010 l 577 1010 q 780 942 720 1010 q 823 744 841 874 l 812 663 q 724 474 794 542 q 532 398 654 407 l 736 0 l 665 0 l 462 396 l 206 396 l 150 0 z "},"Ŕ":{"ha":884,"x_min":87,"x_max":856,"o":"m 87 0 m 213 453 l 497 453 q 674 503 615 453 q 749 665 732 552 l 759 739 q 730 903 775 852 q 568 953 686 953 l 284 953 l 213 453 m 150 0 l 87 0 l 229 1010 l 577 1010 q 780 942 720 1010 q 823 744 841 874 l 812 663 q 724 474 794 542 q 532 398 654 407 l 736 0 l 665 0 l 462 396 l 206 396 l 150 0 m 535 1136 l 755 1389 l 856 1389 l 587 1136 l 535 1136 z "},"Ŗ":{"ha":884,"x_min":87,"x_max":841,"o":"m 87 0 m 213 453 l 497 453 q 674 503 615 453 q 749 665 732 552 l 759 739 q 730 903 775 852 q 568 953 686 953 l 284 953 l 213 453 m 150 0 l 87 0 l 229 1010 l 577 1010 q 780 942 720 1010 q 823 744 841 874 l 812 663 q 724 474 794 542 q 532 398 654 407 l 736 0 l 665 0 l 462 396 l 206 396 l 150 0 m 155 -379 l 312 -126 l 413 -126 l 207 -379 l 155 -379 z "},"Ř":{"ha":884,"x_min":87,"x_max":841,"o":"m 87 0 m 213 453 l 497 453 q 674 503 615 453 q 749 665 732 552 l 759 739 q 730 903 775 852 q 568 953 686 953 l 284 953 l 213 453 m 150 0 l 87 0 l 229 1010 l 577 1010 q 780 942 720 1010 q 823 744 841 874 l 812 663 q 724 474 794 542 q 532 398 654 407 l 736 0 l 665 0 l 462 396 l 206 396 l 150 0 m 513 1141 l 323 1354 l 354 1388 l 542 1201 l 779 1388 l 802 1354 l 553 1141 l 513 1141 z "},"S":{"ha":884,"x_min":68,"x_max":795,"o":"m 391 -8 q 198 35 274 -8 q 68 158 122 77 l 117 198 q 235 86 170 122 q 400 49 299 49 q 583 106 509 49 q 672 256 658 163 q 634 404 684 354 q 446 490 583 455 q 234 591 293 529 q 189 763 174 653 q 294 944 205 872 q 509 1015 384 1015 q 679 973 612 1015 q 795 856 745 932 l 747 814 q 645 922 699 885 q 501 958 590 958 q 331 907 400 958 q 251 771 263 855 q 287 631 237 678 q 473 548 337 583 q 687 443 626 508 q 731 256 747 379 q 621 68 715 143 q 391 -8 527 -8 z "},"":{"ha":884,"x_min":68,"x_max":795,"o":"m 391 -8 q 198 35 274 -8 q 68 158 122 77 l 117 198 q 235 86 170 122 q 400 49 299 49 q 583 106 509 49 q 672 256 658 163 q 634 404 684 354 q 446 490 583 455 q 234 591 293 529 q 189 763 174 653 q 294 944 205 872 q 509 1015 384 1015 q 679 973 612 1015 q 795 856 745 932 l 747 814 q 645 922 699 885 q 501 958 590 958 q 331 907 400 958 q 251 771 263 855 q 287 631 237 678 q 473 548 337 583 q 687 443 626 508 q 731 256 747 379 q 621 68 715 143 q 391 -8 527 -8 z "},"Ś":{"ha":884,"x_min":68,"x_max":795,"o":"m 68 0 m 391 -8 q 198 35 274 -8 q 68 158 122 77 l 117 198 q 235 86 170 122 q 400 49 299 49 q 583 106 509 49 q 672 256 658 163 q 634 404 684 354 q 446 490 583 455 q 234 591 293 529 q 189 763 174 653 q 294 944 205 872 q 509 1015 384 1015 q 679 973 612 1015 q 795 856 745 932 l 747 814 q 645 922 699 885 q 501 958 590 958 q 331 907 400 958 q 251 771 263 855 q 287 631 237 678 q 473 548 337 583 q 687 443 626 508 q 731 256 747 379 q 621 68 715 143 q 391 -8 527 -8 m 442 1136 l 662 1389 l 763 1389 l 494 1136 l 442 1136 z "},"Ŝ":{"ha":884,"x_min":68,"x_max":795,"o":"m 68 0 m 391 -8 q 198 35 274 -8 q 68 158 122 77 l 117 198 q 235 86 170 122 q 400 49 299 49 q 583 106 509 49 q 672 256 658 163 q 634 404 684 354 q 446 490 583 455 q 234 591 293 529 q 189 763 174 653 q 294 944 205 872 q 509 1015 384 1015 q 679 973 612 1015 q 795 856 745 932 l 747 814 q 645 922 699 885 q 501 958 590 958 q 331 907 400 958 q 251 771 263 855 q 287 631 237 678 q 473 548 337 583 q 687 443 626 508 q 731 256 747 379 q 621 68 715 143 q 391 -8 527 -8 m 317 1164 l 295 1198 l 544 1410 l 585 1410 l 774 1198 l 742 1164 l 556 1351 l 317 1164 z "},"Ş":{"ha":884,"x_min":68,"x_max":795,"o":"m 68 0 m 391 -8 q 198 35 274 -8 q 68 158 122 77 l 117 198 q 235 86 170 122 q 400 49 299 49 q 583 106 509 49 q 672 256 658 163 q 634 404 684 354 q 446 490 583 455 q 234 591 293 529 q 189 763 174 653 q 294 944 205 872 q 509 1015 384 1015 q 679 973 612 1015 q 795 856 745 932 l 747 814 q 645 922 699 885 q 501 958 590 958 q 331 907 400 958 q 251 771 263 855 q 287 631 237 678 q 473 548 337 583 q 687 443 626 508 q 731 256 747 379 q 621 68 715 143 q 391 -8 527 -8 m 335 0 l 351 28 q 460 -27 426 14 q 486 -128 495 -67 q 426 -234 476 -196 q 294 -273 375 -273 q 181 -241 222 -273 q 145 -133 140 -208 l 207 -128 q 225 -199 205 -178 q 295 -220 246 -220 q 387 -198 359 -220 q 423 -124 415 -177 q 410 -45 431 -73 q 335 0 389 -16 z "},"Š":{"ha":884,"x_min":68,"x_max":797,"o":"m 68 0 m 391 -8 q 198 35 274 -8 q 68 158 122 77 l 117 198 q 235 86 170 122 q 400 49 299 49 q 583 106 509 49 q 672 256 658 163 q 634 404 684 354 q 446 490 583 455 q 234 591 293 529 q 189 763 174 653 q 294 944 205 872 q 509 1015 384 1015 q 679 973 612 1015 q 795 856 745 932 l 747 814 q 645 922 699 885 q 501 958 590 958 q 331 907 400 958 q 251 771 263 855 q 287 631 237 678 q 473 548 337 583 q 687 443 626 508 q 731 256 747 379 q 621 68 715 143 q 391 -8 527 -8 m 508 1141 l 318 1354 l 348 1388 l 537 1201 l 774 1388 l 797 1354 l 548 1141 l 508 1141 z "},"Ș":{"ha":884,"x_min":68,"x_max":795,"o":"m 68 0 m 391 -8 q 198 35 274 -8 q 68 158 122 77 l 117 198 q 235 86 170 122 q 400 49 299 49 q 583 106 509 49 q 672 256 658 163 q 634 404 684 354 q 446 490 583 455 q 234 591 293 529 q 189 763 174 653 q 294 944 205 872 q 509 1015 384 1015 q 679 973 612 1015 q 795 856 745 932 l 747 814 q 645 922 699 885 q 501 958 590 958 q 331 907 400 958 q 251 771 263 855 q 287 631 237 678 q 473 548 337 583 q 687 443 626 508 q 731 256 747 379 q 621 68 715 143 q 391 -8 527 -8 m 149 -379 l 306 -126 l 407 -126 l 201 -379 l 149 -379 z "},"T":{"ha":884,"x_min":158,"x_max":860,"o":"m 340 0 l 473 953 l 158 953 l 165 1010 l 860 1010 l 852 953 l 537 953 l 403 0 l 340 0 z "},"Ţ":{"ha":884,"x_min":148,"x_max":860,"o":"m 148 0 m 340 0 l 473 953 l 158 953 l 165 1010 l 860 1010 l 852 953 l 537 953 l 403 0 l 340 0 m 342 0 l 359 28 q 468 -27 433 14 q 494 -128 503 -67 q 433 -234 484 -196 q 302 -273 383 -273 q 189 -241 230 -273 q 153 -133 148 -208 l 215 -128 q 233 -199 212 -178 q 303 -220 254 -220 q 395 -198 366 -220 q 431 -124 423 -177 q 417 -45 438 -73 q 342 0 396 -16 z "},"Ť":{"ha":884,"x_min":158,"x_max":860,"o":"m 158 0 m 340 0 l 473 953 l 158 953 l 165 1010 l 860 1010 l 852 953 l 537 953 l 403 0 l 340 0 m 506 1141 l 317 1354 l 347 1388 l 535 1201 l 773 1388 l 795 1354 l 547 1141 l 506 1141 z "},"Ț":{"ha":884,"x_min":148,"x_max":860,"o":"m 148 0 m 340 0 l 473 953 l 158 953 l 165 1010 l 860 1010 l 852 953 l 537 953 l 403 0 l 340 0 m 148 -379 l 304 -126 l 405 -126 l 199 -379 l 148 -379 z "},"U":{"ha":884,"x_min":110,"x_max":797,"o":"m 370 -13 q 167 76 225 -13 q 136 350 110 165 l 229 1010 l 292 1010 l 199 350 q 218 116 177 187 q 378 44 259 44 q 557 116 495 44 q 641 350 619 187 l 734 1010 l 797 1010 l 705 350 q 597 76 678 165 q 370 -13 515 -13 z "},"Ù":{"ha":884,"x_min":110,"x_max":797,"o":"m 110 0 m 370 -13 q 167 76 225 -13 q 136 350 110 165 l 229 1010 l 292 1010 l 199 350 q 218 116 177 187 q 378 44 259 44 q 557 116 495 44 q 641 350 619 187 l 734 1010 l 797 1010 l 705 350 q 597 76 678 165 q 370 -13 515 -13 m 558 1136 l 360 1389 l 461 1389 l 610 1136 l 558 1136 z "},"Ú":{"ha":884,"x_min":110,"x_max":797,"o":"m 110 0 m 370 -13 q 167 76 225 -13 q 136 350 110 165 l 229 1010 l 292 1010 l 199 350 q 218 116 177 187 q 378 44 259 44 q 557 116 495 44 q 641 350 619 187 l 734 1010 l 797 1010 l 705 350 q 597 76 678 165 q 370 -13 515 -13 m 441 1136 l 660 1389 l 761 1389 l 492 1136 l 441 1136 z "},"Û":{"ha":884,"x_min":110,"x_max":797,"o":"m 110 0 m 370 -13 q 167 76 225 -13 q 136 350 110 165 l 229 1010 l 292 1010 l 199 350 q 218 116 177 187 q 378 44 259 44 q 557 116 495 44 q 641 350 619 187 l 734 1010 l 797 1010 l 705 350 q 597 76 678 165 q 370 -13 515 -13 m 316 1164 l 294 1198 l 543 1410 l 583 1410 l 773 1198 l 741 1164 l 554 1351 l 316 1164 z "},"Ü":{"ha":884,"x_min":110,"x_max":797,"o":"m 110 0 m 370 -13 q 167 76 225 -13 q 136 350 110 165 l 229 1010 l 292 1010 l 199 350 q 218 116 177 187 q 378 44 259 44 q 557 116 495 44 q 641 350 619 187 l 734 1010 l 797 1010 l 705 350 q 597 76 678 165 q 370 -13 515 -13 m 399 1174 q 359 1184 374 1174 q 348 1221 345 1193 l 350 1230 q 371 1268 354 1258 q 413 1279 388 1279 q 453 1268 438 1279 q 463 1230 467 1258 l 462 1221 q 441 1184 458 1193 q 399 1174 423 1174 m 664 1174 q 624 1184 639 1174 q 614 1221 610 1193 l 615 1230 q 636 1268 619 1258 q 678 1279 653 1279 q 718 1268 703 1279 q 729 1230 732 1258 l 727 1221 q 706 1184 723 1193 q 664 1174 688 1174 z "},"Ũ":{"ha":884,"x_min":110,"x_max":797,"o":"m 110 0 m 370 -13 q 167 76 225 -13 q 136 350 110 165 l 229 1010 l 292 1010 l 199 350 q 218 116 177 187 q 378 44 259 44 q 557 116 495 44 q 641 350 619 187 l 734 1010 l 797 1010 l 705 350 q 597 76 678 165 q 370 -13 515 -13 m 638 1149 q 569 1174 596 1149 q 516 1263 543 1198 q 483 1332 499 1313 q 446 1351 467 1351 q 384 1309 407 1351 q 351 1176 361 1266 l 348 1162 l 295 1162 l 298 1181 q 353 1346 314 1290 q 453 1402 391 1402 q 521 1379 496 1402 q 569 1294 547 1356 q 608 1220 592 1240 q 644 1199 624 1199 q 704 1242 681 1199 q 740 1375 727 1284 l 741 1389 l 794 1389 l 792 1370 q 738 1205 777 1260 q 638 1149 699 1149 z "},"Ū":{"ha":884,"x_min":110,"x_max":797,"o":"m 110 0 m 370 -13 q 167 76 225 -13 q 136 350 110 165 l 229 1010 l 292 1010 l 199 350 q 218 116 177 187 q 378 44 259 44 q 557 116 495 44 q 641 350 619 187 l 734 1010 l 797 1010 l 705 350 q 597 76 678 165 q 370 -13 515 -13 m 319 1237 l 327 1294 l 769 1294 l 761 1237 l 319 1237 z "},"Ŭ":{"ha":884,"x_min":110,"x_max":817,"o":"m 110 0 m 370 -13 q 167 76 225 -13 q 136 350 110 165 l 229 1010 l 292 1010 l 199 350 q 218 116 177 187 q 378 44 259 44 q 557 116 495 44 q 641 350 619 187 l 734 1010 l 797 1010 l 705 350 q 597 76 678 165 q 370 -13 515 -13 m 524 1128 q 345 1196 400 1128 q 307 1393 290 1264 l 370 1393 q 396 1234 357 1283 q 533 1184 434 1184 q 684 1234 631 1184 q 754 1393 736 1283 l 817 1393 q 723 1196 798 1264 q 524 1128 648 1128 z "},"Ů":{"ha":884,"x_min":110,"x_max":797,"o":"m 110 0 m 370 -13 q 167 76 225 -13 q 136 350 110 165 l 229 1010 l 292 1010 l 199 350 q 218 116 177 187 q 378 44 259 44 q 557 116 495 44 q 641 350 619 187 l 734 1010 l 797 1010 l 705 350 q 597 76 678 165 q 370 -13 515 -13 m 523 1117 q 398 1164 437 1117 q 372 1301 360 1211 l 378 1341 q 443 1480 390 1432 q 581 1528 495 1528 q 705 1480 667 1528 q 731 1341 744 1432 l 726 1301 q 661 1164 713 1211 q 523 1117 609 1117 m 530 1169 q 624 1201 592 1169 q 665 1301 655 1232 l 670 1341 q 658 1444 681 1412 q 573 1476 635 1476 q 480 1444 511 1476 q 438 1341 448 1412 l 433 1301 q 446 1201 423 1232 q 530 1169 468 1169 z "},"Ű":{"ha":884,"x_min":110,"x_max":828,"o":"m 110 0 m 370 -13 q 167 76 225 -13 q 136 350 110 165 l 229 1010 l 292 1010 l 199 350 q 218 116 177 187 q 378 44 259 44 q 557 116 495 44 q 641 350 619 187 l 734 1010 l 797 1010 l 705 350 q 597 76 678 165 q 370 -13 515 -13 m 609 1136 l 715 1389 l 828 1389 l 660 1136 l 609 1136 m 369 1136 l 475 1389 l 588 1389 l 420 1136 l 369 1136 z "},"Ų":{"ha":884,"x_min":110,"x_max":797,"o":"m 110 0 m 370 -13 q 167 76 225 -13 q 136 350 110 165 l 229 1010 l 292 1010 l 199 350 q 218 116 177 187 q 378 44 259 44 q 557 116 495 44 q 641 350 619 187 l 734 1010 l 797 1010 l 705 350 q 597 76 678 165 q 370 -13 515 -13 m 415 -271 q 301 -234 341 -271 q 269 -134 260 -196 q 323 -32 277 -80 q 443 43 370 15 l 456 29 q 371 -38 400 -3 q 335 -117 341 -73 q 350 -191 327 -168 q 431 -215 372 -215 q 479 -212 457 -215 q 525 -205 501 -210 l 518 -261 q 465 -269 492 -266 q 415 -271 437 -271 z "},"V":{"ha":884,"x_min":153,"x_max":874,"o":"m 394 0 l 350 0 l 153 1010 l 226 1010 l 389 107 l 804 1010 l 874 1010 l 394 0 z "},"W":{"ha":884,"x_min":134,"x_max":880,"o":"m 545 0 l 470 692 l 197 0 l 134 0 l 145 1010 l 203 1010 l 193 112 l 451 770 l 515 770 l 586 120 l 818 1010 l 880 1010 l 609 0 l 545 0 z "},"Ŵ":{"ha":884,"x_min":134,"x_max":880,"o":"m 134 0 m 545 0 l 470 692 l 197 0 l 134 0 l 145 1010 l 203 1010 l 193 112 l 451 770 l 515 770 l 586 120 l 818 1010 l 880 1010 l 609 0 l 545 0 m 316 1164 l 294 1198 l 543 1410 l 583 1410 l 773 1198 l 741 1164 l 554 1351 l 316 1164 z "},"Ẁ":{"ha":884,"x_min":134,"x_max":880,"o":"m 134 0 m 545 0 l 470 692 l 197 0 l 134 0 l 145 1010 l 203 1010 l 193 112 l 451 770 l 515 770 l 586 120 l 818 1010 l 880 1010 l 609 0 l 545 0 m 571 1136 l 372 1389 l 473 1389 l 622 1136 l 571 1136 z "},"Ẃ":{"ha":884,"x_min":134,"x_max":880,"o":"m 134 0 m 545 0 l 470 692 l 197 0 l 134 0 l 145 1010 l 203 1010 l 193 112 l 451 770 l 515 770 l 586 120 l 818 1010 l 880 1010 l 609 0 l 545 0 m 453 1136 l 673 1389 l 774 1389 l 505 1136 l 453 1136 z "},"Ẅ":{"ha":884,"x_min":134,"x_max":880,"o":"m 134 0 m 545 0 l 470 692 l 197 0 l 134 0 l 145 1010 l 203 1010 l 193 112 l 451 770 l 515 770 l 586 120 l 818 1010 l 880 1010 l 609 0 l 545 0 m 399 1174 q 359 1184 374 1174 q 348 1221 345 1193 l 350 1230 q 371 1268 354 1258 q 413 1279 388 1279 q 453 1268 438 1279 q 463 1230 467 1258 l 462 1221 q 441 1184 458 1193 q 399 1174 423 1174 m 664 1174 q 624 1184 639 1174 q 614 1221 610 1193 l 615 1230 q 636 1268 619 1258 q 678 1279 653 1279 q 718 1268 703 1279 q 729 1230 732 1258 l 727 1221 q 706 1184 723 1193 q 664 1174 688 1174 z "},"X":{"ha":884,"x_min":-10,"x_max":896,"o":"m 681 0 l 441 468 l 61 0 l -10 0 l 415 519 l 163 1010 l 234 1010 l 463 563 l 826 1010 l 896 1010 l 489 513 l 751 0 l 681 0 z "},"Y":{"ha":884,"x_min":120,"x_max":904,"o":"m 403 0 l 340 0 l 393 379 l 120 1010 l 192 1010 l 434 441 l 835 1010 l 904 1010 l 456 379 l 403 0 z "},"Ý":{"ha":884,"x_min":120,"x_max":904,"o":"m 120 0 m 403 0 l 340 0 l 393 379 l 120 1010 l 192 1010 l 434 441 l 835 1010 l 904 1010 l 456 379 l 403 0 m 441 1136 l 660 1389 l 761 1389 l 492 1136 l 441 1136 z "},"Ŷ":{"ha":884,"x_min":120,"x_max":904,"o":"m 120 0 m 403 0 l 340 0 l 393 379 l 120 1010 l 192 1010 l 434 441 l 835 1010 l 904 1010 l 456 379 l 403 0 m 316 1164 l 294 1198 l 543 1410 l 583 1410 l 773 1198 l 741 1164 l 554 1351 l 316 1164 z "},"Ÿ":{"ha":884,"x_min":120,"x_max":904,"o":"m 120 0 m 403 0 l 340 0 l 393 379 l 120 1010 l 192 1010 l 434 441 l 835 1010 l 904 1010 l 456 379 l 403 0 m 399 1174 q 359 1184 374 1174 q 348 1221 345 1193 l 350 1230 q 371 1268 354 1258 q 413 1279 388 1279 q 453 1268 438 1279 q 463 1230 467 1258 l 462 1221 q 441 1184 458 1193 q 399 1174 423 1174 m 664 1174 q 624 1184 639 1174 q 614 1221 610 1193 l 615 1230 q 636 1268 619 1258 q 678 1279 653 1279 q 718 1268 703 1279 q 729 1230 732 1258 l 727 1221 q 706 1184 723 1193 q 664 1174 688 1174 z "},"Ỳ":{"ha":884,"x_min":120,"x_max":904,"o":"m 120 0 m 403 0 l 340 0 l 393 379 l 120 1010 l 192 1010 l 434 441 l 835 1010 l 904 1010 l 456 379 l 403 0 m 558 1136 l 360 1389 l 461 1389 l 610 1136 l 558 1136 z "},"Z":{"ha":884,"x_min":62,"x_max":835,"o":"m 693 0 l 62 0 l 69 57 l 755 953 l 196 953 l 203 1010 l 835 1010 l 827 953 l 143 57 l 701 57 l 693 0 z "},"Ź":{"ha":884,"x_min":62,"x_max":835,"o":"m 62 0 m 693 0 l 62 0 l 69 57 l 755 953 l 196 953 l 203 1010 l 835 1010 l 827 953 l 143 57 l 701 57 l 693 0 m 479 1136 l 698 1389 l 799 1389 l 530 1136 l 479 1136 z "},"Ż":{"ha":884,"x_min":62,"x_max":835,"o":"m 62 0 m 693 0 l 62 0 l 69 57 l 755 953 l 196 953 l 203 1010 l 835 1010 l 827 953 l 143 57 l 701 57 l 693 0 m 532 1174 q 487 1184 504 1174 q 475 1221 471 1194 l 476 1230 q 499 1268 480 1258 q 545 1279 518 1279 q 590 1268 573 1279 q 602 1230 606 1258 l 601 1221 q 578 1184 597 1194 q 532 1174 559 1174 z "},"Ž":{"ha":884,"x_min":62,"x_max":835,"o":"m 62 0 m 693 0 l 62 0 l 69 57 l 755 953 l 196 953 l 203 1010 l 835 1010 l 827 953 l 143 57 l 701 57 l 693 0 m 506 1141 l 317 1354 l 347 1388 l 535 1201 l 773 1388 l 795 1354 l 547 1141 l 506 1141 z "},"Æ":{"ha":884,"x_min":-45,"x_max":910,"o":"m 428 953 l 176 372 l 461 372 l 543 953 l 428 953 m 453 316 l 150 316 l 13 0 l -45 0 l 396 1010 l 910 1010 l 903 953 l 606 953 l 553 571 l 837 571 l 828 514 l 544 514 l 480 57 l 777 57 l 769 0 l 409 0 l 453 316 z "},"Ǽ":{"ha":884,"x_min":-45,"x_max":926,"o":"m 0 0 m 428 953 l 176 372 l 461 372 l 543 953 l 428 953 m 453 316 l 150 316 l 13 0 l -45 0 l 396 1010 l 910 1010 l 903 953 l 606 953 l 553 571 l 837 571 l 828 514 l 544 514 l 480 57 l 777 57 l 769 0 l 409 0 l 453 316 m 605 1136 l 824 1389 l 926 1389 l 657 1136 l 605 1136 z "},"Ð":{"ha":884,"x_min":34,"x_max":794,"o":"m 34 524 l 43 581 l 422 581 l 413 524 l 34 524 m 87 0 l 229 1010 l 476 1010 q 716 910 638 1010 q 771 643 794 809 l 731 362 q 602 98 708 197 q 333 0 495 0 l 87 0 m 158 57 l 341 57 q 567 141 485 57 q 668 362 649 226 l 708 643 q 669 866 727 778 q 467 953 611 953 l 284 953 l 158 57 z "},"Ø":{"ha":884,"x_min":73,"x_max":788,"o":"m 192 124 l 634 942 q 578 960 610 955 q 508 966 547 966 q 307 894 375 966 q 217 655 240 822 l 174 350 q 167 217 163 273 q 192 124 172 160 m 378 44 q 577 115 510 44 q 667 350 644 186 l 710 655 q 715 808 722 746 q 678 907 708 870 l 231 80 q 293 53 256 62 q 378 44 330 44 m 370 -13 q 277 -3 318 -13 q 202 27 235 6 l 136 -95 l 73 -95 l 159 63 q 109 179 121 107 q 111 350 97 251 l 154 655 q 271 933 181 843 q 516 1023 362 1023 q 596 1016 559 1023 q 663 994 633 1009 l 722 1105 l 785 1105 l 708 962 q 772 842 756 919 q 773 655 788 765 l 730 350 q 614 76 703 164 q 370 -13 524 -13 z "},"Ǿ":{"ha":884,"x_min":73,"x_max":812,"o":"m 73 0 m 192 124 l 634 942 q 578 960 610 955 q 508 966 547 966 q 307 894 375 966 q 217 655 240 822 l 174 350 q 167 217 163 273 q 192 124 172 160 m 378 44 q 577 115 510 44 q 667 350 644 186 l 710 655 q 715 808 722 746 q 678 907 708 870 l 231 80 q 293 53 256 62 q 378 44 330 44 m 370 -13 q 277 -3 318 -13 q 202 27 235 6 l 136 -95 l 73 -95 l 159 63 q 109 179 121 107 q 111 350 97 251 l 154 655 q 271 933 181 843 q 516 1023 362 1023 q 596 1016 559 1023 q 663 994 633 1009 l 722 1105 l 785 1105 l 708 962 q 772 842 756 919 q 773 655 788 765 l 730 350 q 614 76 703 164 q 370 -13 524 -13 m 491 1136 l 711 1389 l 812 1389 l 543 1136 l 491 1136 z "},"Þ":{"ha":884,"x_min":87,"x_max":793,"o":"m 87 0 l 229 1010 l 292 1010 l 269 846 l 529 846 q 730 778 667 846 q 775 580 793 710 l 759 463 q 657 260 740 331 q 436 189 574 189 l 177 189 l 150 0 l 87 0 m 184 246 l 443 246 q 620 296 561 246 q 696 463 679 346 l 712 580 q 682 741 727 692 q 520 789 638 789 l 261 789 l 184 246 z "},"Đ":{"ha":884,"x_min":34,"x_max":794,"o":"m 34 524 l 43 581 l 422 581 l 413 524 l 34 524 m 87 0 l 229 1010 l 476 1010 q 716 910 638 1010 q 771 643 794 809 l 731 362 q 602 98 708 197 q 333 0 495 0 l 87 0 m 158 57 l 341 57 q 567 141 485 57 q 668 362 649 226 l 708 643 q 669 866 727 778 q 467 953 611 953 l 284 953 l 158 57 z "},"Ħ":{"ha":884,"x_min":64,"x_max":894,"o":"m 220 492 l 662 492 l 696 739 l 254 739 l 220 492 m 211 436 l 150 0 l 87 0 l 191 739 l 64 739 l 73 795 l 199 795 l 229 1010 l 292 1010 l 263 795 l 705 795 l 734 1010 l 797 1010 l 768 795 l 894 795 l 885 739 l 759 739 l 655 0 l 592 0 l 653 436 l 211 436 z "},"Ĳ":{"ha":884,"x_min":37,"x_max":848,"o":"m 100 0 l 37 0 l 178 1010 l 241 1010 l 100 0 m 487 -13 q 334 59 376 -13 q 307 293 292 131 l 370 301 q 390 104 360 163 q 496 44 419 44 q 623 104 580 44 q 687 302 667 163 l 778 953 l 506 953 l 514 1010 l 848 1010 l 750 303 q 665 61 726 135 q 487 -13 604 -13 z "},"Ŀ":{"ha":884,"x_min":150,"x_max":879,"o":"m 150 0 m 150 0 l 292 1010 l 355 1010 l 221 57 l 663 57 l 655 0 l 150 0 m 804 543 q 760 553 777 543 q 747 590 744 563 l 749 598 q 771 637 753 626 q 818 648 790 648 q 862 637 846 648 q 875 598 879 626 l 874 590 q 851 553 870 563 q 804 543 832 543 z "},"Ł":{"ha":884,"x_min":85,"x_max":663,"o":"m 85 436 l 93 492 l 622 669 l 615 612 l 85 436 m 150 0 l 292 1010 l 355 1010 l 221 57 l 663 57 l 655 0 l 150 0 z "},"Ŋ":{"ha":884,"x_min":87,"x_max":779,"o":"m 357 -263 q 278 -257 318 -263 q 197 -235 237 -251 l 221 -178 q 295 -199 260 -193 q 361 -206 330 -206 q 522 -143 463 -206 q 598 47 581 -81 l 694 725 q 674 901 711 842 q 547 960 638 960 q 405 921 471 960 q 263 802 338 883 l 150 0 l 87 0 l 229 1010 l 292 1010 l 271 859 l 284 859 q 419 980 346 938 q 571 1023 491 1023 q 728 951 677 1023 q 761 755 779 880 l 659 30 q 560 -184 640 -106 q 357 -263 480 -263 z "},"Œ":{"ha":884,"x_min":-5,"x_max":923,"o":"m 277 0 q 64 97 133 0 q 18 362 -5 193 l 58 643 q 177 912 82 814 q 417 1010 273 1010 l 923 1010 l 915 953 l 606 953 l 554 581 l 864 581 l 855 524 l 545 524 l 480 57 l 789 57 l 782 0 l 277 0 m 284 57 l 417 57 l 543 953 l 410 953 q 215 874 289 953 q 121 643 141 794 l 81 362 q 112 134 61 212 q 284 57 163 57 z "},"Ŧ":{"ha":884,"x_min":146,"x_max":860,"o":"m 146 423 l 154 480 l 722 480 l 715 423 l 146 423 m 340 0 l 473 953 l 158 953 l 165 1010 l 860 1010 l 852 953 l 537 953 l 403 0 l 340 0 z "},"Α":{"ha":884,"x_min":11,"x_max":732,"o":"m 11 0 m 595 372 l 497 910 l 249 372 l 595 372 m 662 0 l 605 316 l 222 316 l 77 0 l 11 0 l 491 1010 l 535 1010 l 732 0 l 662 0 z "},"Ά":{"ha":884,"x_min":11,"x_max":732,"o":"m 11 0 m 595 372 l 497 910 l 249 372 l 595 372 m 662 0 l 605 316 l 222 316 l 77 0 l 11 0 l 491 1010 l 535 1010 l 732 0 l 662 0 m 112 884 l 256 1136 l 357 1136 l 164 884 l 112 884 z "},"Β":{"ha":884,"x_min":87,"x_max":770,"o":"m 87 0 m 87 0 l 229 1010 l 523 1010 q 710 949 650 1010 q 754 773 770 888 l 746 716 q 692 600 736 648 q 583 540 648 552 l 582 529 q 701 463 660 521 q 730 314 742 404 l 722 258 q 623 66 705 133 q 407 0 542 0 l 87 0 m 229 557 l 460 557 q 622 598 569 557 q 688 734 674 639 l 693 769 q 666 910 707 867 q 515 953 625 953 l 284 953 l 229 557 m 158 57 l 414 57 q 587 104 530 57 q 659 259 644 150 l 664 299 q 636 453 679 407 q 477 500 593 500 l 221 500 l 158 57 z "},"Γ":{"ha":884,"x_min":87,"x_max":822,"o":"m 87 0 l 229 1010 l 822 1010 l 814 953 l 284 953 l 150 0 l 87 0 z "},"Δ":{"ha":884,"x_min":11,"x_max":739,"o":"m 11 0 l 19 57 l 485 1010 l 529 1010 l 739 57 l 731 0 l 11 0 m 674 57 l 497 919 l 78 57 l 674 57 z "},"Ε":{"ha":884,"x_min":87,"x_max":822,"o":"m 87 0 m 87 0 l 229 1010 l 822 1010 l 814 953 l 284 953 l 232 581 l 699 581 l 691 524 l 223 524 l 158 57 l 688 57 l 681 0 l 87 0 z "},"Έ":{"ha":884,"x_min":-64,"x_max":822,"o":"m 0 0 m 87 0 l 229 1010 l 822 1010 l 814 953 l 284 953 l 232 581 l 699 581 l 691 524 l 223 524 l 158 57 l 688 57 l 681 0 l 87 0 m -64 884 l 80 1136 l 181 1136 l -13 884 l -64 884 z "},"Ζ":{"ha":884,"x_min":62,"x_max":835,"o":"m 62 0 m 693 0 l 62 0 l 69 57 l 755 953 l 196 953 l 203 1010 l 835 1010 l 827 953 l 143 57 l 701 57 l 693 0 z "},"Η":{"ha":884,"x_min":87,"x_max":797,"o":"m 87 0 m 87 0 l 229 1010 l 292 1010 l 232 581 l 674 581 l 734 1010 l 797 1010 l 655 0 l 592 0 l 665 524 l 223 524 l 150 0 l 87 0 z "},"Ή":{"ha":884,"x_min":-77,"x_max":797,"o":"m 0 0 m 87 0 l 229 1010 l 292 1010 l 232 581 l 674 581 l 734 1010 l 797 1010 l 655 0 l 592 0 l 665 524 l 223 524 l 150 0 l 87 0 m -77 884 l 67 1136 l 168 1136 l -25 884 l -77 884 z "},"Θ":{"ha":884,"x_min":86,"x_max":798,"o":"m 370 -13 q 151 78 216 -13 q 111 350 86 169 l 154 655 q 271 931 179 838 q 516 1023 362 1023 q 734 931 669 1023 q 773 655 798 838 l 730 350 q 614 78 705 169 q 370 -13 524 -13 m 378 44 q 577 115 510 44 q 667 350 644 186 l 710 655 q 686 894 732 822 q 508 966 640 966 q 307 894 375 966 q 217 655 240 822 l 174 350 q 198 115 152 186 q 378 44 245 44 m 338 486 l 346 543 l 548 543 l 540 486 l 338 486 z "},"Ι":{"ha":884,"x_min":87,"x_max":797,"o":"m 87 0 m 87 0 l 95 57 l 347 57 l 473 953 l 221 953 l 229 1010 l 797 1010 l 789 953 l 537 953 l 410 57 l 663 57 l 655 0 l 87 0 z "},"Ί":{"ha":884,"x_min":-77,"x_max":797,"o":"m 0 0 m 87 0 l 95 57 l 347 57 l 473 953 l 221 953 l 229 1010 l 797 1010 l 789 953 l 537 953 l 410 57 l 663 57 l 655 0 l 87 0 m -77 884 l 67 1136 l 168 1136 l -25 884 l -77 884 z "},"Ϊ":{"ha":884,"x_min":87,"x_max":797,"o":"m 87 0 m 87 0 l 95 57 l 347 57 l 473 953 l 221 953 l 229 1010 l 797 1010 l 789 953 l 537 953 l 410 57 l 663 57 l 655 0 l 87 0 m 399 1174 q 359 1184 374 1174 q 348 1221 345 1193 l 350 1230 q 371 1268 354 1258 q 413 1279 388 1279 q 453 1268 438 1279 q 463 1230 467 1258 l 462 1221 q 441 1184 458 1193 q 399 1174 423 1174 m 664 1174 q 624 1184 639 1174 q 614 1221 610 1193 l 615 1230 q 636 1268 619 1258 q 678 1279 653 1279 q 718 1268 703 1279 q 729 1230 732 1258 l 727 1221 q 706 1184 723 1193 q 664 1174 688 1174 z "},"Κ":{"ha":884,"x_min":87,"x_max":871,"o":"m 87 0 m 221 505 l 150 0 l 87 0 l 229 1010 l 292 1010 l 230 562 l 336 562 l 788 1010 l 871 1010 l 394 540 l 726 0 l 646 0 l 340 505 l 221 505 z "},"Λ":{"ha":884,"x_min":11,"x_max":732,"o":"m 662 0 l 497 910 l 77 0 l 11 0 l 491 1010 l 535 1010 l 732 0 l 662 0 z "},"Μ":{"ha":884,"x_min":43,"x_max":841,"o":"m 43 0 m 374 253 l 234 907 l 106 0 l 43 0 l 184 1010 l 269 1010 l 417 318 l 759 1010 l 841 1010 l 699 0 l 636 0 l 763 903 l 439 253 l 374 253 z "},"Ν":{"ha":884,"x_min":87,"x_max":797,"o":"m 87 0 m 582 0 l 273 885 l 148 0 l 87 0 l 229 1010 l 294 1010 l 610 107 l 736 1010 l 797 1010 l 655 0 l 582 0 z "},"Ξ":{"ha":884,"x_min":62,"x_max":822,"o":"m 196 953 l 203 1010 l 822 1010 l 814 953 l 196 953 m 167 524 l 176 581 l 731 581 l 722 524 l 167 524 m 62 0 l 69 57 l 688 57 l 681 0 l 62 0 z "},"Ο":{"ha":884,"x_min":85,"x_max":799,"o":"m 85 0 m 370 -13 q 150 76 216 -13 q 111 350 85 164 l 154 655 q 271 933 181 843 q 516 1023 362 1023 q 734 933 669 1023 q 773 655 799 843 l 730 350 q 614 76 703 164 q 370 -13 524 -13 m 378 44 q 576 116 508 44 q 667 350 644 188 l 710 655 q 685 893 732 821 q 508 966 638 966 q 309 893 378 966 q 217 655 240 821 l 174 350 q 199 116 152 188 q 378 44 247 44 z "},"Ό":{"ha":884,"x_min":30,"x_max":806,"o":"m 30 0 m 376 -13 q 157 76 222 -13 q 117 350 91 164 l 160 655 q 278 933 187 843 q 523 1023 369 1023 q 741 933 676 1023 q 779 655 806 843 l 736 350 q 620 76 710 164 q 376 -13 530 -13 m 384 44 q 582 116 514 44 q 673 350 650 188 l 716 655 q 691 893 739 821 q 514 966 644 966 q 315 893 384 966 q 223 655 246 821 l 181 350 q 206 116 158 188 q 384 44 254 44 m 30 884 l 174 1136 l 275 1136 l 82 884 l 30 884 z "},"Π":{"ha":884,"x_min":87,"x_max":797,"o":"m 87 0 l 229 1010 l 797 1010 l 655 0 l 592 0 l 726 953 l 284 953 l 150 0 l 87 0 z "},"Ρ":{"ha":884,"x_min":87,"x_max":816,"o":"m 87 0 m 87 0 l 229 1010 l 552 1010 q 753 942 689 1010 q 798 744 816 874 l 780 620 q 680 422 763 490 q 458 354 597 354 l 199 354 l 150 0 l 87 0 m 208 410 l 467 410 q 643 460 585 410 q 717 622 702 509 l 734 739 q 705 903 750 852 q 543 953 660 953 l 284 953 l 208 410 z "},"Σ":{"ha":884,"x_min":49,"x_max":822,"o":"m 681 0 l 49 0 l 57 57 l 552 520 l 183 953 l 191 1010 l 822 1010 l 814 953 l 265 953 l 606 552 l 597 489 l 139 57 l 688 57 l 681 0 z "},"Τ":{"ha":884,"x_min":158,"x_max":860,"o":"m 158 0 m 340 0 l 473 953 l 158 953 l 165 1010 l 860 1010 l 852 953 l 537 953 l 403 0 l 340 0 z "},"Υ":{"ha":884,"x_min":120,"x_max":904,"o":"m 120 0 m 403 0 l 340 0 l 393 379 l 120 1010 l 192 1010 l 434 441 l 835 1010 l 904 1010 l 456 379 l 403 0 z "},"Ύ":{"ha":884,"x_min":-115,"x_max":904,"o":"m 0 0 m 403 0 l 340 0 l 393 379 l 120 1010 l 192 1010 l 434 441 l 835 1010 l 904 1010 l 456 379 l 403 0 m -115 884 l 29 1136 l 130 1136 l -63 884 l -115 884 z "},"Ϋ":{"ha":884,"x_min":120,"x_max":904,"o":"m 120 0 m 403 0 l 340 0 l 393 379 l 120 1010 l 192 1010 l 434 441 l 835 1010 l 904 1010 l 456 379 l 403 0 m 399 1174 q 359 1184 374 1174 q 348 1221 345 1193 l 350 1230 q 371 1268 354 1258 q 413 1279 388 1279 q 453 1268 438 1279 q 463 1230 467 1258 l 462 1221 q 441 1184 458 1193 q 399 1174 423 1174 m 664 1174 q 624 1184 639 1174 q 614 1221 610 1193 l 615 1230 q 636 1268 619 1258 q 678 1279 653 1279 q 718 1268 703 1279 q 729 1230 732 1258 l 727 1221 q 706 1184 723 1193 q 664 1174 688 1174 z "},"Φ":{"ha":884,"x_min":62,"x_max":822,"o":"m 62 0 m 492 114 l 419 114 l 399 -25 l 336 -25 l 356 114 l 284 114 q 114 194 167 114 q 83 426 62 274 l 106 580 q 202 815 128 734 q 394 896 277 896 l 466 896 l 485 1035 l 548 1035 l 529 896 l 602 896 q 771 815 720 896 q 801 580 822 734 l 778 426 q 683 194 756 274 q 492 114 610 114 m 593 840 l 520 840 l 427 170 l 500 170 q 645 231 595 170 q 715 426 696 292 l 737 580 q 722 778 756 716 q 593 840 688 840 m 292 170 l 364 170 l 457 840 l 385 840 q 239 778 290 840 q 169 580 188 716 l 146 426 q 162 231 128 292 q 292 170 197 170 z "},"Χ":{"ha":884,"x_min":-10,"x_max":896,"o":"m 0 0 m 681 0 l 441 468 l 61 0 l -10 0 l 415 519 l 163 1010 l 234 1010 l 463 563 l 826 1010 l 896 1010 l 489 513 l 751 0 l 681 0 z "},"Ψ":{"ha":884,"x_min":119,"x_max":828,"o":"m 403 0 l 340 0 l 378 268 q 175 361 231 277 q 136 577 119 446 l 197 1010 l 260 1010 l 199 577 q 227 402 183 461 q 386 336 270 343 l 481 1010 l 544 1010 l 449 336 q 628 402 568 343 q 705 577 688 461 l 765 1010 l 828 1010 l 768 577 q 670 361 750 446 q 441 268 590 277 l 403 0 z "},"Ω":{"ha":884,"x_min":49,"x_max":811,"o":"m 277 0 l 49 0 l 57 57 l 221 57 l 247 240 q 138 342 167 265 q 122 519 109 418 l 141 655 q 259 929 167 835 q 515 1023 351 1023 q 745 929 679 1023 q 785 655 811 835 l 766 519 q 702 342 753 418 q 563 240 652 265 l 537 57 l 701 57 l 693 0 l 466 0 l 505 278 q 646 362 602 302 q 703 519 689 422 l 722 655 q 696 893 745 821 q 508 966 646 966 q 298 893 369 966 q 205 655 227 821 l 186 519 q 199 362 172 422 q 316 278 226 302 l 277 0 z "},"Ώ":{"ha":884,"x_min":-1,"x_max":811,"o":"m 0 0 m 277 0 l 49 0 l 57 57 l 221 57 l 247 240 q 138 342 167 265 q 122 519 109 418 l 141 655 q 259 929 167 835 q 515 1023 351 1023 q 745 929 679 1023 q 785 655 811 835 l 766 519 q 702 342 753 418 q 563 240 652 265 l 537 57 l 701 57 l 693 0 l 466 0 l 505 278 q 646 362 602 302 q 703 519 689 422 l 722 655 q 696 893 745 821 q 508 966 646 966 q 298 893 369 966 q 205 655 227 821 l 186 519 q 199 362 172 422 q 316 278 226 302 l 277 0 m -1 884 l 143 1136 l 244 1136 l 51 884 l -1 884 z "},"Ω":{"ha":884,"x_min":49,"x_max":811,"o":"m 49 0 m 277 0 l 49 0 l 57 57 l 221 57 l 247 240 q 138 342 167 265 q 122 519 109 418 l 141 655 q 259 929 167 835 q 515 1023 351 1023 q 745 929 679 1023 q 785 655 811 835 l 766 519 q 702 342 753 418 q 563 240 652 265 l 537 57 l 701 57 l 693 0 l 466 0 l 505 278 q 646 362 602 302 q 703 519 689 422 l 722 655 q 696 893 745 821 q 508 966 646 966 q 298 893 369 966 q 205 655 227 821 l 186 519 q 199 362 172 422 q 316 278 226 302 l 277 0 z "},"Ђ":{"ha":884,"x_min":133,"x_max":777,"o":"m 188 0 l 322 953 l 133 953 l 140 1010 l 708 1010 l 701 953 l 385 953 l 340 631 l 510 631 q 713 569 649 631 q 760 390 777 508 l 744 266 q 649 68 725 136 q 447 0 573 0 l 455 54 q 612 104 559 54 q 681 269 664 154 l 697 388 q 666 533 712 490 q 503 577 620 577 l 332 577 l 251 0 l 188 0 z "},"Є":{"ha":884,"x_min":86,"x_max":814,"o":"m 744 293 q 624 66 713 144 q 383 -13 534 -13 q 155 78 225 -13 q 111 350 86 169 l 154 655 q 275 931 179 840 q 529 1023 371 1023 q 747 943 679 1023 q 802 712 814 864 l 739 706 q 695 905 745 845 q 520 966 645 966 q 311 893 383 966 q 217 655 240 821 l 207 581 l 494 581 l 485 524 l 198 524 l 174 350 q 202 116 152 187 q 390 44 253 44 q 583 104 516 44 q 681 299 649 164 l 744 293 z "},"Ѕ":{"ha":884,"x_min":68,"x_max":795,"o":"m 68 0 m 391 -8 q 198 35 274 -8 q 68 158 122 77 l 117 198 q 235 86 170 122 q 400 49 299 49 q 583 106 509 49 q 672 256 658 163 q 634 404 684 354 q 446 490 583 455 q 234 591 293 529 q 189 763 174 653 q 294 944 205 872 q 509 1015 384 1015 q 679 973 612 1015 q 795 856 745 932 l 747 814 q 645 922 699 885 q 501 958 590 958 q 331 907 400 958 q 251 771 263 855 q 287 631 237 678 q 473 548 337 583 q 687 443 626 508 q 731 256 747 379 q 621 68 715 143 q 391 -8 527 -8 z "},"І":{"ha":884,"x_min":87,"x_max":797,"o":"m 87 0 m 87 0 l 95 57 l 347 57 l 473 953 l 221 953 l 229 1010 l 797 1010 l 789 953 l 537 953 l 410 57 l 663 57 l 655 0 l 87 0 z "},"Ї":{"ha":884,"x_min":87,"x_max":797,"o":"m 87 0 m 87 0 l 95 57 l 347 57 l 473 953 l 221 953 l 229 1010 l 797 1010 l 789 953 l 537 953 l 410 57 l 663 57 l 655 0 l 87 0 m 399 1174 q 359 1184 374 1174 q 348 1221 345 1193 l 350 1230 q 371 1268 354 1258 q 413 1279 388 1279 q 453 1268 438 1279 q 463 1230 467 1258 l 462 1221 q 441 1184 458 1193 q 399 1174 423 1174 m 664 1174 q 624 1184 639 1174 q 614 1221 610 1193 l 615 1230 q 636 1268 619 1258 q 678 1279 653 1279 q 718 1268 703 1279 q 729 1230 732 1258 l 727 1221 q 706 1184 723 1193 q 664 1174 688 1174 z "},"Ј":{"ha":884,"x_min":63,"x_max":797,"o":"m 63 0 m 343 -13 q 128 62 192 -13 q 78 297 63 136 l 143 304 q 178 102 133 160 q 347 44 223 44 q 549 111 481 44 q 638 327 617 178 l 726 953 l 442 953 l 449 1010 l 797 1010 l 702 328 q 588 72 677 157 q 343 -13 499 -13 z "},"Љ":{"ha":884,"x_min":-72,"x_max":784,"o":"m 153 207 q 92 42 135 92 q -3 -8 48 -8 q -37 -4 -20 -9 q -72 5 -54 0 l -47 69 q -25 62 -37 66 q -3 59 -14 59 q 51 88 25 58 q 92 217 77 119 l 218 1010 l 544 1010 l 495 657 l 590 657 q 740 589 696 657 q 765 390 784 521 l 749 266 q 667 68 730 135 q 499 0 604 0 l 340 0 l 473 953 l 270 953 l 153 207 m 410 57 l 505 57 q 621 104 573 57 q 686 271 669 150 l 702 388 q 685 554 720 509 q 582 600 650 600 l 487 600 l 410 57 z "},"Њ":{"ha":884,"x_min":32,"x_max":784,"o":"m 410 57 l 505 57 q 621 104 573 57 q 686 271 669 150 l 702 388 q 685 554 720 509 q 582 600 650 600 l 487 600 l 410 57 m 172 549 l 95 0 l 32 0 l 173 1010 l 236 1010 l 179 606 l 424 606 l 481 1010 l 544 1010 l 495 657 l 590 657 q 740 589 696 657 q 765 390 784 521 l 749 266 q 667 68 730 135 q 499 0 605 0 l 340 0 l 417 549 l 172 549 z "},"Ћ":{"ha":884,"x_min":120,"x_max":774,"o":"m 239 0 l 176 0 l 309 953 l 120 953 l 128 1010 l 696 1010 l 688 953 l 372 953 l 326 619 l 534 619 q 718 551 662 619 q 755 352 774 484 l 706 0 l 643 0 l 692 350 q 670 515 708 467 q 527 562 633 562 l 318 562 l 239 0 z "},"Џ":{"ha":884,"x_min":87,"x_max":797,"o":"m 313 -189 l 340 0 l 87 0 l 229 1010 l 292 1010 l 158 57 l 600 57 l 734 1010 l 797 1010 l 655 0 l 403 0 l 376 -189 l 313 -189 z "},"А":{"ha":884,"x_min":11,"x_max":732,"o":"m 11 0 m 595 372 l 497 910 l 249 372 l 595 372 m 662 0 l 605 316 l 222 316 l 77 0 l 11 0 l 491 1010 l 535 1010 l 732 0 l 662 0 z "},"Б":{"ha":884,"x_min":87,"x_max":765,"o":"m 87 0 l 229 1010 l 765 1010 l 758 953 l 284 953 l 235 606 l 486 606 q 677 540 614 606 q 723 357 740 475 l 711 266 q 612 71 693 141 q 403 0 530 0 l 87 0 m 158 57 l 396 57 q 571 110 509 57 q 648 273 633 163 l 658 338 q 626 497 673 446 q 466 549 578 549 l 227 549 l 158 57 z "},"В":{"ha":884,"x_min":87,"x_max":770,"o":"m 87 0 m 87 0 l 229 1010 l 523 1010 q 710 949 650 1010 q 754 773 770 888 l 746 716 q 692 600 736 648 q 583 540 648 552 l 582 529 q 701 463 660 521 q 730 314 742 404 l 722 258 q 623 66 705 133 q 407 0 542 0 l 87 0 m 229 557 l 460 557 q 622 598 569 557 q 688 734 674 639 l 693 769 q 666 910 707 867 q 515 953 625 953 l 284 953 l 229 557 m 158 57 l 414 57 q 587 104 530 57 q 659 259 644 150 l 664 299 q 636 453 679 407 q 477 500 593 500 l 221 500 l 158 57 z "},"Г":{"ha":884,"x_min":87,"x_max":822,"o":"m 87 0 m 87 0 l 229 1010 l 822 1010 l 814 953 l 284 953 l 150 0 l 87 0 z "},"Ѓ":{"ha":884,"x_min":87,"x_max":822,"o":"m 87 0 m 87 0 l 229 1010 l 822 1010 l 814 953 l 284 953 l 150 0 l 87 0 m 497 1136 l 717 1389 l 818 1389 l 549 1136 l 497 1136 z "},"Д":{"ha":884,"x_min":-53,"x_max":774,"o":"m 126 68 l 124 57 l 577 57 l 703 953 l 333 953 l 250 383 q 202 179 230 251 q 126 68 174 107 m 37 0 l 10 -189 l -53 -189 l -19 57 l 51 57 q 138 173 105 92 q 192 390 172 254 l 283 1010 l 774 1010 l 640 57 l 766 57 l 732 -189 l 669 -189 l 696 0 l 37 0 z "},"Е":{"ha":884,"x_min":87,"x_max":822,"o":"m 87 0 m 87 0 l 229 1010 l 822 1010 l 814 953 l 284 953 l 232 581 l 699 581 l 691 524 l 223 524 l 158 57 l 688 57 l 681 0 l 87 0 z "},"Ѐ":{"ha":884,"x_min":87,"x_max":822,"o":"m 87 0 m 87 0 l 229 1010 l 822 1010 l 814 953 l 284 953 l 232 581 l 699 581 l 691 524 l 223 524 l 158 57 l 688 57 l 681 0 l 87 0 m 596 1136 l 398 1389 l 499 1389 l 648 1136 l 596 1136 z "},"Ё":{"ha":884,"x_min":87,"x_max":822,"o":"m 87 0 m 87 0 l 229 1010 l 822 1010 l 814 953 l 284 953 l 232 581 l 699 581 l 691 524 l 223 524 l 158 57 l 688 57 l 681 0 l 87 0 m 437 1174 q 397 1184 412 1174 q 386 1221 383 1193 l 388 1230 q 408 1268 391 1258 q 451 1279 426 1279 q 491 1268 476 1279 q 501 1230 505 1258 l 500 1221 q 479 1184 496 1193 q 437 1174 461 1174 m 702 1174 q 662 1184 677 1174 q 652 1221 648 1193 l 653 1230 q 674 1268 657 1258 q 716 1279 691 1279 q 756 1268 741 1279 q 766 1230 770 1258 l 765 1221 q 744 1184 761 1193 q 702 1174 726 1174 z "},"Ж":{"ha":884,"x_min":-34,"x_max":923,"o":"m 318 513 l 29 0 l -34 0 l 269 538 l 104 1010 l 165 1010 l 321 567 l 422 567 l 484 1010 l 543 1010 l 481 567 l 577 567 l 861 1010 l 923 1010 l 622 542 l 778 0 l 715 0 l 569 513 l 473 513 l 402 0 l 342 0 l 414 513 l 318 513 z "},"З":{"ha":884,"x_min":74,"x_max":782,"o":"m 370 -13 q 143 51 212 -13 q 83 245 74 114 l 148 253 q 196 90 144 139 q 378 42 249 42 q 586 95 519 42 q 670 274 654 149 l 676 308 q 648 456 691 413 q 490 500 606 500 l 347 500 l 355 557 l 497 557 q 637 595 592 557 q 694 727 682 634 l 699 768 q 669 922 716 876 q 495 968 621 968 q 328 924 385 968 q 246 777 271 880 l 184 784 q 287 964 211 905 q 503 1023 364 1023 q 717 960 653 1023 q 763 768 782 898 l 758 727 q 703 592 745 640 q 598 534 662 544 l 597 523 q 712 458 673 516 q 739 308 751 399 l 734 274 q 624 57 713 128 q 370 -13 535 -13 z "},"И":{"ha":884,"x_min":87,"x_max":797,"o":"m 592 0 l 716 880 l 160 0 l 87 0 l 229 1010 l 292 1010 l 165 111 l 737 1010 l 797 1010 l 655 0 l 592 0 z "},"Ѝ":{"ha":884,"x_min":87,"x_max":797,"o":"m 87 0 m 592 0 l 716 880 l 160 0 l 87 0 l 229 1010 l 292 1010 l 165 111 l 737 1010 l 797 1010 l 655 0 l 592 0 m 545 1136 l 347 1389 l 448 1389 l 597 1136 l 545 1136 z "},"Й":{"ha":884,"x_min":87,"x_max":828,"o":"m 87 0 m 592 0 l 716 880 l 160 0 l 87 0 l 229 1010 l 292 1010 l 165 111 l 737 1010 l 797 1010 l 655 0 l 592 0 m 537 1128 q 365 1186 431 1128 q 318 1386 299 1244 l 383 1393 q 408 1231 369 1279 q 545 1183 447 1183 q 696 1231 644 1183 q 766 1393 747 1279 l 828 1386 q 725 1186 807 1244 q 537 1128 643 1128 z "},"К":{"ha":884,"x_min":87,"x_max":871,"o":"m 87 0 m 221 505 l 150 0 l 87 0 l 229 1010 l 292 1010 l 230 562 l 336 562 l 788 1010 l 871 1010 l 394 540 l 726 0 l 646 0 l 340 505 l 221 505 z "},"Ќ":{"ha":884,"x_min":87,"x_max":871,"o":"m 87 0 m 221 505 l 150 0 l 87 0 l 229 1010 l 292 1010 l 230 562 l 336 562 l 788 1010 l 871 1010 l 394 540 l 726 0 l 646 0 l 340 505 l 221 505 m 527 1136 l 746 1389 l 847 1389 l 578 1136 l 527 1136 z "},"Л":{"ha":884,"x_min":-56,"x_max":797,"o":"m 592 0 l 726 953 l 359 953 l 263 297 q 177 61 239 135 q 28 -13 116 -13 q -17 -10 4 -13 q -56 0 -38 -8 l -34 54 q -5 47 -20 49 q 24 44 10 44 q 143 107 100 44 q 207 313 186 170 l 308 1010 l 797 1010 l 655 0 l 592 0 z "},"М":{"ha":884,"x_min":43,"x_max":841,"o":"m 43 0 m 374 253 l 234 907 l 106 0 l 43 0 l 184 1010 l 269 1010 l 417 318 l 759 1010 l 841 1010 l 699 0 l 636 0 l 763 903 l 439 253 l 374 253 z "},"Н":{"ha":884,"x_min":87,"x_max":797,"o":"m 87 0 m 87 0 l 229 1010 l 292 1010 l 232 581 l 674 581 l 734 1010 l 797 1010 l 655 0 l 592 0 l 665 524 l 223 524 l 150 0 l 87 0 z "},"О":{"ha":884,"x_min":85,"x_max":799,"o":"m 85 0 m 370 -13 q 150 76 216 -13 q 111 350 85 164 l 154 655 q 271 933 181 843 q 516 1023 362 1023 q 734 933 669 1023 q 773 655 799 843 l 730 350 q 614 76 703 164 q 370 -13 524 -13 m 378 44 q 576 116 508 44 q 667 350 644 188 l 710 655 q 685 893 732 821 q 508 966 638 966 q 309 893 378 966 q 217 655 240 821 l 174 350 q 199 116 152 188 q 378 44 247 44 z "},"П":{"ha":884,"x_min":87,"x_max":797,"o":"m 87 0 m 87 0 l 229 1010 l 797 1010 l 655 0 l 592 0 l 726 953 l 284 953 l 150 0 l 87 0 z "},"Р":{"ha":884,"x_min":87,"x_max":816,"o":"m 87 0 m 87 0 l 229 1010 l 552 1010 q 753 942 689 1010 q 798 744 816 874 l 780 620 q 680 422 763 490 q 458 354 597 354 l 199 354 l 150 0 l 87 0 m 208 410 l 467 410 q 643 460 585 410 q 717 622 702 509 l 734 739 q 705 903 750 852 q 543 953 660 953 l 284 953 l 208 410 z "},"С":{"ha":884,"x_min":86,"x_max":816,"o":"m 86 0 m 383 -13 q 155 78 225 -13 q 110 337 86 168 l 155 668 q 276 932 181 841 q 529 1023 371 1023 q 746 948 676 1023 q 802 712 816 872 l 739 706 q 699 908 746 851 q 520 966 652 966 q 311 893 383 966 q 217 655 240 821 l 174 350 q 202 116 152 187 q 390 44 253 44 q 593 104 525 44 q 681 299 660 164 l 744 293 q 629 66 722 144 q 383 -13 537 -13 z "},"Т":{"ha":884,"x_min":158,"x_max":860,"o":"m 158 0 m 340 0 l 473 953 l 158 953 l 165 1010 l 860 1010 l 852 953 l 537 953 l 403 0 l 340 0 z "},"У":{"ha":884,"x_min":109,"x_max":865,"o":"m 188 -10 q 148 -8 168 -10 q 109 0 129 -5 l 128 57 q 160 51 146 52 q 193 49 174 49 q 299 83 254 49 q 388 208 345 117 l 396 227 l 374 227 l 159 1010 l 230 1010 l 422 282 l 795 1010 l 865 1010 l 433 191 q 318 33 372 76 q 188 -10 264 -10 z "},"Ў":{"ha":884,"x_min":109,"x_max":865,"o":"m 109 0 m 188 -10 q 148 -8 168 -10 q 109 0 129 -5 l 128 57 q 160 51 146 52 q 193 49 174 49 q 299 83 254 49 q 388 208 345 117 l 396 227 l 374 227 l 159 1010 l 230 1010 l 422 282 l 795 1010 l 865 1010 l 433 191 q 318 33 372 76 q 188 -10 264 -10 m 524 1128 q 352 1186 418 1128 q 306 1386 287 1244 l 370 1393 q 395 1231 356 1279 q 533 1183 434 1183 q 683 1231 631 1183 q 754 1393 735 1279 l 816 1386 q 712 1186 794 1244 q 524 1128 630 1128 z "},"Ф":{"ha":884,"x_min":62,"x_max":822,"o":"m 492 114 l 419 114 l 399 -25 l 336 -25 l 356 114 l 284 114 q 114 194 167 114 q 83 426 62 274 l 106 580 q 202 815 128 734 q 394 896 277 896 l 466 896 l 485 1035 l 548 1035 l 529 896 l 602 896 q 771 815 720 896 q 801 580 822 734 l 778 426 q 683 194 756 274 q 492 114 610 114 m 593 840 l 520 840 l 427 170 l 500 170 q 645 231 595 170 q 715 426 696 292 l 737 580 q 722 778 756 716 q 593 840 688 840 m 292 170 l 364 170 l 457 840 l 385 840 q 239 778 290 840 q 169 580 188 716 l 146 426 q 162 231 128 292 q 292 170 197 170 z "},"Х":{"ha":884,"x_min":-10,"x_max":896,"o":"m 0 0 m 681 0 l 441 468 l 61 0 l -10 0 l 415 519 l 163 1010 l 234 1010 l 463 563 l 826 1010 l 896 1010 l 489 513 l 751 0 l 681 0 z "},"Ц":{"ha":884,"x_min":87,"x_max":734,"o":"m 629 -189 l 655 0 l 87 0 l 229 1010 l 292 1010 l 158 57 l 537 57 l 670 1010 l 734 1010 l 600 57 l 726 57 l 692 -189 l 629 -189 z "},"Ч":{"ha":884,"x_min":154,"x_max":797,"o":"m 797 1010 l 655 0 l 592 0 l 641 354 l 420 354 q 212 417 270 354 q 174 620 154 480 l 229 1010 l 292 1010 l 237 622 q 266 458 221 508 q 428 408 311 408 l 649 408 l 734 1010 l 797 1010 z "},"Ш":{"ha":884,"x_min":24,"x_max":860,"o":"m 24 0 l 165 1010 l 229 1010 l 95 57 l 347 57 l 481 1010 l 544 1010 l 410 57 l 663 57 l 797 1010 l 860 1010 l 718 0 l 24 0 z "},"Щ":{"ha":884,"x_min":24,"x_max":861,"o":"m 744 -189 l 684 -189 l 711 0 l 24 0 l 165 1010 l 229 1010 l 95 57 l 347 57 l 481 1010 l 544 1010 l 410 57 l 664 57 l 798 1010 l 861 1010 l 727 57 l 778 57 l 744 -189 z "},"Ъ":{"ha":884,"x_min":95,"x_max":792,"o":"m 473 0 l 213 0 l 347 953 l 95 953 l 102 1010 l 418 1010 l 369 657 l 564 657 q 738 590 684 657 q 773 390 792 524 l 756 266 q 665 66 737 133 q 473 0 592 0 m 284 57 l 480 57 q 628 107 578 57 q 693 271 677 157 l 710 388 q 691 552 726 503 q 557 602 655 602 l 361 602 l 284 57 z "},"Ы":{"ha":884,"x_min":56,"x_max":828,"o":"m 56 0 l 197 1010 l 260 1010 l 211 657 l 331 657 q 485 588 444 657 q 508 390 527 520 l 491 266 q 413 68 472 136 q 240 0 354 0 l 56 0 m 624 0 l 765 1010 l 828 1010 l 687 0 l 624 0 m 126 57 l 246 57 q 369 107 327 57 q 428 271 412 157 l 444 388 q 432 552 461 503 q 323 602 404 602 l 203 602 l 126 57 z "},"Ь":{"ha":884,"x_min":87,"x_max":766,"o":"m 87 0 l 229 1010 l 292 1010 l 242 657 l 501 657 q 703 588 640 657 q 747 390 766 520 l 731 266 q 630 68 712 136 q 410 0 548 0 l 87 0 m 158 57 l 417 57 q 593 107 534 57 q 668 271 652 157 l 684 388 q 656 552 701 503 q 494 602 611 602 l 235 602 l 158 57 z "},"Э":{"ha":884,"x_min":91,"x_max":823,"o":"m 383 -13 q 160 66 229 -13 q 104 295 91 145 l 168 303 q 211 104 160 164 q 390 44 263 44 q 599 116 529 44 q 692 350 669 187 l 716 524 l 372 524 l 381 581 l 725 581 l 735 655 q 708 893 758 821 q 520 966 659 966 q 325 905 394 966 q 223 702 256 843 l 162 710 q 283 943 192 862 q 527 1023 374 1023 q 756 929 688 1023 q 798 655 823 835 l 755 350 q 637 80 730 173 q 383 -13 544 -13 z "},"Ю":{"ha":884,"x_min":30,"x_max":835,"o":"m 484 -13 q 333 64 375 -13 q 312 299 290 140 l 343 524 l 167 524 l 93 0 l 30 0 l 172 1010 l 235 1010 l 176 581 l 352 581 l 370 706 q 457 945 393 867 q 630 1023 521 1023 q 789 945 744 1023 q 812 706 835 867 l 754 299 q 665 64 732 140 q 484 -13 598 -13 m 491 44 q 625 104 578 44 q 691 299 672 164 l 749 706 q 738 905 768 843 q 621 966 708 966 q 497 905 542 966 q 433 706 452 843 l 375 299 q 384 104 356 164 q 491 44 412 44 z "},"Я":{"ha":884,"x_min":5,"x_max":795,"o":"m 370 453 l 654 453 l 725 953 l 441 953 q 265 903 323 953 q 189 739 206 852 l 179 665 q 208 503 163 552 q 370 453 253 453 m 646 396 l 390 396 l 76 0 l 5 0 l 321 398 q 150 474 201 407 q 116 663 98 542 l 128 744 q 225 942 145 874 q 447 1010 304 1010 l 795 1010 l 654 0 l 591 0 l 646 396 z "},"Ґ":{"ha":884,"x_min":87,"x_max":850,"o":"m 87 0 l 229 1010 l 759 1010 l 787 1199 l 850 1199 l 814 953 l 284 953 l 150 0 l 87 0 z "},"a":{"ha":884,"x_min":63,"x_max":751,"o":"m 298 39 q 432 68 370 39 q 552 163 494 97 l 578 347 l 307 347 q 193 318 239 347 q 135 211 146 288 q 162 84 124 129 q 298 39 201 39 m 287 -13 q 119 45 176 -13 q 78 203 63 102 q 153 348 91 295 q 314 400 215 400 l 586 400 l 605 539 q 574 662 615 611 q 437 713 534 713 q 294 682 340 713 q 208 568 247 652 l 154 585 q 265 727 198 683 q 446 770 332 770 q 623 710 563 770 q 668 540 683 649 l 620 202 q 634 71 606 102 q 751 56 662 40 l 744 -4 q 612 14 654 -16 q 571 120 569 44 l 558 120 q 441 23 511 59 q 287 -13 370 -13 z "},"à":{"ha":884,"x_min":63,"x_max":751,"o":"m 63 0 m 298 39 q 432 68 370 39 q 552 163 494 97 l 578 347 l 307 347 q 193 318 239 347 q 135 211 146 288 q 162 84 124 129 q 298 39 201 39 m 287 -13 q 119 45 176 -13 q 78 203 63 102 q 153 348 91 295 q 314 400 215 400 l 586 400 l 605 539 q 574 662 615 611 q 437 713 534 713 q 294 682 340 713 q 208 568 247 652 l 154 585 q 265 727 198 683 q 446 770 332 770 q 623 710 563 770 q 668 540 683 649 l 620 202 q 634 71 606 102 q 751 56 662 40 l 744 -4 q 612 14 654 -16 q 571 120 569 44 l 558 120 q 441 23 511 59 q 287 -13 370 -13 m 503 884 l 304 1136 l 405 1136 l 554 884 l 503 884 z "},"á":{"ha":884,"x_min":63,"x_max":751,"o":"m 63 0 m 298 39 q 432 68 370 39 q 552 163 494 97 l 578 347 l 307 347 q 193 318 239 347 q 135 211 146 288 q 162 84 124 129 q 298 39 201 39 m 287 -13 q 119 45 176 -13 q 78 203 63 102 q 153 348 91 295 q 314 400 215 400 l 586 400 l 605 539 q 574 662 615 611 q 437 713 534 713 q 294 682 340 713 q 208 568 247 652 l 154 585 q 265 727 198 683 q 446 770 332 770 q 623 710 563 770 q 668 540 683 649 l 620 202 q 634 71 606 102 q 751 56 662 40 l 744 -4 q 612 14 654 -16 q 571 120 569 44 l 558 120 q 441 23 511 59 q 287 -13 370 -13 m 385 884 l 605 1136 l 706 1136 l 437 884 l 385 884 z "},"â":{"ha":884,"x_min":63,"x_max":751,"o":"m 63 0 m 298 39 q 432 68 370 39 q 552 163 494 97 l 578 347 l 307 347 q 193 318 239 347 q 135 211 146 288 q 162 84 124 129 q 298 39 201 39 m 287 -13 q 119 45 176 -13 q 78 203 63 102 q 153 348 91 295 q 314 400 215 400 l 586 400 l 605 539 q 574 662 615 611 q 437 713 534 713 q 294 682 340 713 q 208 568 247 652 l 154 585 q 265 727 198 683 q 446 770 332 770 q 623 710 563 770 q 668 540 683 649 l 620 202 q 634 71 606 102 q 751 56 662 40 l 744 -4 q 612 14 654 -16 q 571 120 569 44 l 558 120 q 441 23 511 59 q 287 -13 370 -13 m 273 912 l 251 946 l 500 1158 l 540 1158 l 730 946 l 698 912 l 511 1098 l 273 912 z "},"ã":{"ha":884,"x_min":63,"x_max":751,"o":"m 63 0 m 298 39 q 432 68 370 39 q 552 163 494 97 l 578 347 l 307 347 q 193 318 239 347 q 135 211 146 288 q 162 84 124 129 q 298 39 201 39 m 287 -13 q 119 45 176 -13 q 78 203 63 102 q 153 348 91 295 q 314 400 215 400 l 586 400 l 605 539 q 574 662 615 611 q 437 713 534 713 q 294 682 340 713 q 208 568 247 652 l 154 585 q 265 727 198 683 q 446 770 332 770 q 623 710 563 770 q 668 540 683 649 l 620 202 q 634 71 606 102 q 751 56 662 40 l 744 -4 q 612 14 654 -16 q 571 120 569 44 l 558 120 q 441 23 511 59 q 287 -13 370 -13 m 582 896 q 514 921 540 896 q 461 1010 487 946 q 427 1080 443 1061 q 390 1098 412 1098 q 328 1056 351 1098 q 295 923 306 1014 l 293 909 l 240 909 l 242 928 q 297 1093 259 1038 q 398 1149 336 1149 q 466 1126 441 1149 q 514 1042 491 1104 q 552 967 537 987 q 588 947 568 947 q 648 989 625 947 q 684 1122 672 1032 l 686 1136 l 739 1136 l 736 1117 q 682 952 721 1008 q 582 896 644 896 z "},"ä":{"ha":884,"x_min":63,"x_max":751,"o":"m 63 0 m 298 39 q 432 68 370 39 q 552 163 494 97 l 578 347 l 307 347 q 193 318 239 347 q 135 211 146 288 q 162 84 124 129 q 298 39 201 39 m 287 -13 q 119 45 176 -13 q 78 203 63 102 q 153 348 91 295 q 314 400 215 400 l 586 400 l 605 539 q 574 662 615 611 q 437 713 534 713 q 294 682 340 713 q 208 568 247 652 l 154 585 q 265 727 198 683 q 446 770 332 770 q 623 710 563 770 q 668 540 683 649 l 620 202 q 634 71 606 102 q 751 56 662 40 l 744 -4 q 612 14 654 -16 q 571 120 569 44 l 558 120 q 441 23 511 59 q 287 -13 370 -13 m 343 922 q 304 931 318 922 q 293 968 289 941 l 294 977 q 315 1016 298 1005 q 357 1027 332 1027 q 397 1016 383 1027 q 408 977 412 1005 l 407 968 q 385 931 403 941 q 343 922 367 922 m 609 922 q 569 931 583 922 q 558 968 554 941 l 559 977 q 580 1016 563 1005 q 622 1027 597 1027 q 662 1016 648 1027 q 673 977 677 1005 l 672 968 q 650 931 668 941 q 609 922 633 922 z "},"å":{"ha":884,"x_min":63,"x_max":751,"o":"m 63 0 m 298 39 q 432 68 370 39 q 552 163 494 97 l 578 347 l 307 347 q 193 318 239 347 q 135 211 146 288 q 162 84 124 129 q 298 39 201 39 m 287 -13 q 119 45 176 -13 q 78 203 63 102 q 153 348 91 295 q 314 400 215 400 l 586 400 l 605 539 q 574 662 615 611 q 437 713 534 713 q 294 682 340 713 q 208 568 247 652 l 154 585 q 265 727 198 683 q 446 770 332 770 q 623 710 563 770 q 668 540 683 649 l 620 202 q 634 71 606 102 q 751 56 662 40 l 744 -4 q 612 14 654 -16 q 571 120 569 44 l 558 120 q 441 23 511 59 q 287 -13 370 -13 m 467 865 q 343 912 381 865 q 317 1048 304 958 l 322 1088 q 387 1227 335 1179 q 525 1275 439 1275 q 650 1227 611 1275 q 676 1088 688 1179 l 670 1048 q 605 912 658 958 q 467 865 553 865 m 475 917 q 568 948 537 917 q 610 1048 600 980 l 615 1088 q 602 1191 625 1159 q 518 1223 580 1223 q 424 1191 456 1223 q 383 1088 393 1159 l 378 1048 q 390 948 367 980 q 475 917 413 917 z "},"ā":{"ha":884,"x_min":63,"x_max":751,"o":"m 63 0 m 298 39 q 432 68 370 39 q 552 163 494 97 l 578 347 l 307 347 q 193 318 239 347 q 135 211 146 288 q 162 84 124 129 q 298 39 201 39 m 287 -13 q 119 45 176 -13 q 78 203 63 102 q 153 348 91 295 q 314 400 215 400 l 586 400 l 605 539 q 574 662 615 611 q 437 713 534 713 q 294 682 340 713 q 208 568 247 652 l 154 585 q 265 727 198 683 q 446 770 332 770 q 623 710 563 770 q 668 540 683 649 l 620 202 q 634 71 606 102 q 751 56 662 40 l 744 -4 q 612 14 654 -16 q 571 120 569 44 l 558 120 q 441 23 511 59 q 287 -13 370 -13 m 264 985 l 271 1042 l 713 1042 l 706 985 l 264 985 z "},"ă":{"ha":884,"x_min":63,"x_max":761,"o":"m 63 0 m 298 39 q 432 68 370 39 q 552 163 494 97 l 578 347 l 307 347 q 193 318 239 347 q 135 211 146 288 q 162 84 124 129 q 298 39 201 39 m 287 -13 q 119 45 176 -13 q 78 203 63 102 q 153 348 91 295 q 314 400 215 400 l 586 400 l 605 539 q 574 662 615 611 q 437 713 534 713 q 294 682 340 713 q 208 568 247 652 l 154 585 q 265 727 198 683 q 446 770 332 770 q 623 710 563 770 q 668 540 683 649 l 620 202 q 634 71 606 102 q 751 56 662 40 l 744 -4 q 612 14 654 -16 q 571 120 569 44 l 558 120 q 441 23 511 59 q 287 -13 370 -13 m 468 875 q 290 943 345 875 q 251 1140 235 1011 l 314 1140 q 340 981 302 1030 q 477 932 379 932 q 628 981 576 932 q 698 1140 681 1030 l 761 1140 q 667 943 742 1011 q 468 875 592 875 z "},"ą":{"ha":884,"x_min":63,"x_max":759,"o":"m 63 0 m 298 39 q 432 68 370 39 q 552 163 494 97 l 578 347 l 307 347 q 193 318 239 347 q 135 211 146 288 q 162 84 124 129 q 298 39 201 39 m 287 -13 q 119 45 176 -13 q 78 203 63 102 q 153 348 91 295 q 314 400 215 400 l 586 400 l 605 539 q 574 662 615 611 q 437 713 534 713 q 294 682 340 713 q 208 568 247 652 l 154 585 q 265 727 198 683 q 446 770 332 770 q 623 710 563 770 q 668 540 683 649 l 620 202 q 634 71 606 102 q 751 56 662 40 l 744 -4 q 612 14 654 -16 q 571 120 569 44 l 558 120 q 441 23 511 59 q 287 -13 370 -13 m 649 -271 q 534 -234 574 -271 q 503 -134 494 -196 q 557 -32 510 -80 q 677 43 604 15 l 689 29 q 604 -38 634 -3 q 568 -117 574 -73 q 583 -191 561 -168 q 664 -215 606 -215 q 713 -212 691 -215 q 759 -205 735 -210 l 751 -261 q 698 -269 726 -266 q 649 -271 670 -271 z "},"ǻ":{"ha":884,"x_min":63,"x_max":782,"o":"m 63 0 m 298 39 q 432 68 370 39 q 552 163 494 97 l 578 347 l 307 347 q 193 318 239 347 q 135 211 146 288 q 162 84 124 129 q 298 39 201 39 m 287 -13 q 119 45 176 -13 q 78 203 63 102 q 153 348 91 295 q 314 400 215 400 l 586 400 l 605 539 q 574 662 615 611 q 437 713 534 713 q 294 682 340 713 q 208 568 247 652 l 154 585 q 265 727 198 683 q 446 770 332 770 q 623 710 563 770 q 668 540 683 649 l 620 202 q 634 71 606 102 q 751 56 662 40 l 744 -4 q 612 14 654 -16 q 571 120 569 44 l 558 120 q 441 23 511 59 q 287 -13 370 -13 m 467 865 q 343 912 381 865 q 317 1048 304 958 l 322 1088 q 387 1227 335 1179 q 525 1275 439 1275 q 650 1227 611 1275 q 676 1088 688 1179 l 670 1048 q 605 912 658 958 q 467 865 553 865 m 475 917 q 568 948 537 917 q 610 1048 600 980 l 615 1088 q 602 1191 625 1159 q 518 1223 580 1223 q 424 1191 456 1223 q 383 1088 393 1159 l 378 1048 q 390 948 367 980 q 475 917 413 917 m 461 1263 l 681 1515 l 782 1515 l 513 1263 l 461 1263 z "},"b":{"ha":884,"x_min":96,"x_max":742,"o":"m 360 -13 q 219 7 289 -13 q 96 63 149 27 l 229 1010 l 292 1010 l 241 644 l 254 644 q 368 734 293 698 q 530 770 443 770 q 689 695 636 770 q 723 482 742 620 l 694 277 q 585 66 676 145 q 360 -13 495 -13 m 366 42 q 548 102 481 42 q 631 279 615 162 l 660 481 q 640 656 677 598 q 509 713 602 713 q 367 680 434 713 q 231 574 299 646 l 163 93 q 253 54 203 67 q 366 42 302 42 z "},"":{"ha":884,"x_min":96,"x_max":742,"o":"m 360 -13 q 219 7 289 -13 q 96 63 149 27 l 229 1010 l 292 1010 l 241 644 l 254 644 q 368 734 293 698 q 530 770 443 770 q 689 695 636 770 q 723 482 742 620 l 694 277 q 585 66 676 145 q 360 -13 495 -13 m 366 42 q 548 102 481 42 q 631 279 615 162 l 660 481 q 640 656 677 598 q 509 713 602 713 q 367 680 434 713 q 231 574 299 646 l 163 93 q 253 54 203 67 q 366 42 302 42 z "},"c":{"ha":884,"x_min":106,"x_max":753,"o":"m 388 -13 q 174 61 241 -13 q 125 274 106 135 l 154 479 q 262 696 174 621 q 496 770 350 770 q 694 715 635 770 q 745 542 753 659 l 684 537 q 644 674 688 635 q 486 713 600 713 q 300 657 365 713 q 217 479 235 600 l 188 274 q 222 99 172 155 q 395 43 273 43 q 563 76 510 43 q 636 196 616 110 l 696 191 q 599 36 673 85 q 388 -13 525 -13 z "},"ç":{"ha":884,"x_min":106,"x_max":753,"o":"m 106 0 m 388 -13 q 174 61 241 -13 q 125 274 106 135 l 154 479 q 262 696 174 621 q 496 770 350 770 q 694 715 635 770 q 745 542 753 659 l 684 537 q 644 674 688 635 q 486 713 600 713 q 300 657 365 713 q 217 479 235 600 l 188 274 q 222 99 172 155 q 395 43 273 43 q 563 76 510 43 q 636 196 616 110 l 696 191 q 599 36 673 85 q 388 -13 525 -13 m 328 0 l 345 28 q 454 -27 419 14 q 480 -128 489 -67 q 419 -234 470 -196 q 288 -273 369 -273 q 175 -241 216 -273 q 139 -133 134 -208 l 201 -128 q 219 -199 198 -178 q 289 -220 240 -220 q 381 -198 352 -220 q 417 -124 409 -177 q 403 -45 424 -73 q 328 0 383 -16 z "},"ć":{"ha":884,"x_min":106,"x_max":753,"o":"m 106 0 m 388 -13 q 174 61 241 -13 q 125 274 106 135 l 154 479 q 262 696 174 621 q 496 770 350 770 q 694 715 635 770 q 745 542 753 659 l 684 537 q 644 674 688 635 q 486 713 600 713 q 300 657 365 713 q 217 479 235 600 l 188 274 q 222 99 172 155 q 395 43 273 43 q 563 76 510 43 q 636 196 616 110 l 696 191 q 599 36 673 85 q 388 -13 525 -13 m 418 884 l 638 1136 l 739 1136 l 470 884 l 418 884 z "},"ĉ":{"ha":884,"x_min":106,"x_max":763,"o":"m 106 0 m 388 -13 q 174 61 241 -13 q 125 274 106 135 l 154 479 q 262 696 174 621 q 496 770 350 770 q 694 715 635 770 q 745 542 753 659 l 684 537 q 644 674 688 635 q 486 713 600 713 q 300 657 365 713 q 217 479 235 600 l 188 274 q 222 99 172 155 q 395 43 273 43 q 563 76 510 43 q 636 196 616 110 l 696 191 q 599 36 673 85 q 388 -13 525 -13 m 306 912 l 284 946 l 533 1158 l 573 1158 l 763 946 l 731 912 l 544 1098 l 306 912 z "},"ċ":{"ha":884,"x_min":106,"x_max":753,"o":"m 106 0 m 388 -13 q 174 61 241 -13 q 125 274 106 135 l 154 479 q 262 696 174 621 q 496 770 350 770 q 694 715 635 770 q 745 542 753 659 l 684 537 q 644 674 688 635 q 486 713 600 713 q 300 657 365 713 q 217 479 235 600 l 188 274 q 222 99 172 155 q 395 43 273 43 q 563 76 510 43 q 636 196 616 110 l 696 191 q 599 36 673 85 q 388 -13 525 -13 m 509 922 q 465 932 481 922 q 452 968 448 942 l 453 977 q 476 1016 457 1005 q 523 1027 495 1027 q 567 1016 551 1027 q 580 977 583 1005 l 578 968 q 556 932 574 942 q 509 922 537 922 z "},"č":{"ha":884,"x_min":106,"x_max":773,"o":"m 106 0 m 388 -13 q 174 61 241 -13 q 125 274 106 135 l 154 479 q 262 696 174 621 q 496 770 350 770 q 694 715 635 770 q 745 542 753 659 l 684 537 q 644 674 688 635 q 486 713 600 713 q 300 657 365 713 q 217 479 235 600 l 188 274 q 222 99 172 155 q 395 43 273 43 q 563 76 510 43 q 636 196 616 110 l 696 191 q 599 36 673 85 q 388 -13 525 -13 m 484 889 l 294 1101 l 324 1135 l 513 948 l 750 1135 l 773 1101 l 524 889 l 484 889 z "},"d":{"ha":884,"x_min":106,"x_max":797,"o":"m 340 44 q 482 78 414 44 q 617 183 549 111 l 684 658 q 588 701 638 687 q 484 716 539 716 q 302 656 370 716 q 217 479 234 596 l 189 275 q 207 98 172 153 q 340 44 242 44 m 596 114 q 482 23 557 59 q 319 -13 407 -13 q 156 61 206 -13 q 126 275 106 134 l 155 481 q 264 692 173 614 q 490 770 355 770 q 599 756 548 770 q 693 722 650 742 l 734 1010 l 797 1010 l 655 0 l 592 0 l 609 114 l 596 114 z "},"ď":{"ha":884,"x_min":106,"x_max":1174,"o":"m 106 0 m 340 44 q 482 78 414 44 q 617 183 549 111 l 684 658 q 588 701 638 687 q 484 716 539 716 q 302 656 370 716 q 217 479 234 596 l 189 275 q 207 98 172 153 q 340 44 242 44 m 596 114 q 482 23 557 59 q 319 -13 407 -13 q 156 61 206 -13 q 126 275 106 134 l 155 481 q 264 692 173 614 q 490 770 355 770 q 599 756 548 770 q 693 722 650 742 l 734 1010 l 797 1010 l 655 0 l 592 0 l 609 114 l 596 114 m 944 953 l 1090 1263 l 1174 1263 l 997 953 l 944 953 z "},"e":{"ha":884,"x_min":106,"x_max":742,"o":"m 669 150 q 557 25 625 63 q 371 -13 489 -13 q 171 60 236 -13 q 126 275 106 133 l 154 479 q 265 698 176 625 q 481 770 354 770 q 676 696 609 770 q 721 470 742 622 l 707 372 l 202 372 l 188 274 q 219 98 172 153 q 378 44 266 44 q 526 74 477 44 q 610 170 574 104 l 669 150 m 217 479 l 210 426 l 652 426 l 658 467 q 628 653 676 595 q 471 712 581 712 q 298 655 361 712 q 217 479 235 598 z "},"è":{"ha":884,"x_min":106,"x_max":742,"o":"m 106 0 m 669 150 q 557 25 625 63 q 371 -13 489 -13 q 171 60 236 -13 q 126 275 106 133 l 154 479 q 265 698 176 625 q 481 770 354 770 q 676 696 609 770 q 721 470 742 622 l 707 372 l 202 372 l 188 274 q 219 98 172 153 q 378 44 266 44 q 526 74 477 44 q 610 170 574 104 l 669 150 m 217 479 l 210 426 l 652 426 l 658 467 q 628 653 676 595 q 471 712 581 712 q 298 655 361 712 q 217 479 235 598 m 529 884 l 331 1136 l 432 1136 l 581 884 l 529 884 z "},"é":{"ha":884,"x_min":106,"x_max":742,"o":"m 106 0 m 669 150 q 557 25 625 63 q 371 -13 489 -13 q 171 60 236 -13 q 126 275 106 133 l 154 479 q 265 698 176 625 q 481 770 354 770 q 676 696 609 770 q 721 470 742 622 l 707 372 l 202 372 l 188 274 q 219 98 172 153 q 378 44 266 44 q 526 74 477 44 q 610 170 574 104 l 669 150 m 217 479 l 210 426 l 652 426 l 658 467 q 628 653 676 595 q 471 712 581 712 q 298 655 361 712 q 217 479 235 598 m 412 884 l 631 1136 l 732 1136 l 463 884 l 412 884 z "},"ê":{"ha":884,"x_min":106,"x_max":744,"o":"m 106 0 m 669 150 q 557 25 625 63 q 371 -13 489 -13 q 171 60 236 -13 q 126 275 106 133 l 154 479 q 265 698 176 625 q 481 770 354 770 q 676 696 609 770 q 721 470 742 622 l 707 372 l 202 372 l 188 274 q 219 98 172 153 q 378 44 266 44 q 526 74 477 44 q 610 170 574 104 l 669 150 m 217 479 l 210 426 l 652 426 l 658 467 q 628 653 676 595 q 471 712 581 712 q 298 655 361 712 q 217 479 235 598 m 287 912 l 265 946 l 514 1158 l 554 1158 l 744 946 l 712 912 l 525 1098 l 287 912 z "},"ë":{"ha":884,"x_min":106,"x_max":742,"o":"m 106 0 m 669 150 q 557 25 625 63 q 371 -13 489 -13 q 171 60 236 -13 q 126 275 106 133 l 154 479 q 265 698 176 625 q 481 770 354 770 q 676 696 609 770 q 721 470 742 622 l 707 372 l 202 372 l 188 274 q 219 98 172 153 q 378 44 266 44 q 526 74 477 44 q 610 170 574 104 l 669 150 m 217 479 l 210 426 l 652 426 l 658 467 q 628 653 676 595 q 471 712 581 712 q 298 655 361 712 q 217 479 235 598 m 370 922 q 330 931 345 922 q 319 968 316 941 l 321 977 q 342 1016 324 1005 q 384 1027 359 1027 q 424 1016 409 1027 q 434 977 438 1005 l 433 968 q 412 931 429 941 q 370 922 394 922 m 635 922 q 595 931 610 922 q 585 968 581 941 l 586 977 q 607 1016 590 1005 q 649 1027 624 1027 q 689 1016 674 1027 q 699 977 703 1005 l 698 968 q 677 931 694 941 q 635 922 659 922 z "},"ē":{"ha":884,"x_min":106,"x_max":742,"o":"m 106 0 m 669 150 q 557 25 625 63 q 371 -13 489 -13 q 171 60 236 -13 q 126 275 106 133 l 154 479 q 265 698 176 625 q 481 770 354 770 q 676 696 609 770 q 721 470 742 622 l 707 372 l 202 372 l 188 274 q 219 98 172 153 q 378 44 266 44 q 526 74 477 44 q 610 170 574 104 l 669 150 m 217 479 l 210 426 l 652 426 l 658 467 q 628 653 676 595 q 471 712 581 712 q 298 655 361 712 q 217 479 235 598 m 290 985 l 298 1042 l 740 1042 l 732 985 l 290 985 z "},"ĕ":{"ha":884,"x_min":106,"x_max":788,"o":"m 106 0 m 669 150 q 557 25 625 63 q 371 -13 489 -13 q 171 60 236 -13 q 126 275 106 133 l 154 479 q 265 698 176 625 q 481 770 354 770 q 676 696 609 770 q 721 470 742 622 l 707 372 l 202 372 l 188 274 q 219 98 172 153 q 378 44 266 44 q 526 74 477 44 q 610 170 574 104 l 669 150 m 217 479 l 210 426 l 652 426 l 658 467 q 628 653 676 595 q 471 712 581 712 q 298 655 361 712 q 217 479 235 598 m 495 875 q 316 943 371 875 q 278 1140 261 1011 l 341 1140 q 367 981 328 1030 q 504 932 405 932 q 655 981 602 932 q 725 1140 707 1030 l 788 1140 q 694 943 769 1011 q 495 875 619 875 z "},"ė":{"ha":884,"x_min":106,"x_max":742,"o":"m 106 0 m 669 150 q 557 25 625 63 q 371 -13 489 -13 q 171 60 236 -13 q 126 275 106 133 l 154 479 q 265 698 176 625 q 481 770 354 770 q 676 696 609 770 q 721 470 742 622 l 707 372 l 202 372 l 188 274 q 219 98 172 153 q 378 44 266 44 q 526 74 477 44 q 610 170 574 104 l 669 150 m 217 479 l 210 426 l 652 426 l 658 467 q 628 653 676 595 q 471 712 581 712 q 298 655 361 712 q 217 479 235 598 m 503 922 q 458 932 475 922 q 446 968 442 942 l 447 977 q 470 1016 451 1005 q 516 1027 489 1027 q 561 1016 544 1027 q 573 977 577 1005 l 572 968 q 549 932 568 942 q 503 922 530 922 z "},"ę":{"ha":884,"x_min":106,"x_max":742,"o":"m 106 0 m 669 150 q 557 25 625 63 q 371 -13 489 -13 q 171 60 236 -13 q 126 275 106 133 l 154 479 q 265 698 176 625 q 481 770 354 770 q 676 696 609 770 q 721 470 742 622 l 707 372 l 202 372 l 188 274 q 219 98 172 153 q 378 44 266 44 q 526 74 477 44 q 610 170 574 104 l 669 150 m 217 479 l 210 426 l 652 426 l 658 467 q 628 653 676 595 q 471 712 581 712 q 298 655 361 712 q 217 479 235 598 m 511 -271 q 396 -234 437 -271 q 365 -134 356 -196 q 419 -32 372 -80 q 539 43 466 15 l 552 29 q 467 -38 496 -3 q 431 -117 437 -73 q 446 -191 423 -168 q 527 -215 468 -215 q 575 -212 553 -215 q 621 -205 597 -210 l 614 -261 q 561 -269 588 -266 q 511 -271 533 -271 z "},"ě":{"ha":884,"x_min":106,"x_max":766,"o":"m 106 0 m 669 150 q 557 25 625 63 q 371 -13 489 -13 q 171 60 236 -13 q 126 275 106 133 l 154 479 q 265 698 176 625 q 481 770 354 770 q 676 696 609 770 q 721 470 742 622 l 707 372 l 202 372 l 188 274 q 219 98 172 153 q 378 44 266 44 q 526 74 477 44 q 610 170 574 104 l 669 150 m 217 479 l 210 426 l 652 426 l 658 467 q 628 653 676 595 q 471 712 581 712 q 298 655 361 712 q 217 479 235 598 m 477 889 l 288 1101 l 318 1135 l 506 948 l 744 1135 l 766 1101 l 518 889 l 477 889 z "},"f":{"ha":884,"x_min":148,"x_max":807,"o":"m 241 -253 l 375 701 l 148 701 l 155 758 l 383 758 l 390 808 q 478 967 404 910 q 650 1023 552 1023 q 735 1015 693 1023 q 807 996 777 1008 l 787 942 q 718 960 756 953 q 641 966 681 966 q 515 929 566 966 q 453 809 465 893 l 446 758 l 774 758 l 766 701 l 438 701 l 304 -253 l 241 -253 z "},"g":{"ha":884,"x_min":1,"x_max":793,"o":"m 710 -61 q 624 -214 696 -163 q 453 -265 552 -265 l 216 -265 q 59 -214 116 -265 q 16 -54 1 -163 q 60 47 25 9 q 150 90 95 85 l 152 97 q 92 134 111 104 q 78 211 72 164 q 130 319 88 278 q 237 365 172 360 l 237 370 q 176 420 194 384 q 165 510 158 456 l 172 557 q 258 701 184 644 q 452 758 331 758 l 793 758 l 785 701 l 605 716 l 604 707 q 666 648 649 694 q 677 557 683 602 l 670 511 q 590 376 659 428 q 386 323 521 323 l 234 323 q 169 299 193 323 q 136 217 145 275 q 153 139 129 164 q 234 114 178 114 l 520 114 q 672 68 622 114 q 710 -61 722 23 m 399 375 q 544 408 491 375 q 607 509 597 441 l 612 549 q 580 665 624 629 q 444 701 537 701 q 299 665 352 701 q 234 549 245 629 l 229 509 q 263 408 218 441 q 399 375 307 375 m 222 -208 l 479 -208 q 595 -174 554 -208 q 645 -68 636 -139 q 625 21 654 -8 q 528 51 596 51 l 95 51 l 82 -35 q 107 -164 71 -120 q 222 -208 143 -208 z "},"ĝ":{"ha":884,"x_min":1,"x_max":793,"o":"m 1 0 m 710 -61 q 624 -214 696 -163 q 453 -265 552 -265 l 216 -265 q 59 -214 116 -265 q 16 -54 1 -163 q 60 47 25 9 q 150 90 95 85 l 152 97 q 92 134 111 104 q 78 211 72 164 q 130 319 88 278 q 237 365 172 360 l 237 370 q 176 420 194 384 q 165 510 158 456 l 172 557 q 258 701 184 644 q 452 758 331 758 l 793 758 l 785 701 l 605 716 l 604 707 q 666 648 649 694 q 677 557 683 602 l 670 511 q 590 376 659 428 q 386 323 521 323 l 234 323 q 169 299 193 323 q 136 217 145 275 q 153 139 129 164 q 234 114 178 114 l 520 114 q 672 68 622 114 q 710 -61 722 23 m 399 375 q 544 408 491 375 q 607 509 597 441 l 612 549 q 580 665 624 629 q 444 701 537 701 q 299 665 352 701 q 234 549 245 629 l 229 509 q 263 408 218 441 q 399 375 307 375 m 222 -208 l 479 -208 q 595 -174 554 -208 q 645 -68 636 -139 q 625 21 654 -8 q 528 51 596 51 l 95 51 l 82 -35 q 107 -164 71 -120 q 222 -208 143 -208 m 273 912 l 251 946 l 500 1158 l 540 1158 l 730 946 l 698 912 l 511 1098 l 273 912 z "},"ğ":{"ha":884,"x_min":1,"x_max":793,"o":"m 1 0 m 710 -61 q 624 -214 696 -163 q 453 -265 552 -265 l 216 -265 q 59 -214 116 -265 q 16 -54 1 -163 q 60 47 25 9 q 150 90 95 85 l 152 97 q 92 134 111 104 q 78 211 72 164 q 130 319 88 278 q 237 365 172 360 l 237 370 q 176 420 194 384 q 165 510 158 456 l 172 557 q 258 701 184 644 q 452 758 331 758 l 793 758 l 785 701 l 605 716 l 604 707 q 666 648 649 694 q 677 557 683 602 l 670 511 q 590 376 659 428 q 386 323 521 323 l 234 323 q 169 299 193 323 q 136 217 145 275 q 153 139 129 164 q 234 114 178 114 l 520 114 q 672 68 622 114 q 710 -61 722 23 m 399 375 q 544 408 491 375 q 607 509 597 441 l 612 549 q 580 665 624 629 q 444 701 537 701 q 299 665 352 701 q 234 549 245 629 l 229 509 q 263 408 218 441 q 399 375 307 375 m 222 -208 l 479 -208 q 595 -174 554 -208 q 645 -68 636 -139 q 625 21 654 -8 q 528 51 596 51 l 95 51 l 82 -35 q 107 -164 71 -120 q 222 -208 143 -208 m 494 875 q 315 943 370 875 q 277 1140 260 1011 l 340 1140 q 366 981 327 1030 q 503 932 404 932 q 653 981 601 932 q 723 1140 706 1030 l 787 1140 q 693 943 768 1011 q 494 875 617 875 z "},"ġ":{"ha":884,"x_min":1,"x_max":793,"o":"m 1 0 m 710 -61 q 624 -214 696 -163 q 453 -265 552 -265 l 216 -265 q 59 -214 116 -265 q 16 -54 1 -163 q 60 47 25 9 q 150 90 95 85 l 152 97 q 92 134 111 104 q 78 211 72 164 q 130 319 88 278 q 237 365 172 360 l 237 370 q 176 420 194 384 q 165 510 158 456 l 172 557 q 258 701 184 644 q 452 758 331 758 l 793 758 l 785 701 l 605 716 l 604 707 q 666 648 649 694 q 677 557 683 602 l 670 511 q 590 376 659 428 q 386 323 521 323 l 234 323 q 169 299 193 323 q 136 217 145 275 q 153 139 129 164 q 234 114 178 114 l 520 114 q 672 68 622 114 q 710 -61 722 23 m 399 375 q 544 408 491 375 q 607 509 597 441 l 612 549 q 580 665 624 629 q 444 701 537 701 q 299 665 352 701 q 234 549 245 629 l 229 509 q 263 408 218 441 q 399 375 307 375 m 222 -208 l 479 -208 q 595 -174 554 -208 q 645 -68 636 -139 q 625 21 654 -8 q 528 51 596 51 l 95 51 l 82 -35 q 107 -164 71 -120 q 222 -208 143 -208 m 501 922 q 457 932 473 922 q 444 968 441 942 l 446 977 q 468 1016 449 1005 q 515 1027 487 1027 q 559 1016 543 1027 q 572 977 576 1005 l 571 968 q 548 932 567 942 q 501 922 529 922 z "},"ģ":{"ha":884,"x_min":1,"x_max":793,"o":"m 1 0 m 710 -61 q 624 -214 696 -163 q 453 -265 552 -265 l 216 -265 q 59 -214 116 -265 q 16 -54 1 -163 q 60 47 25 9 q 150 90 95 85 l 152 97 q 92 134 111 104 q 78 211 72 164 q 130 319 88 278 q 237 365 172 360 l 237 370 q 176 420 194 384 q 165 510 158 456 l 172 557 q 258 701 184 644 q 452 758 331 758 l 793 758 l 785 701 l 605 716 l 604 707 q 666 648 649 694 q 677 557 683 602 l 670 511 q 590 376 659 428 q 386 323 521 323 l 234 323 q 169 299 193 323 q 136 217 145 275 q 153 139 129 164 q 234 114 178 114 l 520 114 q 672 68 622 114 q 710 -61 722 23 m 399 375 q 544 408 491 375 q 607 509 597 441 l 612 549 q 580 665 624 629 q 444 701 537 701 q 299 665 352 701 q 234 549 245 629 l 229 509 q 263 408 218 441 q 399 375 307 375 m 222 -208 l 479 -208 q 595 -174 554 -208 q 645 -68 636 -139 q 625 21 654 -8 q 528 51 596 51 l 95 51 l 82 -35 q 107 -164 71 -120 q 222 -208 143 -208 m 439 884 l 645 1136 l 697 1136 l 540 884 l 439 884 z "},"h":{"ha":884,"x_min":87,"x_max":745,"o":"m 87 0 l 229 1010 l 292 1010 l 239 631 l 251 631 q 371 733 307 696 q 525 770 434 770 q 689 703 633 770 q 729 525 745 635 l 655 0 l 592 0 l 664 511 q 636 660 677 606 q 511 713 596 713 q 371 680 436 713 q 230 568 307 646 l 150 0 l 87 0 z "},"ĥ":{"ha":884,"x_min":62,"x_max":745,"o":"m 62 0 m 87 0 l 229 1010 l 292 1010 l 239 631 l 251 631 q 371 733 307 696 q 525 770 434 770 q 689 703 633 770 q 729 525 745 635 l 655 0 l 592 0 l 664 511 q 636 660 677 606 q 511 713 596 713 q 371 680 436 713 q 230 568 307 646 l 150 0 l 87 0 m 83 1164 l 62 1198 l 311 1410 l 351 1410 l 540 1198 l 509 1164 l 322 1351 l 83 1164 z "},"i":{"ha":884,"x_min":87,"x_max":663,"o":"m 87 0 m 87 0 l 95 57 l 347 57 l 438 701 l 186 701 l 193 758 l 509 758 l 410 57 l 663 57 l 655 0 l 87 0 m 501 922 q 457 932 473 922 q 444 968 441 942 l 446 977 q 468 1016 449 1005 q 515 1027 487 1027 q 559 1016 543 1027 q 572 977 576 1005 l 571 968 q 548 932 567 942 q 501 922 529 922 z "},"ì":{"ha":884,"x_min":87,"x_max":663,"o":"m 87 0 m 87 0 l 95 57 l 347 57 l 438 701 l 186 701 l 193 758 l 509 758 l 410 57 l 663 57 l 655 0 l 87 0 m 528 884 l 330 1136 l 431 1136 l 580 884 l 528 884 z "},"í":{"ha":884,"x_min":87,"x_max":731,"o":"m 87 0 m 87 0 l 95 57 l 347 57 l 438 701 l 186 701 l 193 758 l 509 758 l 410 57 l 663 57 l 655 0 l 87 0 m 410 884 l 630 1136 l 731 1136 l 462 884 l 410 884 z "},"î":{"ha":884,"x_min":87,"x_max":742,"o":"m 87 0 m 87 0 l 95 57 l 347 57 l 438 701 l 186 701 l 193 758 l 509 758 l 410 57 l 663 57 l 655 0 l 87 0 m 285 912 l 264 946 l 513 1158 l 553 1158 l 742 946 l 711 912 l 524 1098 l 285 912 z "},"ï":{"ha":884,"x_min":87,"x_max":702,"o":"m 87 0 m 87 0 l 95 57 l 347 57 l 438 701 l 186 701 l 193 758 l 509 758 l 410 57 l 663 57 l 655 0 l 87 0 m 369 922 q 329 931 343 922 q 318 968 314 941 l 319 977 q 340 1016 323 1005 q 383 1027 357 1027 q 422 1016 408 1027 q 433 977 437 1005 l 432 968 q 410 931 428 941 q 369 922 393 922 m 634 922 q 594 931 609 922 q 583 968 580 941 l 585 977 q 605 1016 588 1005 q 648 1027 622 1027 q 688 1016 673 1027 q 698 977 702 1005 l 697 968 q 676 931 693 941 q 634 922 658 922 z "},"ĩ":{"ha":884,"x_min":87,"x_max":764,"o":"m 87 0 m 87 0 l 95 57 l 347 57 l 438 701 l 186 701 l 193 758 l 509 758 l 410 57 l 663 57 l 655 0 l 87 0 m 607 896 q 539 921 566 896 q 486 1010 513 946 q 453 1080 468 1061 q 415 1098 437 1098 q 354 1056 376 1098 q 321 923 331 1014 l 318 909 l 265 909 l 268 928 q 323 1093 284 1038 q 423 1149 361 1149 q 491 1126 466 1149 q 539 1042 516 1104 q 578 967 562 987 q 614 947 593 947 q 674 989 650 947 q 710 1122 697 1032 l 711 1136 l 764 1136 l 761 1117 q 708 952 746 1008 q 607 896 669 896 z "},"ī":{"ha":884,"x_min":87,"x_max":739,"o":"m 87 0 m 87 0 l 95 57 l 347 57 l 438 701 l 186 701 l 193 758 l 509 758 l 410 57 l 663 57 l 655 0 l 87 0 m 289 985 l 297 1042 l 739 1042 l 731 985 l 289 985 z "},"ĭ":{"ha":884,"x_min":87,"x_max":787,"o":"m 87 0 m 87 0 l 95 57 l 347 57 l 438 701 l 186 701 l 193 758 l 509 758 l 410 57 l 663 57 l 655 0 l 87 0 m 494 875 q 315 943 370 875 q 277 1140 260 1011 l 340 1140 q 366 981 327 1030 q 503 932 404 932 q 653 981 601 932 q 723 1140 706 1030 l 787 1140 q 693 943 768 1011 q 494 875 617 875 z "},"į":{"ha":884,"x_min":87,"x_max":663,"o":"m 87 0 m 87 0 l 95 57 l 347 57 l 438 701 l 186 701 l 193 758 l 509 758 l 410 57 l 663 57 l 655 0 l 87 0 m 501 922 q 457 932 473 922 q 444 968 441 942 l 446 977 q 468 1016 449 1005 q 515 1027 487 1027 q 559 1016 543 1027 q 572 977 576 1005 l 571 968 q 548 932 567 942 q 501 922 529 922 m 453 -271 q 338 -234 379 -271 q 307 -134 298 -196 q 361 -32 314 -80 q 481 43 408 15 l 494 29 q 408 -38 438 -3 q 372 -117 379 -73 q 388 -191 365 -168 q 468 -215 410 -215 q 517 -212 495 -215 q 563 -205 539 -210 l 556 -261 q 503 -269 530 -266 q 453 -271 475 -271 z "},"j":{"ha":884,"x_min":54,"x_max":698,"o":"m 54 0 m 231 -263 q 140 -255 187 -263 q 54 -236 93 -247 l 76 -178 q 157 -198 116 -192 q 235 -205 198 -205 q 396 -147 338 -205 q 470 28 453 -90 l 564 701 l 211 701 l 218 758 l 635 758 l 532 18 q 434 -189 513 -116 q 231 -263 356 -263 m 624 922 q 580 932 596 922 q 567 968 563 942 l 568 977 q 591 1016 572 1005 q 638 1027 610 1027 q 682 1016 665 1027 q 694 977 698 1005 l 693 968 q 670 932 689 942 q 624 922 652 922 z "},"ĵ":{"ha":884,"x_min":54,"x_max":826,"o":"m 54 0 m 231 -263 q 140 -255 187 -263 q 54 -236 93 -247 l 76 -178 q 157 -198 116 -192 q 235 -205 198 -205 q 396 -147 338 -205 q 470 28 453 -90 l 564 701 l 211 701 l 218 758 l 635 758 l 532 18 q 434 -189 513 -116 q 231 -263 356 -263 m 369 912 l 347 946 l 596 1158 l 636 1158 l 826 946 l 794 912 l 607 1098 l 369 912 z "},"k":{"ha":884,"x_min":150,"x_max":780,"o":"m 265 370 l 213 0 l 150 0 l 292 1010 l 355 1010 l 274 427 l 402 427 l 705 758 l 780 758 l 451 404 l 670 0 l 598 0 l 395 370 l 265 370 z "},"ķ":{"ha":884,"x_min":150,"x_max":780,"o":"m 150 0 m 265 370 l 213 0 l 150 0 l 292 1010 l 355 1010 l 274 427 l 402 427 l 705 758 l 780 758 l 451 404 l 670 0 l 598 0 l 395 370 l 265 370 m 165 -379 l 322 -126 l 423 -126 l 217 -379 l 165 -379 z "},"l":{"ha":884,"x_min":87,"x_max":663,"o":"m 87 0 l 95 57 l 347 57 l 473 953 l 221 953 l 229 1010 l 544 1010 l 410 57 l 663 57 l 655 0 l 87 0 z "},"ĺ":{"ha":884,"x_min":87,"x_max":750,"o":"m 87 0 m 87 0 l 95 57 l 347 57 l 473 953 l 221 953 l 229 1010 l 544 1010 l 410 57 l 663 57 l 655 0 l 87 0 m 429 1136 l 649 1389 l 750 1389 l 481 1136 l 429 1136 z "},"ļ":{"ha":884,"x_min":87,"x_max":663,"o":"m 87 0 m 87 0 l 95 57 l 347 57 l 473 953 l 221 953 l 229 1010 l 544 1010 l 410 57 l 663 57 l 655 0 l 87 0 m 143 -379 l 299 -126 l 400 -126 l 194 -379 l 143 -379 z "},"ľ":{"ha":884,"x_min":87,"x_max":922,"o":"m 87 0 m 87 0 l 95 57 l 347 57 l 473 953 l 221 953 l 229 1010 l 544 1010 l 410 57 l 663 57 l 655 0 l 87 0 m 692 953 l 837 1263 l 922 1263 l 745 953 l 692 953 z "},"m":{"ha":884,"x_min":24,"x_max":811,"o":"m 172 606 l 87 0 l 24 0 l 130 758 l 193 758 l 179 657 l 192 657 q 263 739 223 708 q 354 770 302 770 q 439 741 407 770 q 481 657 472 711 l 495 657 q 570 739 527 708 q 670 770 614 770 q 777 713 742 770 q 797 556 811 655 l 718 0 l 655 0 l 731 542 q 723 671 744 630 q 649 712 703 712 q 572 685 610 712 q 487 606 534 658 l 403 0 l 340 0 l 415 542 q 408 671 428 630 q 333 712 388 712 q 256 685 294 712 q 172 606 218 658 z "},"n":{"ha":884,"x_min":87,"x_max":745,"o":"m 87 0 l 193 758 l 256 758 l 239 631 l 251 631 q 371 733 295 696 q 525 770 446 770 q 690 704 635 770 q 729 524 745 638 l 655 0 l 592 0 l 664 511 q 638 661 678 610 q 511 712 598 712 q 369 677 439 712 q 231 574 299 643 l 150 0 l 87 0 z "},"ñ":{"ha":884,"x_min":87,"x_max":789,"o":"m 87 0 m 87 0 l 193 758 l 256 758 l 239 631 l 251 631 q 371 733 295 696 q 525 770 446 770 q 690 704 635 770 q 729 524 745 638 l 655 0 l 592 0 l 664 511 q 638 661 678 610 q 511 712 598 712 q 369 677 439 712 q 231 574 299 643 l 150 0 l 87 0 m 633 896 q 564 921 591 896 q 511 1010 538 946 q 478 1080 494 1061 q 441 1098 462 1098 q 379 1056 402 1098 q 346 923 356 1014 l 343 909 l 290 909 l 293 928 q 348 1093 309 1038 q 448 1149 386 1149 q 516 1126 491 1149 q 564 1042 542 1104 q 603 967 587 987 q 639 947 619 947 q 699 989 676 947 q 735 1122 722 1032 l 736 1136 l 789 1136 l 787 1117 q 733 952 771 1008 q 633 896 694 896 z "},"ń":{"ha":884,"x_min":87,"x_max":756,"o":"m 87 0 m 87 0 l 193 758 l 256 758 l 239 631 l 251 631 q 371 733 295 696 q 525 770 446 770 q 690 704 635 770 q 729 524 745 638 l 655 0 l 592 0 l 664 511 q 638 661 678 610 q 511 712 598 712 q 369 677 439 712 q 231 574 299 643 l 150 0 l 87 0 m 436 884 l 655 1136 l 756 1136 l 487 884 l 436 884 z "},"ņ":{"ha":884,"x_min":87,"x_max":745,"o":"m 87 0 m 87 0 l 193 758 l 256 758 l 239 631 l 251 631 q 371 733 295 696 q 525 770 446 770 q 690 704 635 770 q 729 524 745 638 l 655 0 l 592 0 l 664 511 q 638 661 678 610 q 511 712 598 712 q 369 677 439 712 q 231 574 299 643 l 150 0 l 87 0 m 174 -379 l 331 -126 l 432 -126 l 226 -379 l 174 -379 z "},"ň":{"ha":884,"x_min":87,"x_max":790,"o":"m 87 0 m 87 0 l 193 758 l 256 758 l 239 631 l 251 631 q 371 733 295 696 q 525 770 446 770 q 690 704 635 770 q 729 524 745 638 l 655 0 l 592 0 l 664 511 q 638 661 678 610 q 511 712 598 712 q 369 677 439 712 q 231 574 299 643 l 150 0 l 87 0 m 501 889 l 312 1101 l 342 1135 l 530 948 l 768 1135 l 790 1101 l 542 889 l 501 889 z "},"o":{"ha":884,"x_min":106,"x_max":742,"o":"m 370 -13 q 169 61 232 -13 q 125 274 106 135 l 154 479 q 259 695 174 620 q 481 770 343 770 q 680 695 617 770 q 722 479 742 620 l 693 274 q 591 61 674 135 q 370 -13 508 -13 m 378 44 q 552 100 491 44 q 630 274 614 157 l 659 479 q 631 656 677 598 q 471 713 585 713 q 296 656 357 713 q 217 479 235 598 l 188 274 q 218 100 172 157 q 378 44 264 44 z "},"ò":{"ha":884,"x_min":106,"x_max":742,"o":"m 106 0 m 370 -13 q 169 61 232 -13 q 125 274 106 135 l 154 479 q 259 695 174 620 q 481 770 343 770 q 680 695 617 770 q 722 479 742 620 l 693 274 q 591 61 674 135 q 370 -13 508 -13 m 378 44 q 552 100 491 44 q 630 274 614 157 l 659 479 q 631 656 677 598 q 471 713 585 713 q 296 656 357 713 q 217 479 235 598 l 188 274 q 218 100 172 157 q 378 44 264 44 m 528 884 l 330 1136 l 431 1136 l 580 884 l 528 884 z "},"ó":{"ha":884,"x_min":106,"x_max":742,"o":"m 106 0 m 370 -13 q 169 61 232 -13 q 125 274 106 135 l 154 479 q 259 695 174 620 q 481 770 343 770 q 680 695 617 770 q 722 479 742 620 l 693 274 q 591 61 674 135 q 370 -13 508 -13 m 378 44 q 552 100 491 44 q 630 274 614 157 l 659 479 q 631 656 677 598 q 471 713 585 713 q 296 656 357 713 q 217 479 235 598 l 188 274 q 218 100 172 157 q 378 44 264 44 m 410 884 l 630 1136 l 731 1136 l 462 884 l 410 884 z "},"ô":{"ha":884,"x_min":106,"x_max":742,"o":"m 106 0 m 370 -13 q 169 61 232 -13 q 125 274 106 135 l 154 479 q 259 695 174 620 q 481 770 343 770 q 680 695 617 770 q 722 479 742 620 l 693 274 q 591 61 674 135 q 370 -13 508 -13 m 378 44 q 552 100 491 44 q 630 274 614 157 l 659 479 q 631 656 677 598 q 471 713 585 713 q 296 656 357 713 q 217 479 235 598 l 188 274 q 218 100 172 157 q 378 44 264 44 m 285 912 l 264 946 l 513 1158 l 553 1158 l 742 946 l 711 912 l 524 1098 l 285 912 z "},"õ":{"ha":884,"x_min":106,"x_max":764,"o":"m 106 0 m 370 -13 q 169 61 232 -13 q 125 274 106 135 l 154 479 q 259 695 174 620 q 481 770 343 770 q 680 695 617 770 q 722 479 742 620 l 693 274 q 591 61 674 135 q 370 -13 508 -13 m 378 44 q 552 100 491 44 q 630 274 614 157 l 659 479 q 631 656 677 598 q 471 713 585 713 q 296 656 357 713 q 217 479 235 598 l 188 274 q 218 100 172 157 q 378 44 264 44 m 607 896 q 539 921 566 896 q 486 1010 513 946 q 453 1080 468 1061 q 415 1098 437 1098 q 354 1056 376 1098 q 321 923 331 1014 l 318 909 l 265 909 l 268 928 q 323 1093 284 1038 q 423 1149 361 1149 q 491 1126 466 1149 q 539 1042 516 1104 q 578 967 562 987 q 614 947 593 947 q 674 989 650 947 q 710 1122 697 1032 l 711 1136 l 764 1136 l 761 1117 q 708 952 746 1008 q 607 896 669 896 z "},"ö":{"ha":884,"x_min":106,"x_max":742,"o":"m 106 0 m 370 -13 q 169 61 232 -13 q 125 274 106 135 l 154 479 q 259 695 174 620 q 481 770 343 770 q 680 695 617 770 q 722 479 742 620 l 693 274 q 591 61 674 135 q 370 -13 508 -13 m 378 44 q 552 100 491 44 q 630 274 614 157 l 659 479 q 631 656 677 598 q 471 713 585 713 q 296 656 357 713 q 217 479 235 598 l 188 274 q 218 100 172 157 q 378 44 264 44 m 369 922 q 329 931 343 922 q 318 968 314 941 l 319 977 q 340 1016 323 1005 q 383 1027 357 1027 q 422 1016 408 1027 q 433 977 437 1005 l 432 968 q 410 931 428 941 q 369 922 393 922 m 634 922 q 594 931 609 922 q 583 968 580 941 l 585 977 q 605 1016 588 1005 q 648 1027 622 1027 q 688 1016 673 1027 q 698 977 702 1005 l 697 968 q 676 931 693 941 q 634 922 658 922 z "},"ō":{"ha":884,"x_min":106,"x_max":742,"o":"m 106 0 m 370 -13 q 169 61 232 -13 q 125 274 106 135 l 154 479 q 259 695 174 620 q 481 770 343 770 q 680 695 617 770 q 722 479 742 620 l 693 274 q 591 61 674 135 q 370 -13 508 -13 m 378 44 q 552 100 491 44 q 630 274 614 157 l 659 479 q 631 656 677 598 q 471 713 585 713 q 296 656 357 713 q 217 479 235 598 l 188 274 q 218 100 172 157 q 378 44 264 44 m 289 985 l 297 1042 l 739 1042 l 731 985 l 289 985 z "},"ŏ":{"ha":884,"x_min":106,"x_max":787,"o":"m 106 0 m 370 -13 q 169 61 232 -13 q 125 274 106 135 l 154 479 q 259 695 174 620 q 481 770 343 770 q 680 695 617 770 q 722 479 742 620 l 693 274 q 591 61 674 135 q 370 -13 508 -13 m 378 44 q 552 100 491 44 q 630 274 614 157 l 659 479 q 631 656 677 598 q 471 713 585 713 q 296 656 357 713 q 217 479 235 598 l 188 274 q 218 100 172 157 q 378 44 264 44 m 494 875 q 315 943 370 875 q 277 1140 260 1011 l 340 1140 q 366 981 327 1030 q 503 932 404 932 q 653 981 601 932 q 723 1140 706 1030 l 787 1140 q 693 943 768 1011 q 494 875 617 875 z "},"ő":{"ha":884,"x_min":106,"x_max":785,"o":"m 106 0 m 370 -13 q 169 61 232 -13 q 125 274 106 135 l 154 479 q 259 695 174 620 q 481 770 343 770 q 680 695 617 770 q 722 479 742 620 l 693 274 q 591 61 674 135 q 370 -13 508 -13 m 378 44 q 552 100 491 44 q 630 274 614 157 l 659 479 q 631 656 677 598 q 471 713 585 713 q 296 656 357 713 q 217 479 235 598 l 188 274 q 218 100 172 157 q 378 44 264 44 m 566 884 l 672 1136 l 785 1136 l 617 884 l 566 884 m 326 884 l 432 1136 l 545 1136 l 378 884 l 326 884 z "},"p":{"ha":884,"x_min":52,"x_max":742,"o":"m 366 42 q 550 100 485 42 q 631 279 615 158 l 660 484 q 640 657 677 601 q 509 713 602 713 q 367 680 434 713 q 231 574 299 646 l 164 102 q 261 57 211 73 q 366 42 311 42 m 360 -13 q 261 0 317 -13 q 155 35 206 13 l 115 -253 l 52 -253 l 193 758 l 256 758 l 239 631 l 251 631 q 368 735 294 699 q 524 770 442 770 q 689 694 636 770 q 723 482 742 617 l 694 277 q 586 64 676 141 q 360 -13 497 -13 z "},"q":{"ha":884,"x_min":107,"x_max":754,"o":"m 557 -253 l 610 126 l 597 126 q 472 25 547 62 q 313 -13 396 -13 q 157 64 207 -13 q 126 275 107 140 l 155 481 q 263 693 174 616 q 490 770 352 770 q 636 753 566 770 q 754 705 706 736 l 620 -253 l 557 -253 m 340 44 q 484 78 415 44 q 617 183 552 112 l 686 668 q 597 704 646 692 q 484 716 547 716 q 300 658 365 716 q 217 479 235 600 l 191 288 q 210 104 173 163 q 340 44 246 44 z "},"r":{"ha":884,"x_min":150,"x_max":760,"o":"m 150 0 l 256 758 l 319 758 l 302 631 l 314 631 q 438 739 375 707 q 567 770 501 770 q 713 714 665 770 q 746 556 760 658 l 735 473 l 672 473 l 683 553 q 661 669 693 625 q 549 713 629 713 q 419 678 481 713 q 293 568 357 643 l 213 0 l 150 0 z "},"ŕ":{"ha":884,"x_min":150,"x_max":782,"o":"m 150 0 m 150 0 l 256 758 l 319 758 l 302 631 l 314 631 q 438 739 375 707 q 567 770 501 770 q 713 714 665 770 q 746 556 760 658 l 735 473 l 672 473 l 683 553 q 661 669 693 625 q 549 713 629 713 q 419 678 481 713 q 293 568 357 643 l 213 0 l 150 0 m 461 884 l 681 1136 l 782 1136 l 513 884 l 461 884 z "},"ŗ":{"ha":884,"x_min":-3,"x_max":760,"o":"m 0 0 m 150 0 l 256 758 l 319 758 l 302 631 l 314 631 q 438 739 375 707 q 567 770 501 770 q 713 714 665 770 q 746 556 760 658 l 735 473 l 672 473 l 683 553 q 661 669 693 625 q 549 713 629 713 q 419 678 481 713 q 293 568 357 643 l 213 0 l 150 0 m -3 -379 l 154 -126 l 255 -126 l 49 -379 l -3 -379 z "},"ř":{"ha":884,"x_min":150,"x_max":816,"o":"m 150 0 m 150 0 l 256 758 l 319 758 l 302 631 l 314 631 q 438 739 375 707 q 567 770 501 770 q 713 714 665 770 q 746 556 760 658 l 735 473 l 672 473 l 683 553 q 661 669 693 625 q 549 713 629 713 q 419 678 481 713 q 293 568 357 643 l 213 0 l 150 0 m 527 889 l 337 1101 l 367 1135 l 556 948 l 793 1135 l 816 1101 l 567 889 l 527 889 z "},"s":{"ha":884,"x_min":74,"x_max":717,"o":"m 393 -13 q 220 15 302 -13 q 74 100 138 43 l 115 152 q 244 71 172 98 q 400 44 317 44 q 556 83 496 44 q 625 191 616 122 q 590 290 635 258 q 410 348 545 323 q 211 424 268 375 q 165 559 154 473 q 254 712 179 654 q 437 770 328 770 q 589 741 519 770 q 717 662 659 712 l 679 612 q 564 685 628 657 q 428 713 501 713 q 292 676 345 713 q 230 572 239 638 q 263 465 220 499 q 442 408 307 431 q 643 334 586 383 q 688 198 701 285 q 594 45 676 104 q 393 -13 513 -13 z "},"":{"ha":884,"x_min":74,"x_max":717,"o":"m 393 -13 q 220 15 302 -13 q 74 100 138 43 l 115 152 q 244 71 172 98 q 400 44 317 44 q 556 83 496 44 q 625 191 616 122 q 590 290 635 258 q 410 348 545 323 q 211 424 268 375 q 165 559 154 473 q 254 712 179 654 q 437 770 328 770 q 589 741 519 770 q 717 662 659 712 l 679 612 q 564 685 628 657 q 428 713 501 713 q 292 676 345 713 q 230 572 239 638 q 263 465 220 499 q 442 408 307 431 q 643 334 586 383 q 688 198 701 285 q 594 45 676 104 q 393 -13 513 -13 z "},"ś":{"ha":884,"x_min":74,"x_max":729,"o":"m 74 0 m 393 -13 q 220 15 302 -13 q 74 100 138 43 l 115 152 q 244 71 172 98 q 400 44 317 44 q 556 83 496 44 q 625 191 616 122 q 590 290 635 258 q 410 348 545 323 q 211 424 268 375 q 165 559 154 473 q 254 712 179 654 q 437 770 328 770 q 589 741 519 770 q 717 662 659 712 l 679 612 q 564 685 628 657 q 428 713 501 713 q 292 676 345 713 q 230 572 239 638 q 263 465 220 499 q 442 408 307 431 q 643 334 586 383 q 688 198 701 285 q 594 45 676 104 q 393 -13 513 -13 m 408 884 l 628 1136 l 729 1136 l 460 884 l 408 884 z "},"ŝ":{"ha":884,"x_min":74,"x_max":740,"o":"m 74 0 m 393 -13 q 220 15 302 -13 q 74 100 138 43 l 115 152 q 244 71 172 98 q 400 44 317 44 q 556 83 496 44 q 625 191 616 122 q 590 290 635 258 q 410 348 545 323 q 211 424 268 375 q 165 559 154 473 q 254 712 179 654 q 437 770 328 770 q 589 741 519 770 q 717 662 659 712 l 679 612 q 564 685 628 657 q 428 713 501 713 q 292 676 345 713 q 230 572 239 638 q 263 465 220 499 q 442 408 307 431 q 643 334 586 383 q 688 198 701 285 q 594 45 676 104 q 393 -13 513 -13 m 283 912 l 261 946 l 510 1158 l 551 1158 l 740 946 l 708 912 l 521 1098 l 283 912 z "},"ş":{"ha":884,"x_min":74,"x_max":717,"o":"m 74 0 m 393 -13 q 220 15 302 -13 q 74 100 138 43 l 115 152 q 244 71 172 98 q 400 44 317 44 q 556 83 496 44 q 625 191 616 122 q 590 290 635 258 q 410 348 545 323 q 211 424 268 375 q 165 559 154 473 q 254 712 179 654 q 437 770 328 770 q 589 741 519 770 q 717 662 659 712 l 679 612 q 564 685 628 657 q 428 713 501 713 q 292 676 345 713 q 230 572 239 638 q 263 465 220 499 q 442 408 307 431 q 643 334 586 383 q 688 198 701 285 q 594 45 676 104 q 393 -13 513 -13 m 331 0 l 347 28 q 456 -27 422 14 q 482 -128 491 -67 q 422 -234 472 -196 q 290 -273 371 -273 q 177 -241 218 -273 q 141 -133 136 -208 l 203 -128 q 222 -199 201 -178 q 292 -220 242 -220 q 383 -198 355 -220 q 419 -124 412 -177 q 406 -45 427 -73 q 331 0 385 -16 z "},"š":{"ha":884,"x_min":74,"x_max":763,"o":"m 74 0 m 393 -13 q 220 15 302 -13 q 74 100 138 43 l 115 152 q 244 71 172 98 q 400 44 317 44 q 556 83 496 44 q 625 191 616 122 q 590 290 635 258 q 410 348 545 323 q 211 424 268 375 q 165 559 154 473 q 254 712 179 654 q 437 770 328 770 q 589 741 519 770 q 717 662 659 712 l 679 612 q 564 685 628 657 q 428 713 501 713 q 292 676 345 713 q 230 572 239 638 q 263 465 220 499 q 442 408 307 431 q 643 334 586 383 q 688 198 701 285 q 594 45 676 104 q 393 -13 513 -13 m 473 889 l 284 1101 l 314 1135 l 503 948 l 740 1135 l 763 1101 l 514 889 l 473 889 z "},"ș":{"ha":884,"x_min":74,"x_max":717,"o":"m 74 0 m 393 -13 q 220 15 302 -13 q 74 100 138 43 l 115 152 q 244 71 172 98 q 400 44 317 44 q 556 83 496 44 q 625 191 616 122 q 590 290 635 258 q 410 348 545 323 q 211 424 268 375 q 165 559 154 473 q 254 712 179 654 q 437 770 328 770 q 589 741 519 770 q 717 662 659 712 l 679 612 q 564 685 628 657 q 428 713 501 713 q 292 676 345 713 q 230 572 239 638 q 263 465 220 499 q 442 408 307 431 q 643 334 586 383 q 688 198 701 285 q 594 45 676 104 q 393 -13 513 -13 m 149 -379 l 306 -126 l 407 -126 l 201 -379 l 149 -379 z "},"t":{"ha":884,"x_min":148,"x_max":761,"o":"m 508 -11 q 336 54 393 -11 q 297 236 280 120 l 362 701 l 148 701 l 155 758 l 370 758 l 405 1010 l 468 1010 l 433 758 l 761 758 l 754 701 l 426 701 l 362 247 q 386 96 347 145 q 523 47 426 47 q 592 55 553 47 q 669 78 630 63 l 676 23 q 590 -3 633 6 q 508 -11 547 -11 z "},"ţ":{"ha":884,"x_min":148,"x_max":761,"o":"m 148 0 m 508 -11 q 336 54 393 -11 q 297 236 280 120 l 362 701 l 148 701 l 155 758 l 370 758 l 405 1010 l 468 1010 l 433 758 l 761 758 l 754 701 l 426 701 l 362 247 q 386 96 347 145 q 523 47 426 47 q 592 55 553 47 q 669 78 630 63 l 676 23 q 590 -3 633 6 q 508 -11 547 -11 m 415 0 l 432 28 q 541 -27 506 14 q 567 -128 576 -67 q 506 -234 557 -196 q 375 -273 456 -273 q 262 -241 303 -273 q 226 -133 221 -208 l 288 -128 q 306 -199 285 -178 q 376 -220 327 -220 q 468 -198 439 -220 q 504 -124 496 -177 q 491 -45 511 -73 q 415 0 470 -16 z "},"ť":{"ha":884,"x_min":148,"x_max":846,"o":"m 148 0 m 508 -11 q 336 54 393 -11 q 297 236 280 120 l 362 701 l 148 701 l 155 758 l 370 758 l 405 1010 l 468 1010 l 433 758 l 761 758 l 754 701 l 426 701 l 362 247 q 386 96 347 145 q 523 47 426 47 q 592 55 553 47 q 669 78 630 63 l 676 23 q 590 -3 633 6 q 508 -11 547 -11 m 616 953 l 761 1263 l 846 1263 l 669 953 l 616 953 z "},"ț":{"ha":884,"x_min":148,"x_max":761,"o":"m 148 0 m 508 -11 q 336 54 393 -11 q 297 236 280 120 l 362 701 l 148 701 l 155 758 l 370 758 l 405 1010 l 468 1010 l 433 758 l 761 758 l 754 701 l 426 701 l 362 247 q 386 96 347 145 q 523 47 426 47 q 592 55 553 47 q 669 78 630 63 l 676 23 q 590 -3 633 6 q 508 -11 547 -11 m 174 -379 l 331 -126 l 432 -126 l 226 -379 l 174 -379 z "},"u":{"ha":884,"x_min":105,"x_max":761,"o":"m 324 -13 q 160 58 216 -13 q 121 246 105 129 l 193 758 l 256 758 l 188 271 q 210 102 173 159 q 337 44 247 44 q 473 78 402 44 q 617 183 545 111 l 698 758 l 761 758 l 655 0 l 592 0 l 610 126 l 597 126 q 471 21 538 56 q 324 -13 404 -13 z "},"ù":{"ha":884,"x_min":105,"x_max":761,"o":"m 105 0 m 324 -13 q 160 58 216 -13 q 121 246 105 129 l 193 758 l 256 758 l 188 271 q 210 102 173 159 q 337 44 247 44 q 473 78 402 44 q 617 183 545 111 l 698 758 l 761 758 l 655 0 l 592 0 l 610 126 l 597 126 q 471 21 538 56 q 324 -13 404 -13 m 490 884 l 292 1136 l 393 1136 l 542 884 l 490 884 z "},"ú":{"ha":884,"x_min":105,"x_max":782,"o":"m 105 0 m 324 -13 q 160 58 216 -13 q 121 246 105 129 l 193 758 l 256 758 l 188 271 q 210 102 173 159 q 337 44 247 44 q 473 78 402 44 q 617 183 545 111 l 698 758 l 761 758 l 655 0 l 592 0 l 610 126 l 597 126 q 471 21 538 56 q 324 -13 404 -13 m 461 884 l 681 1136 l 782 1136 l 513 884 l 461 884 z "},"û":{"ha":884,"x_min":105,"x_max":761,"o":"m 105 0 m 324 -13 q 160 58 216 -13 q 121 246 105 129 l 193 758 l 256 758 l 188 271 q 210 102 173 159 q 337 44 247 44 q 473 78 402 44 q 617 183 545 111 l 698 758 l 761 758 l 655 0 l 592 0 l 610 126 l 597 126 q 471 21 538 56 q 324 -13 404 -13 m 285 912 l 264 946 l 513 1158 l 553 1158 l 742 946 l 711 912 l 524 1098 l 285 912 z "},"ü":{"ha":884,"x_min":105,"x_max":761,"o":"m 105 0 m 324 -13 q 160 58 216 -13 q 121 246 105 129 l 193 758 l 256 758 l 188 271 q 210 102 173 159 q 337 44 247 44 q 473 78 402 44 q 617 183 545 111 l 698 758 l 761 758 l 655 0 l 592 0 l 610 126 l 597 126 q 471 21 538 56 q 324 -13 404 -13 m 369 922 q 329 931 343 922 q 318 968 314 941 l 319 977 q 340 1016 323 1005 q 383 1027 357 1027 q 422 1016 408 1027 q 433 977 437 1005 l 432 968 q 410 931 428 941 q 369 922 393 922 m 634 922 q 594 931 609 922 q 583 968 580 941 l 585 977 q 605 1016 588 1005 q 648 1027 622 1027 q 688 1016 673 1027 q 698 977 702 1005 l 697 968 q 676 931 693 941 q 634 922 658 922 z "},"ũ":{"ha":884,"x_min":105,"x_max":764,"o":"m 105 0 m 324 -13 q 160 58 216 -13 q 121 246 105 129 l 193 758 l 256 758 l 188 271 q 210 102 173 159 q 337 44 247 44 q 473 78 402 44 q 617 183 545 111 l 698 758 l 761 758 l 655 0 l 592 0 l 610 126 l 597 126 q 471 21 538 56 q 324 -13 404 -13 m 607 896 q 539 921 566 896 q 486 1010 513 946 q 453 1080 468 1061 q 415 1098 437 1098 q 354 1056 376 1098 q 321 923 331 1014 l 318 909 l 265 909 l 268 928 q 323 1093 284 1038 q 423 1149 361 1149 q 491 1126 466 1149 q 539 1042 516 1104 q 578 967 562 987 q 614 947 593 947 q 674 989 650 947 q 710 1122 697 1032 l 711 1136 l 764 1136 l 761 1117 q 708 952 746 1008 q 607 896 669 896 z "},"ū":{"ha":884,"x_min":105,"x_max":761,"o":"m 105 0 m 324 -13 q 160 58 216 -13 q 121 246 105 129 l 193 758 l 256 758 l 188 271 q 210 102 173 159 q 337 44 247 44 q 473 78 402 44 q 617 183 545 111 l 698 758 l 761 758 l 655 0 l 592 0 l 610 126 l 597 126 q 471 21 538 56 q 324 -13 404 -13 m 289 985 l 297 1042 l 739 1042 l 731 985 l 289 985 z "},"ŭ":{"ha":884,"x_min":105,"x_max":787,"o":"m 105 0 m 324 -13 q 160 58 216 -13 q 121 246 105 129 l 193 758 l 256 758 l 188 271 q 210 102 173 159 q 337 44 247 44 q 473 78 402 44 q 617 183 545 111 l 698 758 l 761 758 l 655 0 l 592 0 l 610 126 l 597 126 q 471 21 538 56 q 324 -13 404 -13 m 494 875 q 315 943 370 875 q 277 1140 260 1011 l 340 1140 q 366 981 327 1030 q 503 932 404 932 q 653 981 601 932 q 723 1140 706 1030 l 787 1140 q 693 943 768 1011 q 494 875 617 875 z "},"ů":{"ha":884,"x_min":105,"x_max":761,"o":"m 105 0 m 324 -13 q 160 58 216 -13 q 121 246 105 129 l 193 758 l 256 758 l 188 271 q 210 102 173 159 q 337 44 247 44 q 473 78 402 44 q 617 183 545 111 l 698 758 l 761 758 l 655 0 l 592 0 l 610 126 l 597 126 q 471 21 538 56 q 324 -13 404 -13 m 492 865 q 368 912 407 865 q 342 1048 330 958 l 347 1088 q 412 1227 360 1179 q 551 1275 465 1275 q 675 1227 636 1275 q 701 1088 713 1179 l 696 1048 q 631 912 683 958 q 492 865 578 865 m 500 917 q 593 948 562 917 q 635 1048 625 980 l 640 1088 q 628 1191 650 1159 q 543 1223 605 1223 q 449 1191 481 1223 q 408 1088 418 1159 l 403 1048 q 415 948 393 980 q 500 917 438 917 z "},"ű":{"ha":884,"x_min":105,"x_max":811,"o":"m 105 0 m 324 -13 q 160 58 216 -13 q 121 246 105 129 l 193 758 l 256 758 l 188 271 q 210 102 173 159 q 337 44 247 44 q 473 78 402 44 q 617 183 545 111 l 698 758 l 761 758 l 655 0 l 592 0 l 610 126 l 597 126 q 471 21 538 56 q 324 -13 404 -13 m 591 884 l 697 1136 l 811 1136 l 643 884 l 591 884 m 351 884 l 457 1136 l 571 1136 l 403 884 l 351 884 z "},"ų":{"ha":884,"x_min":105,"x_max":761,"o":"m 105 0 m 324 -13 q 160 58 216 -13 q 121 246 105 129 l 193 758 l 256 758 l 188 271 q 210 102 173 159 q 337 44 247 44 q 473 78 402 44 q 617 183 545 111 l 698 758 l 761 758 l 655 0 l 592 0 l 610 126 l 597 126 q 471 21 538 56 q 324 -13 404 -13 m 630 -271 q 515 -234 556 -271 q 484 -134 475 -196 q 538 -32 491 -80 q 658 43 585 15 l 670 29 q 585 -38 615 -3 q 549 -117 556 -73 q 564 -191 542 -168 q 645 -215 587 -215 q 694 -212 672 -215 q 740 -205 716 -210 l 732 -261 q 679 -269 707 -266 q 630 -271 652 -271 z "},"v":{"ha":884,"x_min":160,"x_max":793,"o":"m 405 0 l 336 0 l 160 758 l 226 758 l 381 59 l 731 758 l 793 758 l 405 0 z "},"w":{"ha":884,"x_min":97,"x_max":857,"o":"m 520 0 l 446 542 l 227 0 l 159 0 l 97 758 l 162 758 l 208 90 l 420 631 l 494 631 l 566 105 l 793 758 l 857 758 l 583 0 l 520 0 z "},"":{"ha":884,"x_min":97,"x_max":857,"o":"m 520 0 l 446 542 l 227 0 l 159 0 l 97 758 l 162 758 l 208 90 l 420 631 l 494 631 l 566 105 l 793 758 l 857 758 l 583 0 l 520 0 z "},"ŵ":{"ha":884,"x_min":97,"x_max":857,"o":"m 97 0 m 520 0 l 446 542 l 227 0 l 159 0 l 97 758 l 162 758 l 208 90 l 420 631 l 494 631 l 566 105 l 793 758 l 857 758 l 583 0 l 520 0 m 285 912 l 264 946 l 513 1158 l 553 1158 l 742 946 l 711 912 l 524 1098 l 285 912 z "},"ẁ":{"ha":884,"x_min":97,"x_max":857,"o":"m 97 0 m 520 0 l 446 542 l 227 0 l 159 0 l 97 758 l 162 758 l 208 90 l 420 631 l 494 631 l 566 105 l 793 758 l 857 758 l 583 0 l 520 0 m 528 884 l 330 1136 l 431 1136 l 580 884 l 528 884 z "},"ẃ":{"ha":884,"x_min":97,"x_max":857,"o":"m 97 0 m 520 0 l 446 542 l 227 0 l 159 0 l 97 758 l 162 758 l 208 90 l 420 631 l 494 631 l 566 105 l 793 758 l 857 758 l 583 0 l 520 0 m 410 884 l 630 1136 l 731 1136 l 462 884 l 410 884 z "},"ẅ":{"ha":884,"x_min":97,"x_max":857,"o":"m 97 0 m 520 0 l 446 542 l 227 0 l 159 0 l 97 758 l 162 758 l 208 90 l 420 631 l 494 631 l 566 105 l 793 758 l 857 758 l 583 0 l 520 0 m 369 922 q 329 931 343 922 q 318 968 314 941 l 319 977 q 340 1016 323 1005 q 383 1027 357 1027 q 422 1016 408 1027 q 433 977 437 1005 l 432 968 q 410 931 428 941 q 369 922 393 922 m 634 922 q 594 931 609 922 q 583 968 580 941 l 585 977 q 605 1016 588 1005 q 648 1027 622 1027 q 688 1016 673 1027 q 698 977 702 1005 l 697 968 q 676 931 693 941 q 634 922 658 922 z "},"x":{"ha":884,"x_min":71,"x_max":778,"o":"m 596 0 l 413 338 l 138 0 l 71 0 l 385 388 l 186 758 l 256 758 l 436 428 l 711 758 l 778 758 l 462 380 l 667 0 l 596 0 z "},"y":{"ha":884,"x_min":24,"x_max":793,"o":"m 112 -260 q 73 -258 93 -260 q 24 -251 52 -256 l 40 -194 q 84 -202 64 -199 q 133 -205 104 -205 q 240 -170 197 -205 q 332 -42 283 -136 l 355 0 l 340 0 l 160 758 l 226 758 l 386 63 l 730 758 l 793 758 l 384 -57 q 266 -213 328 -167 q 112 -260 203 -260 z "},"":{"ha":884,"x_min":24,"x_max":793,"o":"m 112 -260 q 73 -258 93 -260 q 24 -251 52 -256 l 40 -194 q 84 -202 64 -199 q 133 -205 104 -205 q 240 -170 197 -205 q 332 -42 283 -136 l 355 0 l 340 0 l 160 758 l 226 758 l 386 63 l 730 758 l 793 758 l 384 -57 q 266 -213 328 -167 q 112 -260 203 -260 z "},"ý":{"ha":884,"x_min":24,"x_max":793,"o":"m 24 0 m 112 -260 q 73 -258 93 -260 q 24 -251 52 -256 l 40 -194 q 84 -202 64 -199 q 133 -205 104 -205 q 240 -170 197 -205 q 332 -42 283 -136 l 355 0 l 340 0 l 160 758 l 226 758 l 386 63 l 730 758 l 793 758 l 384 -57 q 266 -213 328 -167 q 112 -260 203 -260 m 410 884 l 630 1136 l 731 1136 l 462 884 l 410 884 z "},"ÿ":{"ha":884,"x_min":24,"x_max":793,"o":"m 24 0 m 112 -260 q 73 -258 93 -260 q 24 -251 52 -256 l 40 -194 q 84 -202 64 -199 q 133 -205 104 -205 q 240 -170 197 -205 q 332 -42 283 -136 l 355 0 l 340 0 l 160 758 l 226 758 l 386 63 l 730 758 l 793 758 l 384 -57 q 266 -213 328 -167 q 112 -260 203 -260 m 369 922 q 329 931 343 922 q 318 968 314 941 l 319 977 q 340 1016 323 1005 q 383 1027 357 1027 q 422 1016 408 1027 q 433 977 437 1005 l 432 968 q 410 931 428 941 q 369 922 393 922 m 634 922 q 594 931 609 922 q 583 968 580 941 l 585 977 q 605 1016 588 1005 q 648 1027 622 1027 q 688 1016 673 1027 q 698 977 702 1005 l 697 968 q 676 931 693 941 q 634 922 658 922 z "},"ŷ":{"ha":884,"x_min":24,"x_max":793,"o":"m 24 0 m 112 -260 q 73 -258 93 -260 q 24 -251 52 -256 l 40 -194 q 84 -202 64 -199 q 133 -205 104 -205 q 240 -170 197 -205 q 332 -42 283 -136 l 355 0 l 340 0 l 160 758 l 226 758 l 386 63 l 730 758 l 793 758 l 384 -57 q 266 -213 328 -167 q 112 -260 203 -260 m 285 912 l 264 946 l 513 1158 l 553 1158 l 742 946 l 711 912 l 524 1098 l 285 912 z "},"ỳ":{"ha":884,"x_min":24,"x_max":793,"o":"m 24 0 m 112 -260 q 73 -258 93 -260 q 24 -251 52 -256 l 40 -194 q 84 -202 64 -199 q 133 -205 104 -205 q 240 -170 197 -205 q 332 -42 283 -136 l 355 0 l 340 0 l 160 758 l 226 758 l 386 63 l 730 758 l 793 758 l 384 -57 q 266 -213 328 -167 q 112 -260 203 -260 m 528 884 l 330 1136 l 431 1136 l 580 884 l 528 884 z "},"z":{"ha":884,"x_min":112,"x_max":736,"o":"m 630 0 l 112 0 l 120 57 l 657 701 l 211 701 l 218 758 l 736 758 l 729 701 l 189 57 l 638 57 l 630 0 z "},"ź":{"ha":884,"x_min":112,"x_max":736,"o":"m 112 0 m 630 0 l 112 0 l 120 57 l 657 701 l 211 701 l 218 758 l 736 758 l 729 701 l 189 57 l 638 57 l 630 0 m 410 884 l 630 1136 l 731 1136 l 462 884 l 410 884 z "},"ż":{"ha":884,"x_min":112,"x_max":736,"o":"m 112 0 m 630 0 l 112 0 l 120 57 l 657 701 l 211 701 l 218 758 l 736 758 l 729 701 l 189 57 l 638 57 l 630 0 m 501 922 q 457 932 473 922 q 444 968 441 942 l 446 977 q 468 1016 449 1005 q 515 1027 487 1027 q 559 1016 543 1027 q 572 977 576 1005 l 571 968 q 548 932 567 942 q 501 922 529 922 z "},"ž":{"ha":884,"x_min":112,"x_max":765,"o":"m 112 0 m 630 0 l 112 0 l 120 57 l 657 701 l 211 701 l 218 758 l 736 758 l 729 701 l 189 57 l 638 57 l 630 0 m 476 889 l 287 1101 l 317 1135 l 505 948 l 742 1135 l 765 1101 l 516 889 l 476 889 z "},"ª":{"ha":884,"x_min":164,"x_max":729,"o":"m 360 458 q 477 480 427 458 q 561 538 528 503 l 580 677 l 381 677 q 277 653 312 677 q 235 580 241 630 q 256 488 226 518 q 360 458 287 458 m 340 405 q 208 450 253 405 q 176 573 164 495 q 239 682 186 643 q 356 722 292 722 l 586 722 l 598 812 q 574 929 610 888 q 460 970 538 970 q 352 947 388 970 q 287 859 317 924 l 239 876 q 324 987 268 952 q 472 1023 381 1023 q 622 971 573 1023 q 658 824 670 919 l 620 561 q 635 483 612 501 q 729 473 658 465 l 720 412 q 609 427 640 405 q 585 509 578 449 l 576 509 q 474 434 533 462 q 340 405 415 405 z "},"º":{"ha":884,"x_min":197,"x_max":745,"o":"m 428 405 q 253 466 308 405 q 212 639 197 527 l 232 783 q 322 961 249 899 q 515 1023 395 1023 q 690 961 635 1023 q 729 783 745 899 l 708 639 q 621 466 693 527 q 428 405 548 405 m 436 462 q 581 505 530 462 q 645 639 633 548 l 665 783 q 641 922 679 878 q 508 966 602 966 q 360 922 412 966 q 295 783 309 878 l 275 639 q 301 505 263 548 q 436 462 340 462 z "},"ß":{"ha":884,"x_min":-11,"x_max":797,"o":"m 518 -8 q 384 18 446 -8 q 284 90 323 43 l 322 139 q 413 72 364 95 q 524 49 462 49 q 661 85 611 49 q 721 191 711 121 q 696 289 730 255 q 561 346 662 322 q 386 421 434 375 q 348 548 337 467 q 444 682 360 631 q 649 737 529 732 q 616 907 665 850 q 449 963 566 963 q 270 900 336 963 q 187 711 205 837 l 52 -253 l -11 -253 l 126 727 q 235 942 145 864 q 460 1020 324 1020 q 664 945 596 1020 q 712 739 731 870 l 705 686 q 492 653 563 686 q 410 551 420 620 q 441 460 403 491 q 588 403 479 428 q 752 328 707 375 q 785 193 797 280 q 699 47 771 101 q 518 -8 628 -8 z "},"æ":{"ha":884,"x_min":6,"x_max":841,"o":"m 765 155 q 686 29 736 71 q 548 -13 636 -13 q 448 18 486 -13 q 394 101 409 48 l 386 101 q 290 20 343 52 q 176 -13 236 -13 q 48 44 90 -13 q 21 203 6 101 q 86 344 33 290 q 215 398 140 398 l 402 398 l 419 525 q 405 663 432 612 q 308 713 379 713 q 213 686 245 713 q 153 592 182 659 l 101 610 q 181 728 126 686 q 314 770 235 770 q 423 738 379 770 q 472 648 467 706 q 551 737 499 703 q 658 770 602 770 q 795 708 749 770 q 822 514 841 645 l 802 372 l 461 372 l 442 230 q 456 88 428 131 q 554 44 484 44 q 653 71 621 44 q 712 169 686 97 l 765 155 m 482 523 l 468 426 l 746 426 l 759 511 q 746 665 774 617 q 648 713 717 713 q 538 667 580 713 q 482 523 496 620 m 364 129 l 395 347 l 244 347 q 135 313 176 347 q 85 211 95 278 q 99 81 73 124 q 191 39 125 39 q 284 64 240 39 q 364 129 328 90 z "},"ǽ":{"ha":884,"x_min":6,"x_max":841,"o":"m 6 0 m 765 155 q 686 29 736 71 q 548 -13 636 -13 q 448 18 486 -13 q 394 101 409 48 l 386 101 q 290 20 343 52 q 176 -13 236 -13 q 48 44 90 -13 q 21 203 6 101 q 86 344 33 290 q 215 398 140 398 l 402 398 l 419 525 q 405 663 432 612 q 308 713 379 713 q 213 686 245 713 q 153 592 182 659 l 101 610 q 181 728 126 686 q 314 770 235 770 q 423 738 379 770 q 472 648 467 706 q 551 737 499 703 q 658 770 602 770 q 795 708 749 770 q 822 514 841 645 l 802 372 l 461 372 l 442 230 q 456 88 428 131 q 554 44 484 44 q 653 71 621 44 q 712 169 686 97 l 765 155 m 482 523 l 468 426 l 746 426 l 759 511 q 746 665 774 617 q 648 713 717 713 q 538 667 580 713 q 482 523 496 620 m 364 129 l 395 347 l 244 347 q 135 313 176 347 q 85 211 95 278 q 99 81 73 124 q 191 39 125 39 q 284 64 240 39 q 364 129 328 90 m 475 884 l 694 1136 l 795 1136 l 527 884 l 475 884 z "},"ð":{"ha":884,"x_min":106,"x_max":855,"o":"m 370 -13 q 174 59 242 -13 q 126 278 106 131 l 139 369 q 244 561 157 490 q 457 631 332 631 q 598 600 545 631 q 667 525 652 568 l 677 525 q 670 689 684 615 q 615 822 655 764 l 378 720 l 385 770 l 587 857 q 487 934 547 902 q 346 989 427 967 l 371 1037 q 528 973 461 1013 q 640 880 596 934 l 855 972 l 848 922 l 667 843 q 725 683 711 775 q 722 476 739 591 l 696 285 q 585 59 673 130 q 370 -13 497 -13 m 379 44 q 554 99 494 44 q 631 275 614 154 l 641 355 q 613 521 658 468 q 453 573 568 573 q 278 521 338 573 q 202 355 218 468 l 192 275 q 219 99 174 154 q 379 44 264 44 z "},"ø":{"ha":884,"x_min":92,"x_max":758,"o":"m 188 274 q 188 170 181 213 q 217 100 194 128 l 593 687 q 540 706 571 699 q 471 713 509 713 q 298 657 361 713 q 217 479 235 600 l 188 274 m 378 44 q 551 98 487 44 q 630 274 614 152 l 659 479 q 661 582 668 538 q 631 655 654 626 l 256 68 q 309 50 278 56 q 378 44 340 44 m 370 -13 q 289 -5 327 -13 q 222 18 251 3 l 150 -95 l 92 -95 l 183 45 q 130 138 145 81 q 125 274 115 194 l 154 479 q 263 698 176 626 q 481 770 350 770 q 561 763 524 770 q 626 740 597 755 l 699 852 l 758 852 l 667 711 q 719 617 705 676 q 722 479 734 558 l 693 274 q 587 57 673 128 q 370 -13 501 -13 z "},"ǿ":{"ha":884,"x_min":92,"x_max":758,"o":"m 92 0 m 188 274 q 188 170 181 213 q 217 100 194 128 l 593 687 q 540 706 571 699 q 471 713 509 713 q 298 657 361 713 q 217 479 235 600 l 188 274 m 378 44 q 551 98 487 44 q 630 274 614 152 l 659 479 q 661 582 668 538 q 631 655 654 626 l 256 68 q 309 50 278 56 q 378 44 340 44 m 370 -13 q 289 -5 327 -13 q 222 18 251 3 l 150 -95 l 92 -95 l 183 45 q 130 138 145 81 q 125 274 115 194 l 154 479 q 263 698 176 626 q 481 770 350 770 q 561 763 524 770 q 626 740 597 755 l 699 852 l 758 852 l 667 711 q 719 617 705 676 q 722 479 734 558 l 693 274 q 587 57 673 128 q 370 -13 501 -13 m 410 884 l 630 1136 l 731 1136 l 462 884 l 410 884 z "},"þ":{"ha":884,"x_min":52,"x_max":742,"o":"m 366 42 q 550 100 485 42 q 631 279 615 158 l 660 484 q 640 657 677 601 q 509 713 602 713 q 367 680 434 713 q 231 574 299 646 l 164 102 q 261 57 211 73 q 366 42 311 42 m 360 -13 q 261 0 317 -13 q 155 35 206 13 l 115 -253 l 52 -253 l 229 1010 l 292 1010 l 239 631 l 251 631 q 368 735 294 699 q 524 770 442 770 q 689 694 636 770 q 723 482 742 617 l 694 277 q 586 64 676 141 q 360 -13 497 -13 z "},"đ":{"ha":884,"x_min":105,"x_max":905,"o":"m 340 44 q 482 78 415 44 q 617 183 549 111 l 676 592 q 577 638 625 624 q 475 653 529 653 q 290 602 354 653 q 212 441 227 551 l 186 250 q 208 94 170 144 q 340 44 245 44 m 596 114 q 477 20 543 52 q 319 -13 410 -13 q 155 55 206 -13 q 122 250 105 122 l 149 443 q 253 639 168 571 q 481 707 338 707 q 585 694 532 707 q 684 657 639 681 l 707 819 l 455 819 l 463 876 l 716 876 l 734 1010 l 797 1010 l 779 876 l 905 876 l 896 819 l 770 819 l 655 0 l 592 0 l 609 114 l 596 114 z "},"ħ":{"ha":884,"x_min":76,"x_max":737,"o":"m 221 505 l 150 0 l 87 0 l 202 819 l 76 819 l 85 876 l 211 876 l 229 1010 l 292 1010 l 274 876 l 527 876 l 518 819 l 265 819 l 230 568 l 242 568 q 370 674 303 640 q 516 707 437 707 q 677 643 617 707 q 720 462 737 580 l 655 0 l 592 0 l 655 448 q 626 600 669 551 q 503 650 582 650 q 363 616 431 650 q 221 505 295 581 z "},"ı":{"ha":884,"x_min":87,"x_max":663,"o":"m 87 0 l 95 57 l 347 57 l 438 701 l 186 701 l 193 758 l 509 758 l 410 57 l 663 57 l 655 0 l 87 0 z "},"ĳ":{"ha":884,"x_min":112,"x_max":822,"o":"m 274 922 q 230 932 246 922 q 217 968 213 942 l 218 977 q 241 1016 222 1005 q 288 1027 260 1027 q 332 1016 316 1027 q 345 977 348 1005 l 343 968 q 321 932 340 942 q 274 922 302 922 m 747 922 q 703 932 720 922 q 691 968 687 942 l 692 977 q 715 1016 696 1005 q 761 1027 734 1027 q 806 1016 789 1027 q 818 977 822 1005 l 817 968 q 794 932 813 942 q 747 922 775 922 m 176 0 l 112 0 l 218 758 l 282 758 l 176 0 m 396 -263 q 325 -256 361 -263 q 258 -237 289 -250 l 279 -181 q 342 -200 311 -196 q 400 -205 372 -205 q 531 -153 482 -205 q 593 3 580 -101 l 692 701 l 527 701 l 534 758 l 763 758 l 655 -8 q 571 -196 639 -129 q 396 -263 503 -263 z "},"ĸ":{"ha":884,"x_min":150,"x_max":780,"o":"m 150 0 m 265 370 l 213 0 l 150 0 l 256 758 l 319 758 l 274 427 l 402 427 l 705 758 l 780 758 l 451 404 l 670 0 l 598 0 l 395 370 l 265 370 z "},"ŀ":{"ha":884,"x_min":87,"x_max":980,"o":"m 87 0 m 87 0 l 95 57 l 347 57 l 473 953 l 221 953 l 229 1010 l 544 1010 l 410 57 l 663 57 l 655 0 l 87 0 m 905 417 q 861 427 878 417 q 848 463 845 437 l 850 472 q 872 511 854 500 q 919 521 891 521 q 963 511 947 521 q 976 472 980 500 l 975 463 q 952 427 971 437 q 905 417 933 417 z "},"ł":{"ha":884,"x_min":87,"x_max":710,"o":"m 177 417 l 186 473 l 710 612 l 702 556 l 177 417 m 87 0 l 95 57 l 347 57 l 473 953 l 221 953 l 229 1010 l 544 1010 l 410 57 l 663 57 l 655 0 l 87 0 z "},"ŉ":{"ha":884,"x_min":87,"x_max":745,"o":"m 87 0 m 87 0 l 193 758 l 256 758 l 239 631 l 251 631 q 371 733 295 696 q 525 770 446 770 q 690 704 635 770 q 729 524 745 638 l 655 0 l 592 0 l 664 511 q 638 661 678 610 q 511 712 598 712 q 369 677 439 712 q 231 574 299 643 l 150 0 l 87 0 m 95 884 l 314 1136 l 415 1136 l 146 884 l 95 884 z "},"ŋ":{"ha":884,"x_min":87,"x_max":744,"o":"m 394 -263 q 333 -257 365 -263 q 269 -241 302 -251 l 293 -183 q 353 -200 323 -196 q 409 -205 383 -205 q 528 -154 480 -205 q 593 9 577 -104 l 664 510 q 638 661 678 609 q 511 713 598 713 q 369 680 436 713 q 231 574 302 646 l 150 0 l 87 0 l 193 758 l 256 758 l 239 631 l 251 631 q 370 735 297 699 q 535 770 443 770 q 693 701 641 770 q 727 511 744 633 l 654 -8 q 564 -200 636 -138 q 394 -263 492 -263 z "},"œ":{"ha":884,"x_min":11,"x_max":837,"o":"m 764 150 q 671 29 725 71 q 542 -13 617 -13 q 436 23 480 -13 q 389 124 393 59 q 307 23 361 59 q 193 -13 254 -13 q 53 61 95 -13 q 30 274 11 135 l 59 479 q 143 696 80 621 q 304 770 206 770 q 410 737 366 770 q 462 641 455 703 q 543 736 491 702 q 652 770 595 770 q 795 693 753 770 q 816 470 837 616 l 802 372 l 455 372 l 441 274 q 451 98 424 153 q 548 44 477 44 q 640 73 606 44 q 711 169 674 101 l 764 150 m 470 479 l 462 426 l 746 426 l 753 467 q 742 653 770 595 q 641 712 713 712 q 530 655 572 712 q 470 479 487 598 m 201 44 q 317 98 273 44 q 378 274 361 152 l 407 479 q 395 657 424 600 q 294 713 366 713 q 182 657 225 713 q 122 479 140 600 l 93 274 q 104 98 77 152 q 201 44 131 44 z "},"ŧ":{"ha":884,"x_min":104,"x_max":761,"o":"m 104 385 l 111 442 l 711 442 l 703 385 l 104 385 m 508 -11 q 336 54 393 -11 q 297 236 280 120 l 362 701 l 148 701 l 155 758 l 370 758 l 405 1010 l 468 1010 l 433 758 l 761 758 l 754 701 l 426 701 l 362 247 q 386 96 347 145 q 523 47 426 47 q 592 55 553 47 q 669 78 630 63 l 676 23 q 590 -3 633 6 q 508 -11 547 -11 z "},"ſ":{"ha":884,"x_min":287,"x_max":794,"o":"m 304 -253 l 438 701 l 287 701 l 294 758 l 446 758 l 453 808 q 527 967 467 910 q 663 1023 587 1023 q 733 1015 698 1023 q 794 995 768 1008 l 774 941 q 718 958 749 951 q 654 966 687 966 q 564 929 601 966 q 516 809 528 893 l 367 -253 l 304 -253 z "},"ȷ":{"ha":884,"x_min":54,"x_max":635,"o":"m 231 -263 q 140 -255 187 -263 q 54 -236 93 -247 l 76 -178 q 157 -198 116 -192 q 235 -205 198 -205 q 396 -147 338 -205 q 470 28 453 -90 l 564 701 l 211 701 l 218 758 l 635 758 l 532 18 q 434 -189 513 -116 q 231 -263 356 -263 z "},"":{"ha":884,"x_min":54,"x_max":635,"o":"m 231 -263 q 140 -255 187 -263 q 54 -236 93 -247 l 76 -178 q 157 -198 116 -192 q 235 -205 198 -205 q 396 -147 338 -205 q 470 28 453 -90 l 564 701 l 211 701 l 218 758 l 635 758 l 532 18 q 434 -189 513 -116 q 231 -263 356 -263 z "},"α":{"ha":884,"x_min":95,"x_max":764,"o":"m 327 45 q 454 80 391 45 q 580 183 516 115 l 635 574 q 538 677 591 643 q 420 712 485 712 q 277 652 330 712 q 206 470 223 591 l 181 288 q 200 106 164 167 q 327 45 236 45 m 593 139 l 581 139 q 460 27 524 66 q 313 -13 396 -13 q 148 64 202 -13 q 114 275 95 140 l 143 482 q 237 694 162 617 q 423 770 312 770 q 543 733 489 770 q 630 631 597 696 l 643 631 l 660 758 l 723 758 l 645 202 q 657 72 631 102 q 764 56 683 42 l 756 -4 q 626 18 664 -15 q 593 139 588 52 z "},"ά":{"ha":884,"x_min":95,"x_max":764,"o":"m 95 0 m 327 45 q 454 80 391 45 q 580 183 516 115 l 635 574 q 538 677 591 643 q 420 712 485 712 q 277 652 330 712 q 206 470 223 591 l 181 288 q 200 106 164 167 q 327 45 236 45 m 593 139 l 581 139 q 460 27 524 66 q 313 -13 396 -13 q 148 64 202 -13 q 114 275 95 140 l 143 482 q 237 694 162 617 q 423 770 312 770 q 543 733 489 770 q 630 631 597 696 l 643 631 l 660 758 l 723 758 l 645 202 q 657 72 631 102 q 764 56 683 42 l 756 -4 q 626 18 664 -15 q 593 139 588 52 m 490 884 l 634 1136 l 735 1136 l 542 884 l 490 884 z "},"β":{"ha":884,"x_min":52,"x_max":740,"o":"m 366 42 q 548 95 485 42 q 628 266 611 149 l 635 319 q 603 467 649 420 q 443 514 557 514 l 379 514 l 386 568 l 443 568 q 594 610 542 568 q 658 741 646 652 l 662 764 q 638 917 677 869 q 500 966 598 966 q 330 908 390 966 q 253 727 270 851 l 163 92 q 254 54 205 66 q 366 42 303 42 m 360 -13 q 251 -2 306 -13 q 154 29 196 9 l 115 -253 l 52 -253 l 189 723 q 294 943 208 864 q 508 1023 379 1023 q 682 957 625 1023 q 723 774 740 891 l 718 741 q 662 613 708 664 q 542 549 615 562 l 540 538 q 671 470 629 529 q 701 319 713 412 l 692 264 q 586 61 674 135 q 360 -13 497 -13 z "},"γ":{"ha":884,"x_min":160,"x_max":793,"o":"m 370 -253 l 302 -253 l 345 15 l 160 758 l 230 758 l 385 95 l 718 758 l 793 758 l 403 15 l 370 -253 z "},"δ":{"ha":884,"x_min":106,"x_max":726,"o":"m 370 -13 q 169 61 231 -13 q 125 274 106 135 l 141 390 q 210 531 153 470 q 367 634 268 592 q 259 715 290 667 q 239 833 229 764 q 314 965 250 920 q 484 1010 379 1010 l 711 1010 l 703 953 l 476 953 q 355 925 400 953 q 302 836 311 896 q 330 730 292 768 q 484 655 367 693 q 679 554 631 606 q 712 403 726 503 l 693 274 q 592 61 674 135 q 370 -13 509 -13 m 378 44 q 554 98 495 44 q 630 274 614 153 l 649 403 q 616 526 660 486 q 414 614 572 566 q 269 519 322 574 q 205 390 216 463 l 188 274 q 216 98 172 153 q 378 44 260 44 z "},"ε":{"ha":884,"x_min":77,"x_max":736,"o":"m 375 -13 q 145 42 213 -13 q 92 211 77 96 l 95 223 q 153 350 105 295 q 287 409 202 404 l 287 414 q 189 458 222 418 q 165 566 155 497 l 168 583 q 256 725 182 679 q 472 770 330 770 q 674 722 612 770 q 731 571 736 674 l 668 564 q 623 680 669 646 q 463 713 577 713 q 294 682 346 713 q 230 576 241 652 l 227 558 q 264 467 218 494 q 428 439 309 439 l 499 439 l 491 386 l 420 386 q 226 355 280 386 q 159 236 172 323 l 158 223 q 195 85 144 125 q 383 44 246 44 q 558 81 500 44 q 640 207 616 117 l 701 201 q 598 39 677 91 q 375 -13 520 -13 z "},"έ":{"ha":884,"x_min":77,"x_max":736,"o":"m 77 0 m 375 -13 q 145 42 213 -13 q 92 211 77 96 l 95 223 q 153 350 105 295 q 287 409 202 404 l 287 414 q 189 458 222 418 q 165 566 155 497 l 168 583 q 256 725 182 679 q 472 770 330 770 q 674 722 612 770 q 731 571 736 674 l 668 564 q 623 680 669 646 q 463 713 577 713 q 294 682 346 713 q 230 576 241 652 l 227 558 q 264 467 218 494 q 428 439 309 439 l 499 439 l 491 386 l 420 386 q 226 355 280 386 q 159 236 172 323 l 158 223 q 195 85 144 125 q 383 44 246 44 q 558 81 500 44 q 640 207 616 117 l 701 201 q 598 39 677 91 q 375 -13 520 -13 m 427 884 l 571 1136 l 672 1136 l 479 884 l 427 884 z "},"ζ":{"ha":884,"x_min":109,"x_max":816,"o":"m 434 -253 l 304 -253 l 312 -196 l 438 -196 q 543 -165 506 -196 q 588 -69 580 -134 q 569 26 597 -5 q 473 57 542 57 l 366 57 q 172 126 235 57 q 126 319 109 196 q 170 453 135 390 q 277 591 205 516 l 520 850 l 518 859 q 301 890 384 846 q 208 1020 218 933 l 265 1034 q 366 920 271 952 q 591 926 461 889 l 799 1021 l 816 951 l 604 875 l 313 557 q 224 439 249 485 q 189 326 199 394 q 224 170 176 226 q 375 114 273 114 l 481 114 q 614 65 571 114 q 645 -69 658 16 q 578 -204 634 -155 q 434 -253 521 -253 z "},"η":{"ha":884,"x_min":87,"x_max":745,"o":"m 557 -253 l 664 511 q 638 661 678 610 q 511 712 598 712 q 369 677 439 712 q 231 574 299 643 l 150 0 l 87 0 l 193 758 l 256 758 l 239 631 l 251 631 q 371 733 295 696 q 525 770 446 770 q 690 704 635 770 q 729 524 745 638 l 620 -253 l 557 -253 z "},"ή":{"ha":884,"x_min":87,"x_max":745,"o":"m 87 0 m 557 -253 l 664 511 q 638 661 678 610 q 511 712 598 712 q 369 677 439 712 q 231 574 299 643 l 150 0 l 87 0 l 193 758 l 256 758 l 239 631 l 251 631 q 371 733 295 696 q 525 770 446 770 q 690 704 635 770 q 729 524 745 638 l 620 -253 l 557 -253 m 427 884 l 571 1136 l 672 1136 l 479 884 l 427 884 z "},"θ":{"ha":884,"x_min":106,"x_max":778,"o":"m 370 -13 q 170 62 234 -13 q 125 274 106 136 l 189 731 q 294 947 210 871 q 516 1023 379 1023 q 715 947 652 1023 q 758 731 778 871 l 693 274 q 590 62 674 136 q 370 -13 506 -13 m 253 731 l 226 543 l 668 543 l 694 731 q 665 908 712 850 q 508 966 619 966 q 333 908 396 966 q 253 731 270 850 m 378 44 q 552 101 489 44 q 630 274 615 158 l 660 486 l 218 486 l 188 274 q 220 101 173 158 q 378 44 266 44 z "},"ι":{"ha":884,"x_min":160,"x_max":681,"o":"m 160 0 m 527 -6 q 398 61 438 -6 q 374 245 357 128 l 438 701 l 160 701 l 168 758 l 509 758 l 437 244 q 448 100 424 149 q 535 52 472 52 q 605 60 567 52 q 672 81 643 68 l 681 25 q 610 3 649 13 q 527 -6 571 -6 z "},"ΐ":{"ha":884,"x_min":160,"x_max":763,"o":"m 160 0 m 527 -6 q 398 61 438 -6 q 374 245 357 128 l 438 701 l 160 701 l 168 758 l 509 758 l 437 244 q 448 100 424 149 q 535 52 472 52 q 605 60 567 52 q 672 81 643 68 l 681 25 q 610 3 649 13 q 527 -6 571 -6 m 414 884 l 533 1136 l 609 1136 l 466 884 l 414 884 m 265 909 q 234 919 245 909 q 227 956 223 928 l 229 965 q 246 1003 232 992 q 280 1014 260 1014 q 311 1003 301 1014 q 317 965 321 992 l 316 956 q 298 919 312 928 q 265 909 284 909 m 707 909 q 676 919 687 909 q 669 956 665 928 l 670 965 q 688 1003 674 992 q 722 1014 702 1014 q 753 1003 742 1014 q 759 965 763 992 l 758 956 q 740 919 754 928 q 707 909 726 909 z "},"ί":{"ha":884,"x_min":160,"x_max":681,"o":"m 160 0 m 527 -6 q 398 61 438 -6 q 374 245 357 128 l 438 701 l 160 701 l 168 758 l 509 758 l 437 244 q 448 100 424 149 q 535 52 472 52 q 605 60 567 52 q 672 81 643 68 l 681 25 q 610 3 649 13 q 527 -6 571 -6 m 420 884 l 564 1136 l 665 1136 l 472 884 l 420 884 z "},"ϊ":{"ha":884,"x_min":160,"x_max":696,"o":"m 160 0 m 527 -6 q 398 61 438 -6 q 374 245 357 128 l 438 701 l 160 701 l 168 758 l 509 758 l 437 244 q 448 100 424 149 q 535 52 472 52 q 605 60 567 52 q 672 81 643 68 l 681 25 q 610 3 649 13 q 527 -6 571 -6 m 362 922 q 323 931 337 922 q 312 968 308 941 l 313 977 q 334 1016 317 1005 q 376 1027 351 1027 q 416 1016 402 1027 q 427 977 431 1005 l 426 968 q 404 931 422 941 q 362 922 386 922 m 628 922 q 588 931 602 922 q 577 968 573 941 l 578 977 q 599 1016 582 1005 q 641 1027 616 1027 q 681 1016 667 1027 q 692 977 696 1005 l 691 968 q 669 931 687 941 q 628 922 652 922 z "},"κ":{"ha":884,"x_min":150,"x_max":780,"o":"m 265 370 l 213 0 l 150 0 l 256 758 l 319 758 l 274 427 l 402 427 l 705 758 l 780 758 l 451 404 l 670 0 l 598 0 l 395 370 l 265 370 z "},"λ":{"ha":884,"x_min":54,"x_max":687,"o":"m 624 0 l 473 696 l 119 0 l 54 0 l 446 758 l 461 758 l 451 799 q 394 927 427 891 q 297 962 361 962 q 247 960 268 962 q 202 952 227 957 l 201 1008 q 248 1015 226 1013 q 292 1018 270 1018 q 432 971 383 1018 q 506 814 482 924 l 687 0 l 624 0 z "},"μ":{"ha":884,"x_min":45,"x_max":739,"o":"m 154 25 l 121 -253 l 45 -253 l 91 25 l 193 758 l 256 758 l 186 247 q 211 98 172 150 q 337 45 250 45 q 459 71 404 45 q 562 145 514 96 l 648 758 l 711 758 l 633 202 q 641 72 619 101 q 739 56 663 43 l 731 -4 q 614 14 650 -14 q 582 114 578 42 l 569 114 q 467 28 533 69 q 326 -13 402 -13 q 225 13 266 -13 q 162 85 183 39 l 154 25 z "},"ν":{"ha":884,"x_min":160,"x_max":793,"o":"m 393 0 l 348 0 l 160 758 l 227 758 l 388 58 q 606 414 515 237 q 735 758 697 591 l 793 758 q 650 391 747 573 q 393 0 553 208 z "},"ξ":{"ha":884,"x_min":111,"x_max":816,"o":"m 670 -69 q 604 -206 658 -160 q 457 -253 551 -253 l 298 -253 l 306 -196 l 463 -196 q 569 -166 533 -196 q 614 -69 605 -136 q 596 27 624 -3 q 499 57 568 57 l 366 57 q 177 113 244 57 q 124 261 111 169 l 129 295 q 211 446 141 386 q 383 514 280 506 l 384 519 q 282 562 317 519 q 258 674 247 605 q 308 779 265 731 q 413 851 351 827 l 413 860 q 236 901 306 857 q 158 1020 167 944 l 215 1034 q 308 926 226 957 q 518 919 390 895 l 799 1021 l 816 951 l 529 870 l 429 824 q 356 766 384 804 q 321 677 328 727 q 341 578 312 612 q 433 543 370 543 l 643 543 l 635 486 l 428 486 q 266 442 327 486 q 194 314 206 398 l 189 280 q 226 157 178 201 q 375 114 274 114 l 506 114 q 642 68 601 114 q 670 -69 683 21 z "},"ο":{"ha":884,"x_min":106,"x_max":742,"o":"m 106 0 m 370 -13 q 169 61 232 -13 q 125 274 106 135 l 154 479 q 259 695 174 620 q 481 770 343 770 q 680 695 617 770 q 722 479 742 620 l 693 274 q 591 61 674 135 q 370 -13 508 -13 m 378 44 q 552 100 491 44 q 630 274 614 157 l 659 479 q 631 656 677 598 q 471 713 585 713 q 296 656 357 713 q 217 479 235 598 l 188 274 q 218 100 172 157 q 378 44 264 44 z "},"ό":{"ha":884,"x_min":106,"x_max":742,"o":"m 106 0 m 370 -13 q 169 61 232 -13 q 125 274 106 135 l 154 479 q 259 695 174 620 q 481 770 343 770 q 680 695 617 770 q 722 479 742 620 l 693 274 q 591 61 674 135 q 370 -13 508 -13 m 378 44 q 552 100 491 44 q 630 274 614 157 l 659 479 q 631 656 677 598 q 471 713 585 713 q 296 656 357 713 q 217 479 235 598 l 188 274 q 218 100 172 157 q 378 44 264 44 m 427 884 l 571 1136 l 672 1136 l 479 884 l 427 884 z "},"π":{"ha":884,"x_min":110,"x_max":799,"o":"m 799 758 l 792 701 l 640 701 l 563 157 q 584 65 554 86 q 701 56 614 44 l 693 -4 q 532 21 576 -18 q 501 162 487 59 l 577 701 l 299 701 l 201 0 l 138 0 l 236 701 l 110 701 l 117 758 l 799 758 z "},"ρ":{"ha":884,"x_min":52,"x_max":742,"o":"m 417 51 q 563 109 510 51 q 633 288 616 167 l 659 479 q 630 656 677 598 q 471 713 583 713 q 297 656 359 713 q 217 479 235 598 l 176 183 q 280 83 221 115 q 417 51 340 51 m 52 -253 l 154 479 q 259 694 174 617 q 481 770 345 770 q 679 694 616 770 q 722 479 742 617 l 694 275 q 600 62 674 138 q 408 -13 525 -13 q 273 24 332 -13 q 181 126 215 61 l 168 126 l 115 -253 l 52 -253 z "},"ς":{"ha":884,"x_min":111,"x_max":727,"o":"m 278 -253 l 285 -196 l 443 -196 q 549 -170 515 -196 q 592 -82 583 -144 q 573 1 600 -24 q 475 25 547 25 l 367 25 q 169 99 227 25 q 133 324 111 173 l 154 476 q 256 698 176 626 q 484 770 337 770 q 673 715 619 770 q 718 529 727 659 l 663 525 q 631 672 672 631 q 473 712 590 712 q 294 660 351 712 q 218 484 236 609 l 194 312 q 217 135 177 187 q 375 83 258 83 l 482 83 q 619 42 578 83 q 649 -82 660 1 q 586 -211 636 -169 q 442 -253 535 -253 l 278 -253 z "},"σ":{"ha":884,"x_min":106,"x_max":888,"o":"m 352 44 q 508 102 451 44 q 580 274 564 159 l 604 441 q 583 636 622 571 q 444 701 543 701 q 289 642 346 701 q 216 466 232 583 l 188 274 q 213 102 173 159 q 352 44 254 44 m 345 -13 q 165 63 223 -13 q 125 274 106 139 l 153 466 q 251 681 172 604 q 453 758 331 758 l 888 758 l 879 688 l 601 703 q 664 602 648 670 q 667 441 679 533 l 643 274 q 545 63 624 139 q 345 -13 466 -13 z "},"τ":{"ha":884,"x_min":186,"x_max":774,"o":"m 554 -4 q 392 21 437 -15 q 361 152 347 57 l 438 701 l 186 701 l 193 758 l 774 758 l 766 701 l 501 701 l 424 155 q 442 64 414 83 q 562 56 470 44 l 554 -4 z "},"υ":{"ha":884,"x_min":106,"x_max":761,"o":"m 370 -13 q 169 61 232 -13 q 125 274 106 135 l 193 758 l 256 758 l 188 274 q 220 98 172 152 q 378 44 268 44 q 551 98 487 44 q 630 274 614 152 l 698 758 l 761 758 l 693 274 q 591 61 674 135 q 370 -13 508 -13 z "},"ΰ":{"ha":884,"x_min":106,"x_max":775,"o":"m 106 0 m 370 -13 q 169 61 232 -13 q 125 274 106 135 l 193 758 l 256 758 l 188 274 q 220 98 172 152 q 378 44 268 44 q 551 98 487 44 q 630 274 614 152 l 698 758 l 761 758 l 693 274 q 591 61 674 135 q 370 -13 508 -13 m 427 884 l 545 1136 l 621 1136 l 479 884 l 427 884 m 278 909 q 247 919 258 909 q 240 956 236 928 l 241 965 q 259 1003 245 992 q 293 1014 273 1014 q 323 1003 313 1014 q 330 965 333 992 l 328 956 q 311 919 324 928 q 278 909 297 909 m 720 909 q 689 919 699 909 q 682 956 678 928 l 683 965 q 701 1003 687 992 q 735 1014 715 1014 q 765 1003 755 1014 q 771 965 775 992 l 770 956 q 753 919 766 928 q 720 909 739 909 z "},"ϋ":{"ha":884,"x_min":106,"x_max":761,"o":"m 106 0 m 370 -13 q 169 61 232 -13 q 125 274 106 135 l 193 758 l 256 758 l 188 274 q 220 98 172 152 q 378 44 268 44 q 551 98 487 44 q 630 274 614 152 l 698 758 l 761 758 l 693 274 q 591 61 674 135 q 370 -13 508 -13 m 369 922 q 329 931 343 922 q 318 968 314 941 l 319 977 q 340 1016 323 1005 q 383 1027 357 1027 q 422 1016 408 1027 q 433 977 437 1005 l 432 968 q 410 931 428 941 q 369 922 393 922 m 634 922 q 594 931 609 922 q 583 968 580 941 l 585 977 q 605 1016 588 1005 q 648 1027 622 1027 q 688 1016 673 1027 q 698 977 702 1005 l 697 968 q 676 931 693 941 q 634 922 658 922 z "},"ύ":{"ha":884,"x_min":106,"x_max":761,"o":"m 106 0 m 370 -13 q 169 61 232 -13 q 125 274 106 135 l 193 758 l 256 758 l 188 274 q 220 98 172 152 q 378 44 268 44 q 551 98 487 44 q 630 274 614 152 l 698 758 l 761 758 l 693 274 q 591 61 674 135 q 370 -13 508 -13 m 427 884 l 571 1136 l 672 1136 l 479 884 l 427 884 z "},"φ":{"ha":884,"x_min":51,"x_max":799,"o":"m 367 -253 l 304 -253 l 338 -10 q 124 94 197 3 q 73 350 51 186 l 86 441 q 134 621 100 542 q 236 770 168 701 l 292 749 q 199 611 235 687 q 149 441 163 535 l 136 350 q 169 135 117 213 q 346 47 220 57 l 446 758 l 509 758 q 730 665 660 758 q 775 403 799 572 l 768 350 q 645 94 745 186 q 402 -10 545 3 l 367 -253 m 501 701 l 409 47 q 611 136 537 58 q 705 350 686 213 l 712 403 q 680 629 734 557 q 501 701 626 701 z "},"χ":{"ha":884,"x_min":45,"x_max":768,"o":"m 552 -253 l 395 202 l 121 -253 l 45 -253 l 370 260 l 196 758 l 265 758 l 417 318 l 692 758 l 768 758 l 444 258 l 621 -253 l 552 -253 z "},"ψ":{"ha":884,"x_min":48,"x_max":824,"o":"m 367 -253 l 304 -253 l 338 -10 q 117 85 186 -1 q 69 324 48 172 l 130 758 l 193 758 l 133 324 q 164 122 114 188 q 346 47 213 56 l 446 758 l 509 758 l 409 47 q 613 122 544 56 q 701 324 682 188 l 761 758 l 824 758 l 764 324 q 650 85 742 172 q 402 -10 557 -1 l 367 -253 z "},"ω":{"ha":884,"x_min":47,"x_max":790,"o":"m 206 -13 q 83 73 119 -13 q 68 312 47 158 l 81 403 q 135 616 96 514 q 211 766 174 718 l 264 745 q 198 605 236 702 q 144 403 159 509 l 131 312 q 133 109 111 173 q 220 44 154 44 q 323 99 285 44 q 378 274 361 154 l 422 581 l 485 581 l 441 274 q 447 99 424 154 q 535 44 470 44 q 640 109 601 44 q 699 312 679 173 l 712 403 q 715 605 727 509 q 688 745 703 702 l 745 766 q 780 616 769 718 q 775 403 790 514 l 763 312 q 681 73 741 158 q 534 -13 621 -13 q 439 30 477 -13 q 393 149 402 73 l 390 149 q 310 30 359 73 q 206 -13 261 -13 z "},"ώ":{"ha":884,"x_min":47,"x_max":790,"o":"m 47 0 m 206 -13 q 83 73 119 -13 q 68 312 47 158 l 81 403 q 135 616 96 514 q 211 766 174 718 l 264 745 q 198 605 236 702 q 144 403 159 509 l 131 312 q 133 109 111 173 q 220 44 154 44 q 323 99 285 44 q 378 274 361 154 l 422 581 l 485 581 l 441 274 q 447 99 424 154 q 535 44 470 44 q 640 109 601 44 q 699 312 679 173 l 712 403 q 715 605 727 509 q 688 745 703 702 l 745 766 q 780 616 769 718 q 775 403 790 514 l 763 312 q 681 73 741 158 q 534 -13 621 -13 q 439 30 477 -13 q 393 149 402 73 l 390 149 q 310 30 359 73 q 206 -13 261 -13 m 439 884 l 583 1136 l 684 1136 l 491 884 l 439 884 z "},"а":{"ha":884,"x_min":63,"x_max":751,"o":"m 63 0 m 298 39 q 432 68 370 39 q 552 163 494 97 l 578 347 l 307 347 q 193 318 239 347 q 135 211 146 288 q 162 84 124 129 q 298 39 201 39 m 287 -13 q 119 45 176 -13 q 78 203 63 102 q 153 348 91 295 q 314 400 215 400 l 586 400 l 605 539 q 574 662 615 611 q 437 713 534 713 q 294 682 340 713 q 208 568 247 652 l 154 585 q 265 727 198 683 q 446 770 332 770 q 623 710 563 770 q 668 540 683 649 l 620 202 q 634 71 606 102 q 751 56 662 40 l 744 -4 q 612 14 654 -16 q 571 120 569 44 l 558 120 q 441 23 511 59 q 287 -13 370 -13 z "},"б":{"ha":884,"x_min":107,"x_max":746,"o":"m 370 -13 q 171 65 235 -13 q 128 285 107 143 l 179 653 q 276 875 198 794 q 500 981 354 956 l 744 1023 l 746 968 l 511 929 q 311 838 375 907 q 226 630 246 769 l 218 576 l 226 576 q 328 654 261 626 q 482 682 395 682 q 671 613 610 682 q 715 419 732 544 l 694 278 q 590 63 674 139 q 370 -13 505 -13 m 376 44 q 551 99 491 44 q 629 275 611 154 l 646 405 q 617 571 663 519 q 457 624 572 624 q 283 571 342 624 q 207 405 223 519 l 189 275 q 217 99 172 154 q 376 44 261 44 z "},"в":{"ha":884,"x_min":87,"x_max":751,"o":"m 87 0 l 193 758 l 472 758 q 687 715 622 758 q 737 577 751 672 l 735 559 q 684 447 725 484 q 566 405 644 410 l 564 398 q 688 350 653 393 q 711 221 722 308 l 708 211 q 611 51 693 101 q 366 0 529 0 l 87 0 m 211 427 l 437 427 q 612 454 562 427 q 672 553 662 481 l 674 571 q 640 674 684 646 q 465 702 595 702 l 249 702 l 211 427 m 158 56 l 374 56 q 574 88 516 56 q 645 208 633 121 l 648 221 q 612 340 659 308 q 428 372 564 372 l 202 372 l 158 56 z "},"г":{"ha":884,"x_min":150,"x_max":774,"o":"m 150 0 l 256 758 l 774 758 l 766 701 l 312 701 l 213 0 l 150 0 z "},"ѓ":{"ha":884,"x_min":150,"x_max":826,"o":"m 150 0 m 150 0 l 256 758 l 774 758 l 766 701 l 312 701 l 213 0 l 150 0 m 505 884 l 725 1136 l 826 1136 l 557 884 l 505 884 z "},"д":{"ha":884,"x_min":-15,"x_max":739,"o":"m 164 68 l 162 57 l 562 57 l 653 701 l 336 701 l 280 332 q 239 165 264 222 q 164 68 213 109 m 74 0 l 48 -189 l -15 -189 l 19 57 l 88 57 q 176 158 145 95 q 223 340 206 222 l 285 758 l 723 758 l 625 57 l 739 57 l 705 -189 l 641 -189 l 668 0 l 74 0 z "},"е":{"ha":884,"x_min":106,"x_max":742,"o":"m 106 0 m 669 150 q 557 25 625 63 q 371 -13 489 -13 q 171 60 236 -13 q 126 275 106 133 l 154 479 q 265 698 176 625 q 481 770 354 770 q 676 696 609 770 q 721 470 742 622 l 707 372 l 202 372 l 188 274 q 219 98 172 153 q 378 44 266 44 q 526 74 477 44 q 610 170 574 104 l 669 150 m 217 479 l 210 426 l 652 426 l 658 467 q 628 653 676 595 q 471 712 581 712 q 298 655 361 712 q 217 479 235 598 z "},"ѐ":{"ha":884,"x_min":106,"x_max":742,"o":"m 106 0 m 669 150 q 557 25 625 63 q 371 -13 489 -13 q 171 60 236 -13 q 126 275 106 133 l 154 479 q 265 698 176 625 q 481 770 354 770 q 676 696 609 770 q 721 470 742 622 l 707 372 l 202 372 l 188 274 q 219 98 172 153 q 378 44 266 44 q 526 74 477 44 q 610 170 574 104 l 669 150 m 217 479 l 210 426 l 652 426 l 658 467 q 628 653 676 595 q 471 712 581 712 q 298 655 361 712 q 217 479 235 598 m 529 884 l 331 1136 l 432 1136 l 581 884 l 529 884 z "},"ё":{"ha":884,"x_min":106,"x_max":742,"o":"m 106 0 m 669 150 q 557 25 625 63 q 371 -13 489 -13 q 171 60 236 -13 q 126 275 106 133 l 154 479 q 265 698 176 625 q 481 770 354 770 q 676 696 609 770 q 721 470 742 622 l 707 372 l 202 372 l 188 274 q 219 98 172 153 q 378 44 266 44 q 526 74 477 44 q 610 170 574 104 l 669 150 m 217 479 l 210 426 l 652 426 l 658 467 q 628 653 676 595 q 471 712 581 712 q 298 655 361 712 q 217 479 235 598 m 370 922 q 330 931 345 922 q 319 968 316 941 l 321 977 q 342 1016 324 1005 q 384 1027 359 1027 q 424 1016 409 1027 q 434 977 438 1005 l 433 968 q 412 931 429 941 q 370 922 394 922 m 635 922 q 595 931 610 922 q 585 968 581 941 l 586 977 q 607 1016 590 1005 q 649 1027 624 1027 q 689 1016 674 1027 q 699 977 703 1005 l 698 968 q 677 931 694 941 q 635 922 659 922 z "},"ж":{"ha":884,"x_min":-8,"x_max":864,"o":"m 326 376 l 61 0 l -8 0 l 278 400 l 91 758 l 158 758 l 327 426 l 407 426 l 453 758 l 504 758 l 457 426 l 530 426 l 797 758 l 864 758 l 577 404 l 750 0 l 683 0 l 524 376 l 451 376 l 398 0 l 347 0 l 400 376 l 326 376 z "},"з":{"ha":884,"x_min":87,"x_max":751,"o":"m 378 -13 q 153 44 220 -13 q 96 230 87 101 l 159 239 q 204 87 157 129 q 372 45 251 45 q 571 82 510 45 q 645 208 633 119 l 648 221 q 612 335 659 302 q 441 369 566 369 l 383 369 l 390 424 l 448 424 q 611 455 561 424 q 672 559 662 485 l 674 577 q 638 682 686 652 q 466 712 591 712 q 302 674 355 712 q 222 533 250 635 l 162 543 q 265 717 188 664 q 487 770 341 770 q 689 722 626 770 q 737 576 751 673 l 735 558 q 684 444 725 484 q 571 402 643 405 l 569 394 q 686 345 652 389 q 710 217 721 301 l 708 205 q 610 42 693 96 q 378 -13 528 -13 z "},"и":{"ha":884,"x_min":87,"x_max":761,"o":"m 592 0 l 683 650 l 148 0 l 87 0 l 193 758 l 256 758 l 165 106 l 702 758 l 761 758 l 655 0 l 592 0 z "},"й":{"ha":884,"x_min":87,"x_max":785,"o":"m 87 0 m 592 0 l 683 650 l 148 0 l 87 0 l 193 758 l 256 758 l 165 106 l 702 758 l 761 758 l 655 0 l 592 0 m 494 875 q 322 933 388 875 q 275 1134 256 991 l 340 1140 q 365 979 326 1027 q 503 931 404 931 q 653 979 601 931 q 723 1140 705 1027 l 785 1134 q 682 933 764 991 q 494 875 600 875 z "},"ѝ":{"ha":884,"x_min":87,"x_max":761,"o":"m 87 0 m 592 0 l 683 650 l 148 0 l 87 0 l 193 758 l 256 758 l 165 106 l 702 758 l 761 758 l 655 0 l 592 0 m 528 884 l 330 1136 l 431 1136 l 580 884 l 528 884 z "},"к":{"ha":884,"x_min":150,"x_max":780,"o":"m 265 370 l 213 0 l 150 0 l 256 758 l 319 758 l 274 427 l 402 427 l 705 758 l 780 758 l 451 404 l 670 0 l 598 0 l 395 370 l 265 370 z "},"ќ":{"ha":884,"x_min":150,"x_max":811,"o":"m 150 0 m 265 370 l 213 0 l 150 0 l 256 758 l 319 758 l 274 427 l 402 427 l 705 758 l 780 758 l 451 404 l 670 0 l 598 0 l 395 370 l 265 370 m 490 884 l 710 1136 l 811 1136 l 542 884 l 490 884 z "},"л":{"ha":884,"x_min":-30,"x_max":761,"o":"m 592 0 l 691 701 l 348 701 l 288 297 q 206 66 265 144 q 53 -13 148 -13 q 8 -9 29 -13 q -30 0 -13 -6 l -9 54 q 23 47 6 49 q 59 44 39 44 q 171 106 131 44 q 232 313 211 168 l 298 758 l 761 758 l 655 0 l 592 0 z "},"м":{"ha":884,"x_min":62,"x_max":787,"o":"m 365 189 l 218 664 l 125 0 l 62 0 l 168 758 l 253 758 l 408 249 l 705 758 l 787 758 l 681 0 l 617 0 l 711 664 l 431 189 l 365 189 z "},"н":{"ha":884,"x_min":87,"x_max":761,"o":"m 87 0 l 193 758 l 256 758 l 216 467 l 658 467 l 698 758 l 761 758 l 655 0 l 592 0 l 650 410 l 208 410 l 150 0 l 87 0 z "},"о":{"ha":884,"x_min":106,"x_max":742,"o":"m 106 0 m 370 -13 q 169 61 232 -13 q 125 274 106 135 l 154 479 q 259 695 174 620 q 481 770 343 770 q 680 695 617 770 q 722 479 742 620 l 693 274 q 591 61 674 135 q 370 -13 508 -13 m 378 44 q 552 100 491 44 q 630 274 614 157 l 659 479 q 631 656 677 598 q 471 713 585 713 q 296 656 357 713 q 217 479 235 598 l 188 274 q 218 100 172 157 q 378 44 264 44 z "},"п":{"ha":884,"x_min":87,"x_max":761,"o":"m 87 0 l 193 758 l 761 758 l 655 0 l 592 0 l 691 701 l 249 701 l 150 0 l 87 0 z "},"р":{"ha":884,"x_min":52,"x_max":742,"o":"m 52 0 m 366 42 q 550 100 485 42 q 631 279 615 158 l 660 484 q 640 657 677 601 q 509 713 602 713 q 367 680 434 713 q 231 574 299 646 l 164 102 q 261 57 211 73 q 366 42 311 42 m 360 -13 q 261 0 317 -13 q 155 35 206 13 l 115 -253 l 52 -253 l 193 758 l 256 758 l 239 631 l 251 631 q 368 735 294 699 q 524 770 442 770 q 689 694 636 770 q 723 482 742 617 l 694 277 q 586 64 676 141 q 360 -13 497 -13 z "},"с":{"ha":884,"x_min":106,"x_max":753,"o":"m 106 0 m 388 -13 q 174 61 241 -13 q 125 274 106 135 l 154 479 q 262 696 174 621 q 496 770 350 770 q 694 715 635 770 q 745 542 753 659 l 684 537 q 644 674 688 635 q 486 713 600 713 q 300 657 365 713 q 217 479 235 600 l 188 274 q 222 99 172 155 q 395 43 273 43 q 563 76 510 43 q 636 196 616 110 l 696 191 q 599 36 673 85 q 388 -13 525 -13 z "},"т":{"ha":884,"x_min":148,"x_max":799,"o":"m 340 0 l 438 701 l 148 701 l 155 758 l 799 758 l 792 701 l 501 701 l 403 0 l 340 0 z "},"у":{"ha":884,"x_min":24,"x_max":793,"o":"m 24 0 m 112 -260 q 73 -258 93 -260 q 24 -251 52 -256 l 40 -194 q 84 -202 64 -199 q 133 -205 104 -205 q 240 -170 197 -205 q 332 -42 283 -136 l 355 0 l 340 0 l 160 758 l 226 758 l 386 63 l 730 758 l 793 758 l 384 -57 q 266 -213 328 -167 q 112 -260 203 -260 z "},"ў":{"ha":884,"x_min":24,"x_max":793,"o":"m 24 0 m 112 -260 q 73 -258 93 -260 q 24 -251 52 -256 l 40 -194 q 84 -202 64 -199 q 133 -205 104 -205 q 240 -170 197 -205 q 332 -42 283 -136 l 355 0 l 340 0 l 160 758 l 226 758 l 386 63 l 730 758 l 793 758 l 384 -57 q 266 -213 328 -167 q 112 -260 203 -260 m 494 875 q 322 933 388 875 q 275 1134 256 991 l 340 1140 q 365 979 326 1027 q 503 931 404 931 q 653 979 601 931 q 723 1140 705 1027 l 785 1134 q 682 933 764 991 q 494 875 600 875 z "},"ф":{"ha":884,"x_min":44,"x_max":804,"o":"m 500 0 l 403 0 l 367 -253 l 304 -253 l 340 0 l 242 0 q 92 73 140 0 q 63 277 44 145 l 92 481 q 178 685 110 612 q 348 758 246 758 l 446 758 l 481 1010 l 544 1010 l 509 758 l 606 758 q 756 685 708 758 q 787 481 804 612 l 758 277 q 670 73 739 145 q 500 0 602 0 m 264 57 l 347 57 l 438 701 l 355 701 q 220 645 269 701 q 154 476 170 590 l 126 279 q 145 112 111 167 q 264 57 178 57 m 585 701 l 501 701 l 410 57 l 494 57 q 629 112 580 57 q 694 279 679 167 l 722 476 q 705 645 739 590 q 585 701 670 701 z "},"х":{"ha":884,"x_min":71,"x_max":778,"o":"m 71 0 m 596 0 l 413 338 l 138 0 l 71 0 l 385 388 l 186 758 l 256 758 l 436 428 l 711 758 l 778 758 l 462 380 l 667 0 l 596 0 z "},"ц":{"ha":884,"x_min":87,"x_max":726,"o":"m 635 -189 l 662 0 l 87 0 l 193 758 l 256 758 l 158 57 l 537 57 l 635 758 l 698 758 l 600 57 l 726 57 l 692 -189 l 635 -189 z "},"ч":{"ha":884,"x_min":115,"x_max":698,"o":"m 698 758 l 592 0 l 529 0 l 568 278 q 479 251 524 261 q 380 240 433 240 q 176 309 236 240 q 135 519 115 378 l 168 758 l 231 758 l 198 521 q 227 349 182 403 q 389 294 271 295 q 487 304 441 293 q 577 340 534 316 l 635 758 l 698 758 z "},"ш":{"ha":884,"x_min":24,"x_max":824,"o":"m 24 0 l 130 758 l 193 758 l 95 57 l 347 57 l 446 758 l 509 758 l 410 57 l 663 57 l 761 758 l 824 758 l 718 0 l 24 0 z "},"щ":{"ha":884,"x_min":24,"x_max":824,"o":"m 755 -189 l 702 -189 l 729 0 l 24 0 l 130 758 l 193 758 l 95 57 l 347 57 l 446 758 l 509 758 l 410 57 l 663 57 l 761 758 l 824 758 l 726 57 l 789 57 l 755 -189 z "},"ъ":{"ha":884,"x_min":59,"x_max":746,"o":"m 461 0 l 150 0 l 249 701 l 59 701 l 67 758 l 319 758 l 280 480 l 527 480 q 691 429 635 480 q 732 282 746 378 l 722 203 q 638 52 708 105 q 461 0 568 0 m 221 57 l 442 57 q 597 91 547 57 q 659 203 648 125 l 669 282 q 640 390 681 357 q 494 423 598 423 l 273 423 l 221 57 z "},"ы":{"ha":884,"x_min":56,"x_max":793,"o":"m 56 0 l 162 758 l 225 758 l 186 480 l 331 480 q 467 428 422 480 q 499 282 513 376 l 489 203 q 415 53 475 106 q 265 0 355 0 l 56 0 m 624 0 l 730 758 l 793 758 l 687 0 l 624 0 m 126 57 l 246 57 q 372 90 331 57 q 426 203 414 124 l 436 282 q 415 391 447 359 q 298 423 383 423 l 178 423 l 126 57 z "},"ь":{"ha":884,"x_min":87,"x_max":746,"o":"m 87 0 l 193 758 l 256 758 l 217 480 l 527 480 q 691 427 635 480 q 732 282 746 374 l 722 203 q 638 54 708 109 q 461 0 568 0 l 87 0 m 158 57 l 442 57 q 597 91 547 57 q 659 203 648 125 l 669 282 q 640 391 681 359 q 494 423 598 423 l 210 423 l 158 57 z "},"э":{"ha":884,"x_min":92,"x_max":742,"o":"m 352 -13 q 153 36 213 -13 q 100 191 92 85 l 162 194 q 203 76 162 107 q 360 44 245 44 q 549 98 484 44 q 630 274 614 152 l 644 366 l 326 366 l 333 423 l 652 423 l 660 484 q 628 661 678 609 q 456 713 577 713 q 287 676 338 713 q 210 537 235 639 l 149 542 q 250 716 176 662 q 463 770 324 770 q 682 694 622 770 q 722 476 742 619 l 696 287 q 595 64 676 140 q 352 -13 514 -13 z "},"ю":{"ha":884,"x_min":37,"x_max":793,"o":"m 484 -13 q 330 60 378 -13 q 302 274 283 133 l 318 385 l 154 385 l 100 0 l 37 0 l 143 758 l 206 758 l 162 442 l 326 442 l 331 480 q 419 697 351 624 q 595 770 487 770 q 747 696 702 770 q 773 479 793 622 l 744 274 q 658 60 725 133 q 484 -13 591 -13 m 491 44 q 619 98 574 44 q 681 274 664 153 l 710 479 q 698 658 727 604 q 585 713 668 713 q 456 658 501 713 q 394 479 412 604 l 365 274 q 378 98 348 153 q 491 44 408 44 z "},"я":{"ha":884,"x_min":76,"x_max":761,"o":"m 354 319 l 638 319 l 691 701 l 407 701 q 280 660 322 701 q 225 529 237 620 l 221 501 q 238 362 207 404 q 354 319 269 319 m 630 265 l 429 265 l 149 0 l 76 0 l 352 265 q 190 325 239 265 q 157 496 141 385 l 160 524 q 240 699 177 641 q 413 758 303 758 l 761 758 l 655 0 l 592 0 l 630 265 z "},"ђ":{"ha":884,"x_min":76,"x_max":736,"o":"m 408 -263 q 343 -256 376 -263 q 282 -237 311 -250 l 303 -181 q 354 -199 327 -193 q 412 -205 381 -205 q 533 -153 487 -205 q 592 3 578 -101 l 655 448 q 628 597 668 543 q 503 650 588 650 q 363 612 437 650 q 221 505 289 573 l 150 0 l 87 0 l 202 819 l 76 819 l 85 876 l 211 876 l 229 1010 l 292 1010 l 274 876 l 527 876 l 518 819 l 265 819 l 230 568 l 242 568 q 373 669 295 631 q 523 707 451 707 q 682 640 628 707 q 720 462 736 572 l 654 -8 q 573 -196 638 -129 q 408 -263 508 -263 z "},"є":{"ha":884,"x_min":105,"x_max":753,"o":"m 694 191 q 597 37 673 87 q 386 -13 521 -13 q 169 61 232 -13 q 126 287 105 134 l 153 476 q 258 698 174 626 q 495 770 341 770 q 692 715 631 770 q 745 542 753 659 l 684 537 q 643 676 686 638 q 485 713 600 713 q 297 659 360 713 q 217 484 234 605 l 208 423 l 527 423 l 519 366 l 201 366 l 187 274 q 219 98 170 153 q 394 44 268 44 q 558 76 506 44 q 636 194 610 109 l 694 191 z "},"ѕ":{"ha":884,"x_min":74,"x_max":717,"o":"m 74 0 m 393 -13 q 220 15 302 -13 q 74 100 138 43 l 115 152 q 244 71 172 98 q 400 44 317 44 q 556 83 496 44 q 625 191 616 122 q 590 290 635 258 q 410 348 545 323 q 211 424 268 375 q 165 559 154 473 q 254 712 179 654 q 437 770 328 770 q 589 741 519 770 q 717 662 659 712 l 679 612 q 564 685 628 657 q 428 713 501 713 q 292 676 345 713 q 230 572 239 638 q 263 465 220 499 q 442 408 307 431 q 643 334 586 383 q 688 198 701 285 q 594 45 676 104 q 393 -13 513 -13 z "},"і":{"ha":884,"x_min":87,"x_max":663,"o":"m 87 0 m 87 0 l 95 57 l 347 57 l 438 701 l 186 701 l 193 758 l 509 758 l 410 57 l 663 57 l 655 0 l 87 0 m 501 922 q 457 932 473 922 q 444 968 441 942 l 446 977 q 468 1016 449 1005 q 515 1027 487 1027 q 559 1016 543 1027 q 572 977 576 1005 l 571 968 q 548 932 567 942 q 501 922 529 922 z "},"ї":{"ha":884,"x_min":87,"x_max":702,"o":"m 87 0 m 87 0 l 95 57 l 347 57 l 438 701 l 186 701 l 193 758 l 509 758 l 410 57 l 663 57 l 655 0 l 87 0 m 369 922 q 329 931 343 922 q 318 968 314 941 l 319 977 q 340 1016 323 1005 q 383 1027 357 1027 q 422 1016 408 1027 q 433 977 437 1005 l 432 968 q 410 931 428 941 q 369 922 393 922 m 634 922 q 594 931 609 922 q 583 968 580 941 l 585 977 q 605 1016 588 1005 q 648 1027 622 1027 q 688 1016 673 1027 q 698 977 702 1005 l 697 968 q 676 931 693 941 q 634 922 658 922 z "},"ј":{"ha":884,"x_min":54,"x_max":698,"o":"m 54 0 m 231 -263 q 140 -255 187 -263 q 54 -236 93 -247 l 76 -178 q 157 -198 116 -192 q 235 -205 198 -205 q 396 -147 338 -205 q 470 28 453 -90 l 564 701 l 211 701 l 218 758 l 635 758 l 532 18 q 434 -189 513 -116 q 231 -263 356 -263 m 624 922 q 580 932 596 922 q 567 968 563 942 l 568 977 q 591 1016 572 1005 q 638 1027 610 1027 q 682 1016 665 1027 q 694 977 698 1005 l 693 968 q 670 932 689 942 q 624 922 652 922 z "},"љ":{"ha":884,"x_min":-47,"x_max":768,"o":"m 260 701 l 186 207 q 122 42 168 92 q 23 -8 77 -8 q -12 -4 5 -9 q -47 5 -29 0 l -21 69 q 0 62 -11 66 q 23 59 11 59 q 81 88 53 58 q 125 217 110 119 l 208 758 l 521 758 l 486 505 l 568 505 q 721 454 674 505 q 754 302 768 403 l 740 203 q 664 51 725 102 q 499 0 604 0 l 352 0 l 451 701 l 260 701 m 423 57 l 505 57 q 619 90 573 57 q 677 208 665 122 l 689 299 q 665 416 702 384 q 561 448 629 448 l 479 448 l 423 57 z "},"њ":{"ha":884,"x_min":32,"x_max":766,"o":"m 410 57 l 505 57 q 619 88 573 57 q 676 202 664 120 l 689 293 q 664 405 701 374 q 558 436 626 436 l 463 436 l 410 57 m 154 423 l 95 0 l 32 0 l 138 758 l 201 758 l 162 480 l 407 480 l 446 758 l 509 758 l 472 492 l 567 492 q 720 443 673 492 q 753 295 766 394 l 739 197 q 665 50 725 100 q 499 0 605 0 l 340 0 l 399 423 l 154 423 z "},"ћ":{"ha":884,"x_min":76,"x_max":737,"o":"m 76 0 m 221 505 l 150 0 l 87 0 l 202 819 l 76 819 l 85 876 l 211 876 l 229 1010 l 292 1010 l 274 876 l 527 876 l 518 819 l 265 819 l 230 568 l 242 568 q 370 674 303 640 q 516 707 437 707 q 677 643 617 707 q 720 462 737 580 l 655 0 l 592 0 l 655 448 q 626 600 669 551 q 503 650 582 650 q 363 616 431 650 q 221 505 295 581 z "},"џ":{"ha":884,"x_min":87,"x_max":761,"o":"m 313 -189 l 340 0 l 87 0 l 193 758 l 256 758 l 158 57 l 600 57 l 698 758 l 761 758 l 655 0 l 403 0 l 376 -189 l 313 -189 z "},"ґ":{"ha":884,"x_min":150,"x_max":797,"o":"m 150 0 l 256 758 l 717 758 l 740 915 l 797 915 l 766 701 l 312 701 l 213 0 l 150 0 z "},"ⁿ":{"ha":884,"x_min":198,"x_max":726,"o":"m 198 383 l 287 1013 l 341 1013 l 326 908 l 336 908 q 431 992 375 962 q 549 1023 487 1023 q 681 963 636 1023 q 712 808 726 904 l 653 383 l 598 383 l 657 799 q 639 929 669 885 q 538 973 609 973 q 429 946 485 973 q 319 864 374 918 l 253 383 l 198 383 z "},"̀":{"ha":0,"x_min":-112,"x_max":138,"o":"m 86 884 l -112 1136 l -11 1136 l 138 884 l 86 884 z "},"́":{"ha":0,"x_min":-32,"x_max":289,"o":"m -32 884 l 188 1136 l 289 1136 l 20 884 l -32 884 z "},"̂":{"ha":0,"x_min":-178,"x_max":301,"o":"m -157 912 l -178 946 l 71 1158 l 111 1158 l 301 946 l 269 912 l 82 1098 l -157 912 z "},"̃":{"ha":0,"x_min":-177,"x_max":322,"o":"m 165 896 q 97 921 124 896 q 44 1010 71 946 q 11 1080 27 1061 q -27 1098 -5 1098 q -88 1056 -66 1098 q -121 923 -111 1014 l -124 909 l -177 909 l -174 928 q -119 1093 -158 1038 q -19 1149 -81 1149 q 49 1126 24 1149 q 97 1042 74 1104 q 136 967 120 987 q 172 947 152 947 q 232 989 208 947 q 268 1122 255 1032 l 269 1136 l 322 1136 l 319 1117 q 266 952 304 1008 q 165 896 227 896 z "},"̄":{"ha":0,"x_min":-153,"x_max":297,"o":"m -153 985 l -145 1042 l 297 1042 l 289 985 l -153 985 z "},"̆":{"ha":0,"x_min":-182,"x_max":345,"o":"m 52 875 q -127 943 -72 875 q -165 1140 -182 1011 l -102 1140 q -76 981 -115 1030 q 61 932 -38 932 q 211 981 159 932 q 282 1140 264 1030 l 345 1140 q 251 943 326 1011 q 52 875 176 875 z "},"̇":{"ha":0,"x_min":-1,"x_max":134,"o":"m 59 922 q 15 932 32 922 q 3 968 -1 942 l 4 977 q 27 1016 8 1005 q 73 1027 45 1027 q 117 1016 101 1027 q 130 977 134 1005 l 129 968 q 106 932 125 942 q 59 922 87 922 z "},"̈":{"ha":0,"x_min":-128,"x_max":260,"o":"m -73 922 q -113 931 -98 922 q -124 968 -128 941 l -122 977 q -102 1016 -119 1005 q -59 1027 -85 1027 q -20 1016 -34 1027 q -9 977 -5 1005 l -10 968 q -32 931 -14 941 q -73 922 -49 922 m 192 922 q 152 931 167 922 q 141 968 138 941 l 143 977 q 164 1016 146 1005 q 206 1027 181 1027 q 246 1016 231 1027 q 256 977 260 1005 l 255 968 q 234 931 251 941 q 192 922 216 922 z "},"̊":{"ha":0,"x_min":-112,"x_max":271,"o":"m 51 865 q -74 912 -35 865 q -100 1048 -112 958 l -95 1088 q -30 1227 -82 1179 q 109 1275 23 1275 q 233 1227 194 1275 q 259 1088 271 1179 l 254 1048 q 189 912 241 958 q 51 865 136 865 m 58 917 q 152 948 120 917 q 193 1048 183 980 l 198 1088 q 186 1191 208 1159 q 101 1223 163 1223 q 8 1191 39 1223 q -34 1088 -24 1159 l -39 1048 q -27 948 -49 980 q 58 917 -4 917 z "},"̋":{"ha":0,"x_min":-91,"x_max":369,"o":"m 149 884 l 255 1136 l 369 1136 l 201 884 l 149 884 m -91 884 l 15 1136 l 129 1136 l -39 884 l -91 884 z "},"̌":{"ha":0,"x_min":-155,"x_max":323,"o":"m 34 889 l -155 1101 l -125 1135 l 63 948 l 301 1135 l 323 1101 l 74 889 l 34 889 z "},"̒":{"ha":0,"x_min":-53,"x_max":205,"o":"m -53 884 l 153 1136 l 205 1136 l 48 884 l -53 884 z "},"̦":{"ha":0,"x_min":-268,"x_max":-10,"o":"m -268 -379 l -111 -126 l -10 -126 l -216 -379 l -268 -379 z "},"̧":{"ha":0,"x_min":-303,"x_max":52,"o":"m -109 0 l -92 28 q 17 -27 -18 14 q 43 -128 52 -67 q -18 -234 33 -196 q -149 -273 -68 -273 q -262 -241 -221 -273 q -298 -133 -303 -208 l -236 -128 q -218 -199 -239 -178 q -148 -220 -197 -220 q -56 -198 -85 -220 q -20 -124 -28 -177 q -33 -45 -13 -73 q -109 0 -54 -16 z "},"̨":{"ha":0,"x_min":-194,"x_max":71,"o":"m -39 -271 q -154 -234 -114 -271 q -186 -134 -194 -196 q -131 -32 -178 -80 q -11 43 -85 15 l 1 29 q -84 -38 -54 -3 q -120 -117 -114 -73 q -105 -191 -128 -168 q -24 -215 -82 -215 q 25 -212 3 -215 q 71 -205 47 -210 l 63 -261 q 10 -269 38 -266 q -39 -271 -18 -271 z "},"¼":{"ha":884,"x_min":-23,"x_max":871,"o":"m 259 518 l 265 568 l 437 568 l 487 927 l 481 927 q 407 846 460 876 q 292 814 354 816 l 292 867 q 414 906 351 870 q 503 1018 476 942 l 557 1018 l 494 568 l 650 568 l 644 518 l 259 518 m -23 345 l -13 413 l 388 403 l 381 356 l -23 345 m 861 345 l 480 356 l 486 403 l 871 413 l 861 345 m 482 -265 l 426 -265 l 446 -125 l 112 -125 l 120 -74 l 485 273 l 558 273 l 510 -74 l 628 -74 l 620 -125 l 503 -125 l 482 -265 m 188 -74 l 453 -74 l 494 213 l 188 -74 z "},"½":{"ha":884,"x_min":-23,"x_max":871,"o":"m 259 518 l 265 568 l 437 568 l 487 927 l 481 927 q 407 846 460 876 q 292 814 354 816 l 292 867 q 414 906 351 870 q 503 1018 476 942 l 557 1018 l 494 568 l 650 568 l 644 518 l 259 518 m -23 345 l -13 413 l 388 403 l 381 356 l -23 345 m 861 345 l 480 356 l 486 403 l 871 413 l 861 345 m 558 -266 l 110 -266 l 125 -160 q 170 -67 134 -100 q 292 -18 207 -34 l 422 8 q 513 37 487 20 q 544 92 539 53 l 548 116 q 522 193 556 170 q 402 216 489 216 q 279 196 314 216 q 231 122 244 177 l 172 128 q 242 234 186 201 q 409 266 299 266 q 568 231 520 266 q 604 120 615 196 l 598 77 q 554 1 591 30 q 437 -44 518 -28 l 308 -69 q 214 -107 242 -82 q 174 -216 186 -133 l 566 -216 l 558 -266 z "},"¾":{"ha":884,"x_min":-23,"x_max":871,"o":"m 441 509 q 271 541 317 509 q 229 638 225 573 l 288 643 q 314 578 285 596 q 447 561 342 561 q 581 583 538 561 q 631 658 624 605 l 634 678 q 604 739 640 721 q 477 758 568 758 l 403 758 l 410 808 l 485 808 q 604 821 567 808 q 645 865 641 835 l 649 890 q 621 953 655 934 q 500 972 587 972 q 386 957 424 972 q 340 903 348 942 l 282 908 q 350 997 295 970 q 508 1024 404 1024 q 667 994 620 1024 q 706 898 715 963 l 703 878 q 669 817 697 838 q 601 790 641 795 l 600 780 q 671 747 645 777 q 691 673 697 717 l 688 655 q 618 544 678 580 q 441 509 558 509 m -23 345 l -13 413 l 388 403 l 381 356 l -23 345 m 861 345 l 480 356 l 486 403 l 871 413 l 861 345 m 482 -265 l 426 -265 l 446 -125 l 112 -125 l 120 -74 l 485 273 l 558 273 l 510 -74 l 628 -74 l 620 -125 l 503 -125 l 482 -265 m 188 -74 l 453 -74 l 494 213 l 188 -74 z "},"⅛":{"ha":884,"x_min":-23,"x_max":871,"o":"m 259 518 l 265 568 l 437 568 l 487 927 l 481 927 q 407 846 460 876 q 292 814 354 816 l 292 867 q 414 906 351 870 q 503 1018 476 942 l 557 1018 l 494 568 l 650 568 l 644 518 l 259 518 m -23 345 l -13 413 l 388 403 l 381 356 l -23 345 m 861 345 l 480 356 l 486 403 l 871 413 l 861 345 m 333 -273 q 163 -231 206 -273 q 130 -117 120 -189 l 131 -107 q 169 -26 139 -57 q 246 9 199 5 l 247 19 q 193 49 213 24 q 178 114 172 73 l 179 126 q 249 234 189 201 q 409 268 309 268 q 559 235 510 268 q 598 126 609 202 l 597 114 q 564 49 591 73 q 500 19 537 24 l 499 9 q 567 -27 545 5 q 582 -107 588 -59 l 581 -117 q 516 -232 571 -192 q 333 -273 462 -273 m 376 38 q 496 54 460 38 q 538 109 533 69 l 540 128 q 516 196 548 176 q 402 216 485 216 q 283 196 319 216 q 239 128 246 176 l 236 109 q 263 54 231 69 q 376 38 294 38 m 340 -221 q 472 -196 431 -221 q 521 -114 514 -172 l 524 -102 q 496 -33 530 -53 q 370 -13 461 -13 q 239 -33 279 -13 q 192 -102 198 -53 l 189 -114 q 215 -196 182 -172 q 340 -221 249 -221 z "},"⅜":{"ha":884,"x_min":-23,"x_max":871,"o":"m 441 509 q 271 541 317 509 q 229 638 225 573 l 288 643 q 314 578 285 596 q 447 561 342 561 q 581 583 538 561 q 631 658 624 605 l 634 678 q 604 739 640 721 q 477 758 568 758 l 403 758 l 410 808 l 485 808 q 604 821 567 808 q 645 865 641 835 l 649 890 q 621 953 655 934 q 500 972 587 972 q 386 957 424 972 q 340 903 348 942 l 282 908 q 350 997 295 970 q 508 1024 404 1024 q 667 994 620 1024 q 706 898 715 963 l 703 878 q 669 817 697 838 q 601 790 641 795 l 600 780 q 671 747 645 777 q 691 673 697 717 l 688 655 q 618 544 678 580 q 441 509 558 509 m -23 345 l -13 413 l 388 403 l 381 356 l -23 345 m 861 345 l 480 356 l 486 403 l 871 413 l 861 345 m 333 -273 q 163 -231 206 -273 q 130 -117 120 -189 l 131 -107 q 169 -26 139 -57 q 246 9 199 5 l 247 19 q 193 49 213 24 q 178 114 172 73 l 179 126 q 249 234 189 201 q 409 268 309 268 q 559 235 510 268 q 598 126 609 202 l 597 114 q 564 49 591 73 q 500 19 537 24 l 499 9 q 567 -27 545 5 q 582 -107 588 -59 l 581 -117 q 516 -232 571 -192 q 333 -273 462 -273 m 376 38 q 496 54 460 38 q 538 109 533 69 l 540 128 q 516 196 548 176 q 402 216 485 216 q 283 196 319 216 q 239 128 246 176 l 236 109 q 263 54 231 69 q 376 38 294 38 m 340 -221 q 472 -196 431 -221 q 521 -114 514 -172 l 524 -102 q 496 -33 530 -53 q 370 -13 461 -13 q 239 -33 279 -13 q 192 -102 198 -53 l 189 -114 q 215 -196 182 -172 q 340 -221 249 -221 z "},"⅝":{"ha":884,"x_min":-23,"x_max":871,"o":"m 443 509 q 272 540 319 509 q 232 652 225 572 l 289 659 q 320 580 287 600 q 449 559 354 559 q 582 581 540 559 q 631 655 624 602 l 635 687 q 608 754 643 734 q 485 774 573 774 l 270 774 l 304 1016 l 712 1016 l 706 966 l 357 966 l 337 826 l 494 826 q 652 792 600 826 q 694 693 703 759 l 689 652 q 616 544 679 580 q 443 509 552 509 m -23 345 l -13 413 l 388 403 l 381 356 l -23 345 m 861 345 l 480 356 l 486 403 l 871 413 l 861 345 m 333 -273 q 163 -231 206 -273 q 130 -117 120 -189 l 131 -107 q 169 -26 139 -57 q 246 9 199 5 l 247 19 q 193 49 213 24 q 178 114 172 73 l 179 126 q 249 234 189 201 q 409 268 309 268 q 559 235 510 268 q 598 126 609 202 l 597 114 q 564 49 591 73 q 500 19 537 24 l 499 9 q 567 -27 545 5 q 582 -107 588 -59 l 581 -117 q 516 -232 571 -192 q 333 -273 462 -273 m 376 38 q 496 54 460 38 q 538 109 533 69 l 540 128 q 516 196 548 176 q 402 216 485 216 q 283 196 319 216 q 239 128 246 176 l 236 109 q 263 54 231 69 q 376 38 294 38 m 340 -221 q 472 -196 431 -221 q 521 -114 514 -172 l 524 -102 q 496 -33 530 -53 q 370 -13 461 -13 q 239 -33 279 -13 q 192 -102 198 -53 l 189 -114 q 215 -196 182 -172 q 340 -221 249 -221 z "},"⅞":{"ha":884,"x_min":-23,"x_max":871,"o":"m 383 518 q 441 650 412 592 q 504 759 470 708 q 580 860 538 811 q 674 968 621 910 l 283 968 l 289 1018 l 740 1018 l 734 968 q 556 741 629 841 q 443 518 484 641 l 383 518 m -23 345 l -13 413 l 388 403 l 381 356 l -23 345 m 861 345 l 480 356 l 486 403 l 871 413 l 861 345 m 333 -273 q 163 -231 206 -273 q 130 -117 120 -189 l 131 -107 q 169 -26 139 -57 q 246 9 199 5 l 247 19 q 193 49 213 24 q 178 114 172 73 l 179 126 q 249 234 189 201 q 409 268 309 268 q 559 235 510 268 q 598 126 609 202 l 597 114 q 564 49 591 73 q 500 19 537 24 l 499 9 q 567 -27 545 5 q 582 -107 588 -59 l 581 -117 q 516 -232 571 -192 q 333 -273 462 -273 m 376 38 q 496 54 460 38 q 538 109 533 69 l 540 128 q 516 196 548 176 q 402 216 485 216 q 283 196 319 216 q 239 128 246 176 l 236 109 q 263 54 231 69 q 376 38 294 38 m 340 -221 q 472 -196 431 -221 q 521 -114 514 -172 l 524 -102 q 496 -33 530 -53 q 370 -13 461 -13 q 239 -33 279 -13 q 192 -102 198 -53 l 189 -114 q 215 -196 182 -172 q 340 -221 249 -221 z "},"_":{"ha":884,"x_min":-14,"x_max":702,"o":"m -14 -221 l -5 -158 l 702 -158 l 693 -221 l -14 -221 z "},"-":{"ha":884,"x_min":76,"x_max":792,"o":"m 76 410 l 85 473 l 792 473 l 783 410 l 76 410 z "},"­":{"ha":884,"x_min":76,"x_max":792,"o":"m 76 410 l 85 473 l 792 473 l 783 410 l 76 410 z "},"‐":{"ha":884,"x_min":76,"x_max":792,"o":"m 76 410 l 85 473 l 792 473 l 783 410 l 76 410 z "},"‑":{"ha":884,"x_min":76,"x_max":792,"o":"m 76 410 l 85 473 l 792 473 l 783 410 l 76 410 z "},"–":{"ha":884,"x_min":114,"x_max":754,"o":"m 114 410 l 122 473 l 754 473 l 745 410 l 114 410 z "},"—":{"ha":884,"x_min":-13,"x_max":880,"o":"m -13 410 l -4 473 l 880 473 l 871 410 l -13 410 z "},"―":{"ha":884,"x_min":-13,"x_max":880,"o":"m -13 410 l -4 473 l 880 473 l 871 410 l -13 410 z "},"(":{"ha":884,"x_min":230,"x_max":736,"o":"m 554 -265 q 307 -51 384 -222 q 266 379 230 121 q 428 808 303 636 q 736 1023 553 980 l 736 970 q 468 775 573 927 q 330 379 364 622 q 357 -17 295 135 q 571 -212 419 -169 l 554 -265 z "},")":{"ha":884,"x_min":111,"x_max":619,"o":"m 112 -265 l 111 -212 q 380 -17 275 -169 q 519 379 485 135 q 491 775 553 622 q 279 970 429 927 l 294 1023 q 542 808 465 980 q 582 379 619 636 q 420 -51 545 121 q 112 -265 295 -222 z "},"[":{"ha":884,"x_min":178,"x_max":734,"o":"m 178 -253 l 355 1010 l 734 1010 l 726 953 l 410 953 l 249 -196 l 564 -196 l 557 -253 l 178 -253 z "},"]":{"ha":884,"x_min":115,"x_max":670,"o":"m 115 -253 l 122 -196 l 438 -196 l 600 953 l 284 953 l 292 1010 l 670 1010 l 494 -253 l 115 -253 z "},"{":{"ha":884,"x_min":76,"x_max":736,"o":"m 554 -265 q 225 -217 322 -269 q 143 -56 128 -165 q 175 31 149 -9 q 259 125 201 71 q 325 194 306 168 q 348 244 345 220 q 299 337 357 309 q 76 369 240 365 l 83 419 q 313 450 245 423 q 390 542 381 477 q 381 586 394 563 q 332 645 367 610 q 273 729 288 692 q 265 816 258 766 q 396 976 280 926 q 736 1023 511 1027 l 729 966 q 432 935 524 970 q 328 814 340 900 q 337 751 323 780 q 393 679 351 721 q 445 608 432 638 q 453 543 458 578 q 385 438 444 472 q 223 400 326 404 l 222 394 q 372 343 323 384 q 410 235 420 303 q 382 167 405 199 q 304 88 359 135 q 233 14 255 45 q 206 -54 211 -18 q 275 -179 193 -143 q 563 -211 357 -215 l 554 -265 z "},"}":{"ha":884,"x_min":112,"x_max":778,"o":"m 585 -56 q 457 -217 569 -165 q 112 -265 345 -269 l 121 -211 q 417 -179 324 -215 q 521 -54 509 -143 q 513 14 527 -18 q 463 88 500 45 q 407 167 422 135 q 398 235 393 199 q 468 343 408 303 q 631 394 528 384 l 633 400 q 481 438 530 404 q 441 543 432 472 q 468 608 446 578 q 542 679 490 638 q 616 751 593 721 q 644 814 639 780 q 573 935 655 900 q 287 966 491 970 l 294 1023 q 621 976 519 1027 q 707 816 722 926 q 674 729 699 766 q 592 645 649 692 q 527 586 547 610 q 504 542 508 563 q 556 450 495 477 q 778 419 616 423 l 770 369 q 539 337 606 365 q 462 244 471 309 q 472 194 458 220 q 519 125 485 168 q 576 31 562 71 q 585 -56 591 -9 z "},"#":{"ha":884,"x_min":64,"x_max":822,"o":"m 528 341 l 591 676 l 357 676 l 294 341 l 528 341 m 462 0 l 516 284 l 283 284 l 229 0 l 172 0 l 226 284 l 64 284 l 72 341 l 237 341 l 301 676 l 119 676 l 128 732 l 312 732 l 364 1010 l 420 1010 l 369 732 l 602 732 l 654 1010 l 711 1010 l 659 732 l 822 732 l 813 676 l 648 676 l 585 341 l 766 341 l 759 284 l 573 284 l 519 0 l 462 0 z "},"%":{"ha":884,"x_min":28,"x_max":864,"o":"m 255 566 q 140 614 179 566 q 115 761 101 662 l 125 837 q 193 987 139 938 q 321 1035 246 1035 q 435 987 396 1035 q 460 837 473 938 l 449 761 q 383 614 436 662 q 255 566 330 566 m 263 617 q 347 651 313 617 q 390 759 380 684 l 402 840 q 388 949 413 914 q 313 984 364 984 q 229 949 263 984 q 183 840 194 914 l 172 759 q 187 651 162 684 q 263 617 212 617 m 28 198 l 828 866 l 864 821 l 62 153 l 28 198 m 564 -28 q 449 20 489 -28 q 424 168 410 68 l 434 244 q 502 393 448 345 q 630 442 556 442 q 744 393 706 442 q 769 244 783 345 l 759 168 q 692 20 745 68 q 564 -28 639 -28 m 572 24 q 656 57 622 24 q 699 165 689 91 l 711 246 q 698 355 722 321 q 622 390 673 390 q 538 355 572 390 q 492 246 504 321 l 481 165 q 496 57 471 91 q 572 24 521 24 z "},"‰":{"ha":884,"x_min":-10,"x_max":833,"o":"m 230 566 q 131 610 165 566 q 110 749 97 655 l 125 850 q 184 990 138 944 q 295 1035 231 1035 q 393 990 360 1035 q 414 850 427 944 l 399 749 q 340 610 386 655 q 230 566 294 566 m 173 746 q 181 648 163 678 q 237 617 199 617 q 301 648 277 617 q 336 746 326 678 l 351 852 q 343 952 360 920 q 288 984 327 984 q 223 952 250 984 q 188 852 197 920 l 173 746 m 826 821 l 24 153 l -10 198 l 790 866 l 826 821 m 649 -28 q 592 -10 615 -28 q 558 44 568 8 q 509 -10 538 8 q 447 -28 480 -28 q 357 17 388 -28 q 340 155 327 62 l 355 256 q 411 396 367 351 q 513 442 455 442 q 570 424 547 442 q 604 369 593 405 q 653 424 624 405 q 715 442 682 442 q 804 396 774 442 q 821 256 833 351 l 806 155 q 750 17 793 62 q 649 -28 707 -28 m 403 153 q 408 54 393 85 q 455 24 423 24 q 509 54 487 24 q 540 153 530 85 l 556 259 q 551 359 564 327 q 505 390 538 390 q 450 359 473 390 q 418 259 427 327 l 403 153 m 605 153 q 610 54 595 85 q 657 24 625 24 q 711 54 689 24 q 742 153 732 85 l 758 259 q 753 359 766 327 q 707 390 740 390 q 652 359 676 390 q 620 259 629 327 l 605 153 z "},"'":{"ha":884,"x_min":426,"x_max":563,"o":"m 426 568 l 462 1010 l 563 1010 l 476 568 l 426 568 z "},"\"":{"ha":884,"x_min":236,"x_max":753,"o":"m 615 568 l 652 1010 l 753 1010 l 665 568 l 615 568 m 236 568 l 273 1010 l 374 1010 l 287 568 l 236 568 z "},"ʻ":{"ha":884,"x_min":338,"x_max":677,"o":"m 338 568 l 621 1010 l 677 1010 l 463 568 l 338 568 z "},"‘":{"ha":884,"x_min":338,"x_max":677,"o":"m 338 568 l 621 1010 l 677 1010 l 463 568 l 338 568 z "},"’":{"ha":884,"x_min":287,"x_max":625,"o":"m 287 568 l 500 1010 l 625 1010 l 342 568 l 287 568 z "},"“":{"ha":884,"x_min":149,"x_max":854,"o":"m 528 568 l 798 1010 l 854 1010 l 640 568 l 528 568 m 149 568 l 419 1010 l 475 1010 l 261 568 l 149 568 z "},"”":{"ha":884,"x_min":110,"x_max":814,"o":"m 489 568 l 702 1010 l 814 1010 l 544 568 l 489 568 m 110 568 l 323 1010 l 436 1010 l 165 568 l 110 568 z "},"‛":{"ha":884,"x_min":361,"x_max":576,"o":"m 361 568 m 520 568 l 361 1010 l 486 1010 l 576 568 l 520 568 z "},"‚":{"ha":884,"x_min":172,"x_max":510,"o":"m 172 0 m 172 -253 l 385 189 l 510 189 l 227 -253 l 172 -253 z "},"„":{"ha":884,"x_min":-16,"x_max":688,"o":"m 0 0 m 362 -253 l 576 189 l 688 189 l 418 -253 l 362 -253 m -16 -253 l 197 189 l 309 189 l 39 -253 l -16 -253 z "},"‹":{"ha":884,"x_min":242,"x_max":664,"o":"m 582 152 l 242 429 l 246 455 l 664 732 l 654 663 l 317 442 l 592 221 l 582 152 z "},"›":{"ha":884,"x_min":203,"x_max":625,"o":"m 203 152 l 213 221 l 549 442 l 275 663 l 285 732 l 625 455 l 621 429 l 203 152 z "},"«":{"ha":884,"x_min":78,"x_max":828,"o":"m 746 152 l 457 429 l 461 455 l 828 732 l 818 663 l 519 442 l 756 221 l 746 152 m 367 152 l 78 429 l 82 455 l 449 732 l 439 663 l 140 442 l 378 221 l 367 152 z "},"»":{"ha":884,"x_min":39,"x_max":789,"o":"m 39 152 l 49 221 l 347 442 l 111 663 l 121 732 l 410 455 l 407 429 l 39 152 m 418 152 l 428 221 l 726 442 l 490 663 l 500 732 l 789 455 l 785 429 l 418 152 z "},"*":{"ha":884,"x_min":129,"x_max":801,"o":"m 712 448 l 477 638 l 451 328 l 383 328 l 442 636 l 155 448 l 129 506 l 434 670 l 176 835 l 217 893 l 451 703 l 477 1010 l 545 1010 l 486 702 l 774 893 l 801 835 l 496 670 l 754 506 l 712 448 z "},"†":{"ha":884,"x_min":115,"x_max":749,"o":"m 304 -253 l 438 701 l 249 701 l 165 379 l 115 379 l 206 758 l 448 758 l 475 1010 l 551 1010 l 506 758 l 749 758 l 734 379 l 683 379 l 691 701 l 501 701 l 367 -253 l 304 -253 z "},"‡":{"ha":884,"x_min":100,"x_max":749,"o":"m 292 -253 l 336 0 l 100 0 l 102 290 l 153 290 l 158 57 l 347 57 l 438 701 l 249 701 l 178 467 l 128 467 l 206 758 l 448 758 l 475 1010 l 551 1010 l 506 758 l 749 758 l 746 467 l 696 467 l 691 701 l 501 701 l 410 57 l 600 57 l 670 290 l 721 290 l 643 0 l 407 0 l 380 -253 l 292 -253 z "},".":{"ha":884,"x_min":297,"x_max":467,"o":"m 371 -13 q 316 4 336 -13 q 302 56 297 20 l 307 91 q 336 145 312 128 q 395 162 360 162 q 449 145 431 162 q 462 91 467 128 l 457 56 q 429 4 452 20 q 371 -13 405 -13 z "},",":{"ha":884,"x_min":172,"x_max":510,"o":"m 172 -253 l 385 189 l 510 189 l 227 -253 l 172 -253 z "},":":{"ha":884,"x_min":297,"x_max":553,"o":"m 456 593 q 402 610 420 593 q 388 662 383 626 l 393 697 q 421 751 398 734 q 480 768 444 768 q 534 751 515 768 q 548 697 553 734 l 543 662 q 514 610 538 626 q 456 593 490 593 m 371 -13 q 316 4 336 -13 q 302 56 297 20 l 307 91 q 336 145 312 128 q 395 162 360 162 q 449 145 431 162 q 462 91 467 128 l 457 56 q 429 4 452 20 q 371 -13 405 -13 z "},";":{"ha":884,"x_min":172,"x_max":553,"o":"m 456 593 q 402 610 420 593 q 388 662 383 626 l 393 697 q 421 751 398 734 q 480 768 444 768 q 534 751 515 768 q 548 697 553 734 l 543 662 q 514 610 538 626 q 456 593 490 593 m 172 -253 l 385 189 l 510 189 l 227 -253 l 172 -253 z "},"…":{"ha":884,"x_min":6,"x_max":756,"o":"m 673 -13 q 628 4 644 -13 q 616 56 611 20 l 621 91 q 647 145 626 128 q 697 162 668 162 q 741 145 726 162 q 751 91 756 128 l 746 56 q 721 4 741 20 q 673 -13 701 -13 m 371 -13 q 326 4 342 -13 q 314 56 309 20 l 319 91 q 345 145 324 128 q 395 162 366 162 q 439 145 424 162 q 449 91 455 128 l 444 56 q 419 4 439 20 q 371 -13 399 -13 m 68 -13 q 23 4 39 -13 q 11 56 6 20 l 16 91 q 42 145 21 128 q 92 162 63 162 q 136 145 121 162 q 146 91 152 128 l 141 56 q 116 4 136 20 q 68 -13 96 -13 z "},"!":{"ha":884,"x_min":297,"x_max":551,"o":"m 399 379 l 475 1010 l 551 1010 l 449 379 l 399 379 m 371 -13 q 317 4 337 -13 q 302 56 297 20 l 307 91 q 336 145 312 128 q 395 162 361 162 q 448 145 429 162 q 462 91 467 128 l 457 56 q 428 4 452 20 q 371 -13 404 -13 z "},"¡":{"ha":884,"x_min":335,"x_max":588,"o":"m 516 1021 q 569 1004 551 1021 q 583 951 588 987 l 578 915 q 549 864 573 880 q 491 847 524 847 q 437 864 457 847 q 423 915 418 880 l 428 951 q 458 1004 433 987 q 516 1021 482 1021 m 486 631 l 410 0 l 335 0 l 436 631 l 486 631 z "},"‼":{"ha":884,"x_min":120,"x_max":727,"o":"m 576 379 l 652 1010 l 727 1010 l 626 379 l 576 379 m 222 379 l 298 1010 l 374 1010 l 273 379 l 222 379 m 548 -13 q 494 4 514 -13 q 479 56 473 20 l 484 91 q 513 145 489 128 q 572 162 538 162 q 625 145 606 162 q 639 91 644 128 l 634 56 q 605 4 629 20 q 548 -13 581 -13 m 194 -13 q 140 4 160 -13 q 125 56 120 20 l 130 91 q 160 145 135 128 q 218 162 184 162 q 271 145 253 162 q 285 91 290 128 l 280 56 q 251 4 275 20 q 194 -13 227 -13 z "},"?":{"ha":884,"x_min":128,"x_max":831,"o":"m 326 395 l 321 446 q 628 537 530 479 q 741 697 726 595 l 746 735 q 709 913 764 860 q 508 966 654 966 q 287 918 351 966 q 189 731 222 870 l 128 737 q 244 960 159 898 q 514 1023 328 1023 q 756 954 681 1023 q 811 750 831 885 l 803 692 q 678 499 785 566 q 326 395 571 433 m 308 -13 q 254 4 274 -13 q 239 56 234 20 l 244 91 q 273 145 249 128 q 332 162 298 162 q 385 145 366 162 q 399 91 404 128 l 394 56 q 365 4 389 20 q 308 -13 341 -13 z "},"¿":{"ha":884,"x_min":54,"x_max":756,"o":"m 577 1023 q 631 1006 611 1023 q 645 955 650 990 l 640 919 q 610 866 635 883 q 552 848 586 848 q 499 866 518 848 q 485 919 480 883 l 490 955 q 520 1006 495 990 q 577 1023 544 1023 m 558 615 l 564 564 q 256 473 354 532 q 144 313 158 415 l 139 275 q 176 97 121 150 q 378 44 231 44 q 598 92 534 44 q 694 279 663 140 l 756 273 q 641 50 726 112 q 371 -13 557 -13 q 129 56 205 -13 q 73 260 54 125 l 81 318 q 205 511 100 446 q 558 615 311 577 z "},"/":{"ha":884,"x_min":52,"x_max":797,"o":"m 52 -253 l 734 1010 l 797 1010 l 115 -253 l 52 -253 z "},"\\":{"ha":884,"x_min":229,"x_max":620,"o":"m 557 -253 l 229 1010 l 292 1010 l 620 -253 l 557 -253 z "},"⁄":{"ha":884,"x_min":87,"x_max":797,"o":"m 87 0 l 734 1010 l 797 1010 l 150 0 l 87 0 z "},"∕":{"ha":884,"x_min":87,"x_max":797,"o":"m 87 0 l 734 1010 l 797 1010 l 150 0 l 87 0 z "},"|":{"ha":884,"x_min":311,"x_max":538,"o":"m 311 -253 l 487 1010 l 538 1010 l 361 -253 l 311 -253 z "},"¦":{"ha":884,"x_min":311,"x_max":538,"o":"m 417 505 l 487 1010 l 538 1010 l 467 505 l 417 505 m 311 -253 l 381 253 l 432 253 l 361 -253 l 311 -253 z "},"@":{"ha":884,"x_min":77,"x_max":784,"o":"m 432 -139 q 162 -37 247 -139 q 105 264 77 64 l 158 640 q 280 924 184 824 q 527 1023 376 1023 q 723 926 663 1023 q 760 653 784 830 l 716 345 q 640 189 694 239 q 497 139 586 139 q 372 196 407 139 q 352 356 337 254 l 374 510 q 446 672 388 611 q 578 732 505 732 q 657 713 629 732 q 696 663 684 693 l 705 663 q 682 898 727 817 q 519 979 636 979 q 309 897 384 979 q 208 640 234 816 l 155 264 q 200 -1 131 87 q 438 -90 269 -90 q 552 -80 503 -90 q 648 -57 601 -71 l 640 -107 q 539 -131 585 -122 q 432 -139 492 -139 m 510 189 q 612 232 576 189 q 662 359 649 274 l 682 500 q 670 636 694 591 q 580 682 645 682 q 479 636 516 682 q 428 497 442 590 l 410 369 q 422 234 398 279 q 510 189 447 189 z "},"&":{"ha":884,"x_min":15,"x_max":779,"o":"m 759 -8 q 633 68 696 30 q 516 153 571 106 q 374 34 456 81 q 210 -13 293 -13 q 63 60 111 -13 q 32 254 15 133 q 105 415 44 337 q 256 543 165 492 q 225 677 231 614 q 225 782 218 740 q 309 958 240 891 q 477 1024 379 1024 q 609 967 567 1024 q 638 821 650 909 q 544 661 625 729 q 321 528 463 593 q 347 473 332 504 q 380 412 361 443 q 445 314 408 364 q 525 222 482 265 q 615 345 572 279 q 702 491 658 412 l 747 465 q 648 313 694 380 q 552 189 602 246 l 779 47 l 759 -8 m 285 783 q 285 678 279 732 q 307 566 290 624 q 498 682 424 619 q 582 818 572 745 q 559 924 591 883 q 468 966 528 966 q 346 918 394 966 q 285 783 298 870 m 229 44 q 357 81 287 44 q 482 181 427 119 q 402 277 442 221 q 330 394 362 333 q 299 449 313 422 q 273 503 285 476 q 152 394 199 461 q 93 254 104 327 q 117 101 81 158 q 229 44 153 44 z "},"§":{"ha":884,"x_min":92,"x_max":763,"o":"m 390 223 q 412 218 402 221 q 434 213 423 216 q 584 256 528 215 q 650 371 640 297 q 619 471 659 436 q 465 530 578 506 q 443 535 453 533 q 420 540 432 538 q 271 498 327 539 q 205 383 215 457 q 235 283 194 318 q 390 223 277 247 m 357 -261 q 208 -234 278 -261 q 92 -155 139 -206 l 131 -104 q 243 -181 188 -157 q 371 -205 298 -205 q 528 -161 466 -205 q 600 -43 590 -117 q 560 88 612 42 q 366 165 508 135 q 182 243 236 193 q 140 380 129 293 q 204 501 152 455 q 330 569 256 548 q 225 653 263 598 q 198 792 187 707 q 295 953 212 891 q 497 1015 378 1015 q 646 987 577 1015 q 763 909 716 960 l 721 859 q 610 934 665 910 q 484 957 556 957 q 327 914 389 957 q 255 797 265 871 q 295 666 242 712 q 487 588 347 620 q 672 511 619 561 q 715 376 726 462 q 651 252 703 301 q 521 182 598 203 q 632 97 596 146 q 658 -29 668 48 q 561 -198 643 -135 q 357 -261 479 -261 z "}}}
